<?xml version='1.0' encoding='utf-8'?>
<svg xmlns="http://www.w3.org/2000/svg" version="1.1" width="9.8552mm" height="9.6774mm" viewBox="0.0000 0.0000 9.8552 9.6774">
<title>SVG Image created as LED0603-FD.svg date 2026/01/13 02:43:00 </title>
  <desc>Image generated by PCBNEW </desc>
<g style="fill:#000000; fill-opacity:1.0000;stroke:#000000; stroke-opacity:1.0000; stroke-linecap:round; stroke-linejoin:round;" transform="translate(0 0) scale(1 1)">
<path style="fill:#000000; fill-opacity:1.0000; stroke:none;fill-rule:evenodd;" d="M 3.6345,4.3483 4.5345,4.3483 4.5345,5.3483 3.6345,5.3483 Z" /> 
<path style="fill:#000000; fill-opacity:1.0000; stroke:none;fill-rule:evenodd;" d="M 5.3345,4.3483 6.2345,4.3483 6.2345,5.3483 5.3345,5.3483 Z" /> 
<path style="fill:#000000; fill-opacity:1.0000; stroke:none;fill-rule:evenodd;" d="M 3.6345,4.3483 4.5345,4.3483 4.5345,5.3483 3.6345,5.3483 Z" /> 
<path style="fill:#000000; fill-opacity:1.0000; stroke:none;fill-rule:evenodd;" d="M 5.3345,4.3483 6.2345,4.3483 6.2345,5.3483 5.3345,5.3483 Z" /> 
<path style="fill:#000000; fill-opacity:1.0000; stroke:none;fill-rule:evenodd;" d="M 3.6345,4.3483 4.5345,4.3483 4.5345,5.3483 3.6345,5.3483 Z" /> 
<path style="fill:#000000; fill-opacity:1.0000; stroke:none;fill-rule:evenodd;" d="M 5.3345,4.3483 6.2345,4.3483 6.2345,5.3483 5.3345,5.3483 Z" /> 
</g>
<g style="fill:none;  stroke:#000000; stroke-width:0.1500; stroke-opacity:1;  stroke-linecap:round; stroke-linejoin:round;">
<path d="M6.6845 4.4982 L6.6845 4.3982 " />
<path d="M6.6845 4.3982 L6.3845 4.0983 " />
<path d="M6.6845 5.1982 L6.6845 5.2982 " />
<path d="M6.6845 5.2982 L6.3845 5.5983 " />
<path d="M6.6845 5.1982 L6.6845 4.4982 " />
<path d="M3.3845 5.5983 L3.3845 4.1182 " />
<path d="M5.2345 4.0983 L6.3845 4.0983 " />
<path d="M5.2345 5.5983 L6.3845 5.5983 " />
<path d="M4.6345 4.0983 L3.3845 4.0983 " />
<path d="M4.6345 5.5983 L3.3845 5.5983 " />
<path d="M4.8045 4.4682 L4.8045 5.2283 " />
<path d="M4.8045 4.8483 L5.0645 4.8483 " />
<text x="4.9345" y="9.3483" textLength="9.8690" font-size="1.3333" lengthAdjust="spacingAndGlyphs" text-anchor="middle" opacity="0" stroke-opacity="0">LED0603-FD</text>
<g class="stroked-text"><desc>LED0603-FD</desc>
<path d="M0.8393 9.3031 L0.3631 9.3031 " />
<path d="M0.3631 9.3031 L0.3631 8.3031 " />
<path d="M1.1726 8.7793 L1.5060 8.7793 " />
<path d="M1.6488 9.3031 L1.1726 9.3031 " />
<path d="M1.1726 9.3031 L1.1726 8.3031 " />
<path d="M1.1726 8.3031 L1.6488 8.3031 " />
<path d="M2.0774 9.3031 L2.0774 8.3031 " />
<path d="M2.0774 8.3031 L2.3155 8.3031 " />
<path d="M2.3155 8.3031 L2.4583 8.3507 " />
<path d="M2.4583 8.3507 L2.5536 8.4459 " />
<path d="M2.5536 8.4459 L2.6012 8.5412 " />
<path d="M2.6012 8.5412 L2.6488 8.7316 " />
<path d="M2.6488 8.7316 L2.6488 8.8745 " />
<path d="M2.6488 8.8745 L2.6012 9.0650 " />
<path d="M2.6012 9.0650 L2.5536 9.1602 " />
<path d="M2.5536 9.1602 L2.4583 9.2554 " />
<path d="M2.4583 9.2554 L2.3155 9.3031 " />
<path d="M2.3155 9.3031 L2.0774 9.3031 " />
<path d="M3.2679 8.3031 L3.3631 8.3031 " />
<path d="M3.3631 8.3031 L3.4583 8.3507 " />
<path d="M3.4583 8.3507 L3.5060 8.3983 " />
<path d="M3.5060 8.3983 L3.5536 8.4935 " />
<path d="M3.5536 8.4935 L3.6012 8.6840 " />
<path d="M3.6012 8.6840 L3.6012 8.9221 " />
<path d="M3.6012 8.9221 L3.5536 9.1126 " />
<path d="M3.5536 9.1126 L3.5060 9.2078 " />
<path d="M3.5060 9.2078 L3.4583 9.2554 " />
<path d="M3.4583 9.2554 L3.3631 9.3031 " />
<path d="M3.3631 9.3031 L3.2679 9.3031 " />
<path d="M3.2679 9.3031 L3.1726 9.2554 " />
<path d="M3.1726 9.2554 L3.1250 9.2078 " />
<path d="M3.1250 9.2078 L3.0774 9.1126 " />
<path d="M3.0774 9.1126 L3.0298 8.9221 " />
<path d="M3.0298 8.9221 L3.0298 8.6840 " />
<path d="M3.0298 8.6840 L3.0774 8.4935 " />
<path d="M3.0774 8.4935 L3.1250 8.3983 " />
<path d="M3.1250 8.3983 L3.1726 8.3507 " />
<path d="M3.1726 8.3507 L3.2679 8.3031 " />
<path d="M4.4583 8.3031 L4.2679 8.3031 " />
<path d="M4.2679 8.3031 L4.1726 8.3507 " />
<path d="M4.1726 8.3507 L4.1250 8.3983 " />
<path d="M4.1250 8.3983 L4.0298 8.5412 " />
<path d="M4.0298 8.5412 L3.9821 8.7316 " />
<path d="M3.9821 8.7316 L3.9821 9.1126 " />
<path d="M3.9821 9.1126 L4.0298 9.2078 " />
<path d="M4.0298 9.2078 L4.0774 9.2554 " />
<path d="M4.0774 9.2554 L4.1726 9.3031 " />
<path d="M4.1726 9.3031 L4.3631 9.3031 " />
<path d="M4.3631 9.3031 L4.4583 9.2554 " />
<path d="M4.4583 9.2554 L4.5060 9.2078 " />
<path d="M4.5060 9.2078 L4.5536 9.1126 " />
<path d="M4.5536 9.1126 L4.5536 8.8745 " />
<path d="M4.5536 8.8745 L4.5060 8.7793 " />
<path d="M4.5060 8.7793 L4.4583 8.7316 " />
<path d="M4.4583 8.7316 L4.3631 8.6840 " />
<path d="M4.3631 8.6840 L4.1726 8.6840 " />
<path d="M4.1726 8.6840 L4.0774 8.7316 " />
<path d="M4.0774 8.7316 L4.0298 8.7793 " />
<path d="M4.0298 8.7793 L3.9821 8.8745 " />
<path d="M5.1726 8.3031 L5.2679 8.3031 " />
<path d="M5.2679 8.3031 L5.3631 8.3507 " />
<path d="M5.3631 8.3507 L5.4107 8.3983 " />
<path d="M5.4107 8.3983 L5.4583 8.4935 " />
<path d="M5.4583 8.4935 L5.5060 8.6840 " />
<path d="M5.5060 8.6840 L5.5060 8.9221 " />
<path d="M5.5060 8.9221 L5.4583 9.1126 " />
<path d="M5.4583 9.1126 L5.4107 9.2078 " />
<path d="M5.4107 9.2078 L5.3631 9.2554 " />
<path d="M5.3631 9.2554 L5.2679 9.3031 " />
<path d="M5.2679 9.3031 L5.1726 9.3031 " />
<path d="M5.1726 9.3031 L5.0774 9.2554 " />
<path d="M5.0774 9.2554 L5.0298 9.2078 " />
<path d="M5.0298 9.2078 L4.9821 9.1126 " />
<path d="M4.9821 9.1126 L4.9345 8.9221 " />
<path d="M4.9345 8.9221 L4.9345 8.6840 " />
<path d="M4.9345 8.6840 L4.9821 8.4935 " />
<path d="M4.9821 8.4935 L5.0298 8.3983 " />
<path d="M5.0298 8.3983 L5.0774 8.3507 " />
<path d="M5.0774 8.3507 L5.1726 8.3031 " />
<path d="M5.8393 8.3031 L6.4583 8.3031 " />
<path d="M6.4583 8.3031 L6.1250 8.6840 " />
<path d="M6.1250 8.6840 L6.2679 8.6840 " />
<path d="M6.2679 8.6840 L6.3631 8.7316 " />
<path d="M6.3631 8.7316 L6.4107 8.7793 " />
<path d="M6.4107 8.7793 L6.4583 8.8745 " />
<path d="M6.4583 8.8745 L6.4583 9.1126 " />
<path d="M6.4583 9.1126 L6.4107 9.2078 " />
<path d="M6.4107 9.2078 L6.3631 9.2554 " />
<path d="M6.3631 9.2554 L6.2679 9.3031 " />
<path d="M6.2679 9.3031 L5.9821 9.3031 " />
<path d="M5.9821 9.3031 L5.8869 9.2554 " />
<path d="M5.8869 9.2554 L5.8393 9.2078 " />
<path d="M6.8869 8.9221 L7.6488 8.9221 " />
<path d="M8.4583 8.7793 L8.1250 8.7793 " />
<path d="M8.1250 9.3031 L8.1250 8.3031 " />
<path d="M8.1250 8.3031 L8.6012 8.3031 " />
<path d="M8.9821 9.3031 L8.9821 8.3031 " />
<path d="M8.9821 8.3031 L9.2202 8.3031 " />
<path d="M9.2202 8.3031 L9.3631 8.3507 " />
<path d="M9.3631 8.3507 L9.4583 8.4459 " />
<path d="M9.4583 8.4459 L9.5060 8.5412 " />
<path d="M9.5060 8.5412 L9.5536 8.7316 " />
<path d="M9.5536 8.7316 L9.5536 8.8745 " />
<path d="M9.5536 8.8745 L9.5060 9.0650 " />
<path d="M9.5060 9.0650 L9.4583 9.1602 " />
<path d="M9.4583 9.1602 L9.3631 9.2554 " />
<path d="M9.3631 9.2554 L9.2202 9.3031 " />
<path d="M9.2202 9.3031 L8.9821 9.3031 " />
</g></g>
<g style="fill:none;  stroke:#000000; stroke-width:0.0600; stroke-opacity:1;  stroke-linecap:round; stroke-linejoin:round;">
<circle cx="4.1345" cy="5.2482" r="0.0300" /> 
</g> 
</svg>