<?xml version="1.0" standalone="no"?>
 <!DOCTYPE svg PUBLIC "-//W3C//DTD SVG 1.1//EN" 
 "http://www.w3.org/Graphics/SVG/1.1/DTD/svg11.dtd"> 
<svg
  xmlns:svg="http://www.w3.org/2000/svg"
  xmlns="http://www.w3.org/2000/svg"
  xmlns:xlink="http://www.w3.org/1999/xlink"
  version="1.1"
  width="25.5270mm" height="9.6774mm" viewBox="0.0000 0.0000 25.5270 9.6774">
<title>SVG Image created as SOD-123F_L2.8-W1.8-LS3.7-RD.svg date 2026/01/13 04:50:12 </title>
  <desc>Image generated by PCBNEW </desc>
<g style="fill:#000000; fill-opacity:1.0000;stroke:#000000; stroke-opacity:1.0000;
stroke-linecap:round; stroke-linejoin:round;"
 transform="translate(0 0) scale(1 1)">
<path style="fill:#000000; fill-opacity:1.0000; stroke:none;fill-rule:evenodd;"
d="M 13.9179,5.4482
13.9179,4.2482
14.9179,4.2482
14.9179,5.4482
Z" /> 
<path style="fill:#000000; fill-opacity:1.0000; stroke:none;fill-rule:evenodd;"
d="M 10.6179,5.4482
10.6179,4.2482
11.6179,4.2482
11.6179,5.4482
Z" /> 
<path style="fill:#000000; fill-opacity:1.0000; stroke:none;fill-rule:evenodd;"
d="M 13.9179,5.4482
13.9179,4.2482
14.9179,4.2482
14.9179,5.4482
Z" /> 
<path style="fill:#000000; fill-opacity:1.0000; stroke:none;fill-rule:evenodd;"
d="M 10.6179,5.4482
10.6179,4.2482
11.6179,4.2482
11.6179,5.4482
Z" /> 
</g>
<g style="fill:none; 
stroke:#000000; stroke-width:0.1500; stroke-opacity:1; 
stroke-linecap:round; stroke-linejoin:round;">
<text x="12.7679" y="1.3482"
textLength="4.5357" font-size="1.3333" lengthAdjust="spacingAndGlyphs"
text-anchor="middle" opacity="0" stroke-opacity="0">REF**</text>
<g class="stroked-text"><desc>REF**</desc>
<path d="M11.4345 1.3031
L11.1012 0.8269
" />
<path d="M10.8631 1.3031
L10.8631 0.3031
" />
<path d="M10.8631 0.3031
L11.2440 0.3031
" />
<path d="M11.2440 0.3031
L11.3393 0.3507
" />
<path d="M11.3393 0.3507
L11.3869 0.3983
" />
<path d="M11.3869 0.3983
L11.4345 0.4935
" />
<path d="M11.4345 0.4935
L11.4345 0.6364
" />
<path d="M11.4345 0.6364
L11.3869 0.7316
" />
<path d="M11.3869 0.7316
L11.3393 0.7793
" />
<path d="M11.3393 0.7793
L11.2440 0.8269
" />
<path d="M11.2440 0.8269
L10.8631 0.8269
" />
<path d="M11.8631 0.7793
L12.1964 0.7793
" />
<path d="M12.3393 1.3031
L11.8631 1.3031
" />
<path d="M11.8631 1.3031
L11.8631 0.3031
" />
<path d="M11.8631 0.3031
L12.3393 0.3031
" />
<path d="M13.1012 0.7793
L12.7679 0.7793
" />
<path d="M12.7679 1.3031
L12.7679 0.3031
" />
<path d="M12.7679 0.3031
L13.2440 0.3031
" />
<path d="M13.7679 0.3031
L13.7679 0.5412
" />
<path d="M13.5298 0.4459
L13.7679 0.5412
" />
<path d="M13.7679 0.5412
L14.0060 0.4459
" />
<path d="M13.6250 0.7316
L13.7679 0.5412
" />
<path d="M13.7679 0.5412
L13.9107 0.7316
" />
<path d="M14.5298 0.3031
L14.5298 0.5412
" />
<path d="M14.2917 0.4459
L14.5298 0.5412
" />
<path d="M14.5298 0.5412
L14.7679 0.4459
" />
<path d="M14.3869 0.7316
L14.5298 0.5412
" />
<path d="M14.5298 0.5412
L14.6726 0.7316
" />
</g></g>
<g style="fill:none; 
stroke:#000000; stroke-width:0.2500; stroke-opacity:1; 
stroke-linecap:round; stroke-linejoin:round;">
<path d="M11.2479 3.9082
L14.2479 3.9082
" />
<path d="M11.2579 5.7882
L14.2579 5.7882
" />
<path d="M12.0079 4.8483
L13.5279 4.8483
" />
<path d="M12.2579 4.3483
L12.2579 5.3582
" />
<path d="M13.2779 5.2582
L12.2579 4.8483
" />
<path d="M13.2779 4.4482
L13.2779 5.2582
" />
<path d="M12.2579 4.8483
L13.2779 4.4482
" />
</g> 
</svg>
