<?xml version='1.0' encoding='utf-8'?>
<svg xmlns="http://www.w3.org/2000/svg" version="1.1" width="25.5270mm" height="9.6774mm" viewBox="0.0000 0.0000 25.5270 9.6774">
<title>SVG Image created as SOD-123F_L2.8-W1.8-LS3.7-RD.svg date 2026/01/13 04:50:12 </title>
  <desc>Image generated by PCBNEW </desc>
<g style="fill:#000000; fill-opacity:1.0000;stroke:#000000; stroke-opacity:1.0000; stroke-linecap:round; stroke-linejoin:round;" transform="translate(0 0) scale(1 1)">
<path style="fill:#000000; fill-opacity:1.0000; stroke:none;fill-rule:evenodd;" d="M 13.9179,5.4482 13.9179,4.2482 14.9179,4.2482 14.9179,5.4482 Z" /> 
<path style="fill:#000000; fill-opacity:1.0000; stroke:none;fill-rule:evenodd;" d="M 10.6179,5.4482 10.6179,4.2482 11.6179,4.2482 11.6179,5.4482 Z" /> 
<path style="fill:#000000; fill-opacity:1.0000; stroke:none;fill-rule:evenodd;" d="M 13.9179,5.4482 13.9179,4.2482 14.9179,4.2482 14.9179,5.4482 Z" /> 
<path style="fill:#000000; fill-opacity:1.0000; stroke:none;fill-rule:evenodd;" d="M 10.6179,5.4482 10.6179,4.2482 11.6179,4.2482 11.6179,5.4482 Z" /> 
</g>
<g style="fill:none;  stroke:#000000; stroke-width:0.1500; stroke-opacity:1;  stroke-linecap:round; stroke-linejoin:round;">
</g>
<g style="fill:none;  stroke:#000000; stroke-width:0.2500; stroke-opacity:1;  stroke-linecap:round; stroke-linejoin:round;">
<path d="M11.2479 3.9082 L14.2479 3.9082 " />
<path d="M11.2579 5.7882 L14.2579 5.7882 " />
<path d="M12.0079 4.8483 L13.5279 4.8483 " />
<path d="M12.2579 4.3483 L12.2579 5.3582 " />
<path d="M13.2779 5.2582 L12.2579 4.8483 " />
<path d="M13.2779 4.4482 L13.2779 5.2582 " />
<path d="M12.2579 4.8483 L13.2779 4.4482 " />
</g> 
</svg>