#VRML V2.0 utf8
# 3D model generated by easyeda2kicad.py (https://github.com/uPesy/easyeda2kicad.py)

Shape{
    appearance Appearance {
        material  Material 	{
            diffuseColor 0.8392156862745098 0.8392156862745098 0.8392156862745098
            specularColor 0.7529411764705882 0.7529411764705882 0.7529411764705882
            ambientIntensity 0.2
            transparency 0
            shininess 0.5
        }
    }
    geometry IndexedFaceSet {
        ccw TRUE
        solid FALSE
        coord DEF co Coordinate {
            point [
                -0.0798 0.1055 -1.3996, -0.0798 0.0708 -1.3996, -0.1575 -0.8819 -1.3996, -0.0798 -0.0331 -1.3996, -0.0798 -0.2063 -1.3996, -0.0798 -0.241 -1.3996, 0.1281 -0.3103 -1.3996, 0.1575 -0.8819 -1.3996, 0.075 0.4346 -1.3996, 0.0883 0.4259 -1.3996, 0.075 0.322 -1.3996, 0.1281 0.1055 -1.3996, 0.1575 1.2008 -1.3996, 0.1281 -0.163 -1.3996, 0.1281 -0.137 -1.3996, 0.075 -0.1804 -1.3996, 0.1281 -0.2843 -1.3996, 0.075 -0.267 -1.3996, 0.0042 0.2354 -1.3996, 0.0042 0.1228 -1.3996, -0.0533 0.2354 -1.3996, 0.1281 0.0708 -1.3996, 0.1281 -0.0331 -1.3996, 0.1236 -0.0548 -1.3996, 0.1148 -0.0721 -1.3996, 0.0794 -0.0981 -1.3996, 0.0971 -0.0894 -1.3996, 0.0573 -0.1024 -1.3996, -0.009 -0.1024 -1.3996, -0.0312 -0.0981 -1.3996, -0.0488 -0.0894 -1.3996, -0.0665 -0.0721 -1.3996, -0.0754 -0.0548 -1.3996, 0.1015 0.2354 -1.3996, 0.0308 0.1228 -1.3996, 0.0308 0.2354 -1.3996, -0.1575 1.2008 -1.3996, -0.0798 0.3567 -1.3996, -0.0798 0.2614 -1.3996, 0.1015 0.1055 -1.3996, -0.0533 0.1055 -1.3996, 0.1281 0.2614 -1.3996, 0.0573 0.4389 -1.3996, 0.075 0.296 -1.3996, -0.009 0.4389 -1.3996, 0.0971 0.413 -1.3996, 0.1015 0.3956 -1.3996, 0.1015 0.3567 -1.3996, 0.0971 0.3393 -1.3996, -0.009 0.4649 -1.3996, -0.0798 0.6295 -1.3996, 0.1015 0.6295 -1.3996, 0.1015 0.4996 -1.3996, 0.1281 0.4996 -1.3996, 0.1148 0.4346 -1.3996, 0.0883 0.3263 -1.3996, 0.0794 0.4606 -1.3996, -0.0267 0.296 -1.3996, -0.04 0.4259 -1.3996, -0.0267 0.322 -1.3996, -0.04 0.3263 -1.3996, 0.0573 0.4649 -1.3996, -0.0488 0.413 -1.3996, -0.0312 0.4606 -1.3996, -0.0488 0.3393 -1.3996, -0.0533 0.3956 -1.3996, -0.0533 0.3567 -1.3996, -0.0754 0.4173 -1.3996, -0.0665 0.4346 -1.3996, -0.0798 0.3956 -1.3996, -0.0267 0.4346 -1.3996, -0.0488 0.3004 -1.3996, -0.0665 0.3177 -1.3996, -0.0754 0.335 -1.3996, -0.0798 0.6555 -1.3996, 0.1281 0.3567 -1.3996, 0.1281 0.3956 -1.3996, 0.1281 0.6555 -1.3996, 0.1236 0.335 -1.3996, 0.1148 0.3177 -1.3996, 0.0971 0.3004 -1.3996, 0.1236 0.4173 -1.3996, 0.0971 0.4519 -1.3996, -0.0488 0.4519 -1.3996, -0.04 -0.0634 -1.3996, -0.009 -0.0764 -1.3996, -0.0267 -0.0721 -1.3996, -0.0533 0.0448 -1.3996, 0.1015 -0.0331 -1.3996, -0.0533 -0.0331 -1.3996, -0.0488 -0.0504 -1.3996, 0.0573 -0.0764 -1.3996, 0.075 -0.0721 -1.3996, 0.0883 -0.0634 -1.3996, 0.0971 -0.0504 -1.3996, 0.1015 0.0448 -1.3996, 0.0573 -0.1847 -1.3996, 0.0573 -0.2626 -1.3996, -0.0621 -0.2237 -1.3996, -0.1575 1.2008 -2.1004, 0.1575 1.2008 -2.1004, 0.1575 3.8433 -3.5816, 0.1575 3.7795 -3.6004, 0.1575 3.8127 -3.5956, 0.1575 3.8964 -3.499, 0.1575 4.0 -2.7736, 0.1575 3.5276 -2.7736, 0.1575 3.8688 -3.5596, 0.1575 3.6588 -3.5596, 0.1575 3.8869 -3.5313, 0.1575 3.6312 -3.499, 0.1575 3.6406 -3.5313, 0.1575 -0.8819 -1.1004, 0.1575 1.5276 -2.1004, 0.1575 3.6063 1.3996, 0.1575 -1.891 0.2634, 0.1575 -1.8768 0.2073, 0.1575 3.6063 -1.1075, 0.1575 -2.5728 0.1496, 0.1575 -3.6063 1.3996, 0.1575 -3.6063 -1.1004, 0.1575 3.5669 -1.1593, 0.1575 -2.1935 0.4988, 0.1575 -2.1364 0.4893, 0.1575 2.0 -2.1004, 0.1575 3.5276 -2.1004, 0.1575 4.0 -1.6895, 0.1575 1.6406 -3.5313, 0.1575 1.8688 -3.5596, 0.1575 1.8869 -3.5313, 0.1575 1.8433 -3.5816, 0.1575 1.7795 -3.6004, 0.1575 1.6588 -3.5596, 0.1575 1.6842 -3.5816, 0.1575 1.7481 -3.6004, 0.1575 1.7148 -3.5956, 0.1575 1.8127 -3.5956, 0.1575 1.6312 -3.499, 0.1575 1.8964 -3.499, 0.1575 1.5276 -2.7736, 0.1575 2.0 -2.7736, 0.1575 3.6842 -3.5816, 0.1575 3.7481 -3.6004, 0.1575 3.7148 -3.5956, 0.1575 -1.9851 0.4074, 0.1575 -1.9459 0.3648, 0.1575 -2.5538 0.2634, 0.1575 -2.5681 0.2073, 0.1575 -2.499 0.3648, 0.1575 -2.5306 0.3164, 0.1575 -2.4141 0.4429, 0.1575 -2.4598 0.4074, 0.1575 -2.3085 0.4893, 0.1575 -2.3632 0.4705, 0.1575 -2.2514 0.4988, 0.1575 -2.0817 0.4705, 0.1575 -2.0308 0.4429, 0.1575 -1.9143 0.3164, 0.1575 -1.872 0.1496, 0.1575 -1.8768 0.0919, 0.1575 -2.0817 -0.1713, 0.1575 -2.1364 -0.1901, 0.1575 -1.9143 -0.0172, 0.1575 -1.891 0.0358, 0.1575 -1.9851 -0.1082, 0.1575 -1.9459 -0.0656, 0.1575 -2.0308 -0.1437, 0.1575 -2.1935 -0.1996, 0.1575 -2.2514 -0.1996, 0.1575 -2.3085 -0.1901, 0.1575 -2.4141 -0.1437, 0.1575 -2.3632 -0.1713, 0.1575 -2.499 -0.0656, 0.1575 -2.4598 -0.1082, 0.1575 -2.5538 0.0358, 0.1575 -2.5306 -0.0172, 0.1575 -2.5681 0.0919, -0.1575 -2.5728 0.1496, -0.1575 -2.5306 0.3164, -0.1575 -2.5681 0.2073, -0.1575 -2.5539 0.2634, -0.1575 -2.4141 0.4429, -0.1575 -2.4989 0.3648, -0.1575 -2.4598 0.4074, -0.1575 -2.2514 0.4988, -0.1575 -2.3632 0.4705, -0.1575 -2.3085 0.4893, -0.1575 -2.0817 0.4705, -0.1575 -2.1364 0.4893, -0.1575 -2.1935 0.4988, -0.1575 -1.9459 0.3648, -0.1575 -1.9851 0.4074, -0.1575 -2.0308 0.4429, -0.1575 -1.9143 0.3164, -0.1575 -1.891 0.2634, -0.1575 -1.8768 0.2073, -0.1575 -1.872 0.1496, -0.1575 3.5276 -2.1004, -0.1575 4.0 -1.6895, -0.1575 4.0 -2.7736, -0.1575 1.8433 -3.5816, -0.1575 1.8127 -3.5956, -0.1575 1.7795 -3.6004, -0.1575 2.4406 0.2428, -0.1575 2.7506 0.128, -0.1575 2.4406 0.128, -0.1575 1.8688 -3.5596, -0.1575 3.8964 -3.499, -0.1575 3.8869 -3.5313, -0.1575 3.6406 -3.5313, -0.1575 1.7481 -3.6004, -0.1575 1.6842 -3.5816, -0.1575 1.6588 -3.5596, -0.1575 1.7148 -3.5956, -0.1575 3.6312 -3.499, -0.1575 3.7795 -3.6004, -0.1575 3.8688 -3.5596, -0.1575 3.8433 -3.5816, -0.1575 3.6588 -3.5596, -0.1575 3.7481 -3.6004, -0.1575 1.8869 -3.5313, -0.1575 1.8964 -3.499, -0.1575 1.6406 -3.5313, -0.1575 1.6312 -3.499, -0.1575 2.0 -2.7736, -0.1575 1.5276 -2.7736, -0.1575 2.0 -2.1004, -0.1575 1.5276 -2.1004, -0.1575 2.8343 0.1526, -0.1575 3.6063 -1.1075, -0.1575 2.8343 0.0788, -0.1575 -0.8819 -1.1004, -0.1575 3.6063 1.3996, -0.1575 2.7673 0.8334, -0.1575 2.7422 0.8416, -0.1575 -3.6063 1.3996, -0.1575 2.6836 0.8334, -0.1575 3.5669 -1.1593, -0.1575 3.5276 -2.7736, -0.1575 3.8127 -3.5956, -0.1575 3.7148 -3.5956, -0.1575 3.6842 -3.5816, -0.1575 2.7087 0.8416, -0.1575 2.8343 0.5381, -0.1575 2.8343 0.7349, -0.1575 2.4406 0.5873, -0.1575 2.6249 0.776, -0.1575 2.65 0.8088, -0.1575 2.4406 0.5381, -0.1575 2.4406 0.4725, -0.1575 2.6165 0.7349, -0.1575 2.6165 0.5873, -0.1575 2.4406 0.4233, -0.1575 2.8343 0.4725, -0.1575 2.4406 0.3084, -0.1575 2.826 0.776, -0.1575 2.8008 0.8088, -0.1575 2.7506 0.4233, -0.1575 2.4406 0.0788, -0.1575 2.4406 0.0132, -0.1575 2.8343 -0.1181, -0.1575 2.8343 0.3987, -0.1575 2.4825 0.2756, -0.1575 2.4406 -0.3149, -0.1575 2.8343 -0.1837, -0.1575 2.4406 -0.036, -0.1575 2.5411 -0.0689, -0.1575 2.5411 -0.2329, -0.1575 2.4406 -0.2657, -0.1575 -2.5681 0.0919, -0.1575 -3.6063 -1.1004, -0.1575 -2.3632 -0.1713, -0.1575 -2.3085 -0.1901, -0.1575 -2.5306 -0.0172, -0.1575 -2.5538 0.0358, -0.1575 -2.4598 -0.1082, -0.1575 -2.499 -0.0656, -0.1575 -2.4141 -0.1437, -0.1575 -2.2514 -0.1996, -0.1575 -2.1364 -0.1901, -0.1575 -2.1935 -0.1996, -0.1575 -2.0308 -0.1437, -0.1575 -2.0817 -0.1713, -0.1575 -1.9459 -0.0656, -0.1575 -1.9851 -0.1082, -0.1575 -1.891 0.0358, -0.1575 -1.9143 -0.0172, -0.1575 -1.8768 0.0919, -0.1575 2.8008 -0.1509, -0.1575 2.5747 -0.2247, -0.1575 2.5747 -0.0771, -0.1575 2.6668 0.7431, -0.1575 2.7171 0.7924, -0.1575 2.7422 0.7924, -0.1575 2.6752 0.7678, -0.1575 2.6919 0.7842, -0.1575 2.7673 0.7842, -0.1575 2.7924 0.7431, -0.1575 2.7841 0.7678, -0.1575 2.6668 0.5873, -0.1575 2.7924 0.5873, 0.0984 4.0 1.2028, 0.0984 4.0 -0.5894, -0.0984 4.0 -0.5894, -0.0984 4.0 1.2028, -0.0984 -4.0 1.2028, 0.0984 -4.0 1.2028, 0.0984 -4.0 -0.9035, -0.0984 -4.0 -0.9035, -0.1378 2.8343 -0.1837, -0.1378 2.8343 -0.1181, -0.1378 2.4406 0.0132, -0.1378 2.4406 -0.036, -0.1378 2.5411 -0.0689, -0.1378 2.5411 -0.2329, -0.1378 2.4406 -0.2657, -0.1378 2.4406 -0.3149, -0.1378 2.5747 -0.0771, -0.1378 2.5747 -0.2247, -0.1378 2.8008 -0.1509, -0.1378 2.7506 0.4233, -0.1378 2.4406 0.4725, -0.1378 2.8343 0.4725, -0.1378 2.8343 0.3987, -0.1378 2.4825 0.2756, -0.1378 2.4406 0.3084, -0.1378 2.4406 0.0788, -0.1378 2.4406 0.128, -0.1378 2.7506 0.128, -0.1378 2.8343 0.0788, -0.1378 2.8343 0.1526, -0.1378 2.4406 0.2428, -0.1378 2.4406 0.4233, -0.1378 2.6668 0.7431, -0.1378 2.6249 0.776, -0.1378 2.6752 0.7678, -0.1378 2.6165 0.7349, -0.1378 2.4406 0.5381, -0.1378 2.4406 0.5873, -0.1378 2.6165 0.5873, -0.1378 2.6668 0.5873, -0.1378 2.8343 0.5381, -0.1378 2.7924 0.7431, -0.1378 2.7841 0.7678, -0.1378 2.826 0.776, -0.1378 2.7171 0.7924, -0.1378 2.7422 0.8416, -0.1378 2.7422 0.7924, -0.1378 2.8008 0.8088, -0.1378 2.7673 0.8334, -0.1378 2.7673 0.7842, -0.1378 2.65 0.8088, -0.1378 2.6919 0.7842, -0.1378 2.8343 0.7349, -0.1378 2.7924 0.5873, -0.1378 2.7087 0.8416, -0.1378 2.6836 0.8334, 0.1281 0.6555 -1.4075, -0.0798 0.6555 -1.4075, -0.0798 0.6295 -1.4075, 0.1015 0.6295 -1.4075, 0.1015 0.4996 -1.4075, 0.1281 0.4996 -1.4075, -0.04 0.4259 -1.4075, -0.0488 0.4519 -1.4075, -0.0267 0.4346 -1.4075, -0.0267 0.296 -1.4075, -0.0488 0.3004 -1.4075, -0.0267 0.322 -1.4075, 0.1236 0.4173 -1.4075, 0.1015 0.3956 -1.4075, 0.0971 0.413 -1.4075, 0.1015 0.3567 -1.4075, 0.1236 0.335 -1.4075, 0.0971 0.3393 -1.4075, 0.1148 0.3177 -1.4075, 0.0883 0.3263 -1.4075, 0.1281 0.3567 -1.4075, 0.1281 0.3956 -1.4075, 0.0883 0.4259 -1.4075, 0.1148 0.4346 -1.4075, 0.075 0.4346 -1.4075, 0.0971 0.4519 -1.4075, 0.0794 0.4606 -1.4075, 0.0573 0.4389 -1.4075, -0.0312 0.4606 -1.4075, -0.009 0.4389 -1.4075, -0.009 0.4649 -1.4075, 0.0573 0.4649 -1.4075, -0.0488 0.413 -1.4075, -0.0665 0.4346 -1.4075, -0.0754 0.4173 -1.4075, -0.0533 0.3956 -1.4075, -0.0798 0.3567 -1.4075, -0.0798 0.3956 -1.4075, -0.0533 0.3567 -1.4075, -0.0488 0.3393 -1.4075, -0.0754 0.335 -1.4075, -0.04 0.3263 -1.4075, -0.0665 0.3177 -1.4075, 0.0971 0.3004 -1.4075, 0.075 0.322 -1.4075, 0.075 0.296 -1.4075, 0.1281 0.2614 -1.4075, 0.0308 0.2354 -1.4075, -0.0798 0.2614 -1.4075, 0.0042 0.2354 -1.4075, 0.1281 0.1055 -1.4075, 0.1015 0.2354 -1.4075, 0.0308 0.1228 -1.4075, 0.0042 0.1228 -1.4075, -0.0533 0.2354 -1.4075, -0.0533 0.1055 -1.4075, -0.0798 0.1055 -1.4075, 0.1015 0.1055 -1.4075, 0.0794 -0.0981 -1.4075, 0.0573 -0.0764 -1.4075, 0.075 -0.0721 -1.4075, 0.0573 -0.1024 -1.4075, -0.009 -0.0764 -1.4075, -0.009 -0.1024 -1.4075, -0.0488 -0.0894 -1.4075, -0.04 -0.0634 -1.4075, -0.0267 -0.0721 -1.4075, -0.0488 -0.0504 -1.4075, -0.0665 -0.0721 -1.4075, -0.0754 -0.0548 -1.4075, -0.0533 -0.0331 -1.4075, -0.0798 -0.0331 -1.4075, -0.0312 -0.0981 -1.4075, -0.0533 0.0448 -1.4075, -0.0798 0.0708 -1.4075, 0.1015 0.0448 -1.4075, 0.1281 0.0708 -1.4075, 0.1015 -0.0331 -1.4075, 0.1236 -0.0548 -1.4075, 0.0971 -0.0504 -1.4075, 0.0883 -0.0634 -1.4075, 0.1148 -0.0721 -1.4075, 0.0971 -0.0894 -1.4075, 0.1281 -0.0331 -1.4075, 0.1281 -0.3103 -1.4075, -0.0798 -0.241 -1.4075, 0.0573 -0.2626 -1.4075, 0.075 -0.1804 -1.4075, 0.1281 -0.137 -1.4075, 0.1281 -0.163 -1.4075, 0.0573 -0.1847 -1.4075, 0.1281 -0.2843 -1.4075, 0.075 -0.267 -1.4075, -0.0798 -0.2063 -1.4075, -0.0621 -0.2237 -1.4075, -0.0621 -0.2237 -1.4075
            ]
        }
        coordIndex [
            0,1,2,-1,2,3,4,-1,5,6,7,-1,8,9,10,-1,11,12,7,-1,7,13,14,-1,15,16,17,-1,2,4,5,-1,15,13,16,-1,7,16,13,-1,7,6,16,-1,5,7,2,-1,18,19,20,-1,21,7,22,-1,7,14,22,-1,14,23,22,-1,14,24,23,-1,14,25,26,-1,14,26,24,-1,25,14,27,-1,14,4,27,-1,2,1,3,-1,4,28,27,-1,4,29,28,-1,4,30,29,-1,4,31,30,-1,4,32,31,-1,4,3,32,-1,33,34,35,-1,36,37,38,-1,2,36,0,-1,1,34,21,-1,33,39,34,-1,1,19,34,-1,1,40,19,-1,19,40,20,-1,40,1,0,-1,38,0,36,-1,7,21,11,-1,12,11,41,-1,34,39,21,-1,11,21,39,-1,42,43,44,-1,45,46,47,-1,48,45,47,-1,49,50,51,-1,52,53,54,-1,9,45,48,-1,9,48,55,-1,55,10,9,-1,8,10,42,-1,51,52,56,-1,57,44,43,-1,58,59,60,-1,61,49,51,-1,60,62,58,-1,63,50,49,-1,64,65,62,-1,65,64,66,-1,67,50,68,-1,36,69,37,-1,60,64,62,-1,70,44,59,-1,70,59,58,-1,44,57,59,-1,38,57,41,-1,38,71,57,-1,71,38,72,-1,38,73,72,-1,38,37,73,-1,50,67,69,-1,69,36,50,-1,50,36,74,-1,12,75,76,-1,53,77,12,-1,12,41,75,-1,41,78,75,-1,41,79,78,-1,10,43,42,-1,79,41,80,-1,57,43,41,-1,41,43,80,-1,81,54,53,-1,81,53,76,-1,12,76,53,-1,56,52,82,-1,54,82,52,-1,56,61,51,-1,12,77,74,-1,68,50,83,-1,63,83,50,-1,12,74,36,-1,84,85,86,-1,87,88,89,-1,90,85,84,-1,88,91,89,-1,92,91,93,-1,94,93,91,-1,88,94,91,-1,91,85,89,-1,95,88,87,-1,89,85,90,-1,96,97,98,-1,99,100,12,-1,99,12,36,-1,101,102,103,-1,104,105,106,-1,107,108,102,-1,107,102,101,-1,109,104,110,-1,110,111,109,-1,112,7,12,-1,12,100,113,-1,114,115,116,-1,114,12,117,-1,118,119,120,-1,12,121,117,-1,122,123,119,-1,12,124,121,-1,12,113,124,-1,121,125,126,-1,124,125,121,-1,127,128,129,-1,130,128,131,-1,132,133,134,-1,133,135,134,-1,130,131,136,-1,132,134,131,-1,128,132,131,-1,106,110,104,-1,127,132,128,-1,137,129,138,-1,129,137,127,-1,108,107,111,-1,139,137,138,-1,139,138,140,-1,113,139,140,-1,113,140,124,-1,125,106,105,-1,105,126,125,-1,109,111,107,-1,141,142,108,-1,108,142,102,-1,142,141,143,-1,114,144,145,-1,146,119,147,-1,119,118,147,-1,148,119,149,-1,119,146,149,-1,150,119,151,-1,119,148,151,-1,152,119,153,-1,119,150,153,-1,119,154,122,-1,119,152,154,-1,114,119,155,-1,123,155,119,-1,114,156,144,-1,114,155,156,-1,157,115,114,-1,145,157,114,-1,12,116,158,-1,116,12,114,-1,159,112,158,-1,12,158,112,-1,112,160,161,-1,162,112,163,-1,112,159,163,-1,164,112,165,-1,112,162,165,-1,112,166,160,-1,112,164,166,-1,112,167,168,-1,161,167,112,-1,169,120,168,-1,112,168,120,-1,170,120,171,-1,120,169,171,-1,172,120,173,-1,120,170,173,-1,174,120,175,-1,120,172,175,-1,118,120,176,-1,120,174,176,-1,147,118,177,-1,148,149,178,-1,146,179,180,-1,181,153,150,-1,182,183,151,-1,154,184,122,-1,152,185,186,-1,156,155,187,-1,188,123,189,-1,190,145,191,-1,192,191,144,-1,157,190,193,-1,190,157,145,-1,193,194,115,-1,115,157,193,-1,195,116,194,-1,115,194,116,-1,158,195,196,-1,195,158,116,-1,156,192,144,-1,191,145,144,-1,187,155,188,-1,192,156,187,-1,123,122,189,-1,155,123,188,-1,154,186,184,-1,122,184,189,-1,153,185,152,-1,152,186,154,-1,183,181,150,-1,181,185,153,-1,182,151,148,-1,183,150,151,-1,178,149,180,-1,182,148,178,-1,146,147,179,-1,149,146,180,-1,177,179,147,-1,197,198,199,-1,200,201,202,-1,203,204,205,-1,202,206,200,-1,207,208,209,-1,202,210,206,-1,210,211,212,-1,210,213,211,-1,214,207,209,-1,206,210,212,-1,215,216,217,-1,218,216,219,-1,212,220,206,-1,221,220,222,-1,212,222,220,-1,223,224,221,-1,221,222,223,-1,225,224,223,-1,225,226,224,-1,225,227,226,-1,227,36,226,-1,227,99,36,-1,228,229,230,-1,36,2,231,-1,232,233,234,-1,235,236,187,-1,237,198,197,-1,197,226,237,-1,36,237,226,-1,197,199,238,-1,238,199,214,-1,217,239,215,-1,214,199,207,-1,219,240,241,-1,219,216,215,-1,218,208,216,-1,218,219,241,-1,218,209,208,-1,236,232,242,-1,243,244,232,-1,232,234,242,-1,193,190,245,-1,232,236,235,-1,246,245,247,-1,194,248,249,-1,250,245,246,-1,250,251,245,-1,249,252,195,-1,180,235,178,-1,253,249,243,-1,252,254,195,-1,228,232,229,-1,255,232,244,-1,256,232,255,-1,233,232,256,-1,254,252,257,-1,203,196,254,-1,249,248,243,-1,205,196,203,-1,205,231,196,-1,205,258,231,-1,230,259,258,-1,258,259,231,-1,260,230,229,-1,261,232,228,-1,261,228,262,-1,253,232,261,-1,243,232,253,-1,254,196,195,-1,237,263,229,-1,260,259,230,-1,229,264,260,-1,259,265,231,-1,266,267,268,-1,265,268,231,-1,264,229,263,-1,231,268,36,-1,266,268,265,-1,237,36,263,-1,36,268,263,-1,194,249,195,-1,177,269,270,-1,245,194,193,-1,194,245,248,-1,191,245,190,-1,245,192,247,-1,192,245,191,-1,247,187,236,-1,192,187,247,-1,189,235,188,-1,235,187,188,-1,186,235,184,-1,235,189,184,-1,181,235,185,-1,235,186,185,-1,182,235,183,-1,235,181,183,-1,235,182,178,-1,235,179,177,-1,180,179,235,-1,271,272,270,-1,235,177,270,-1,273,270,274,-1,270,269,274,-1,275,270,276,-1,270,273,276,-1,270,277,271,-1,270,275,277,-1,231,270,278,-1,272,278,270,-1,279,231,280,-1,231,278,280,-1,281,231,282,-1,231,279,282,-1,283,231,284,-1,231,281,284,-1,285,231,286,-1,231,283,286,-1,196,231,287,-1,231,285,287,-1,288,289,290,-1,291,292,293,-1,291,294,295,-1,293,296,297,-1,295,292,291,-1,296,298,297,-1,299,293,297,-1,300,299,297,-1,299,291,293,-1,159,158,196,-1,165,162,286,-1,163,287,285,-1,281,160,166,-1,283,284,164,-1,167,280,168,-1,161,282,279,-1,170,171,271,-1,272,169,278,-1,276,172,275,-1,277,275,173,-1,175,276,273,-1,276,175,172,-1,273,274,174,-1,174,175,273,-1,269,176,274,-1,174,274,176,-1,118,269,177,-1,269,118,176,-1,170,277,173,-1,275,172,173,-1,271,171,272,-1,277,170,271,-1,169,168,278,-1,171,169,272,-1,167,279,280,-1,168,280,278,-1,160,282,161,-1,161,279,167,-1,284,281,166,-1,281,282,160,-1,283,164,165,-1,284,166,164,-1,286,162,285,-1,283,165,286,-1,163,159,287,-1,162,163,285,-1,196,287,159,-1,108,241,141,-1,143,141,240,-1,241,240,141,-1,219,142,143,-1,143,240,219,-1,241,108,218,-1,218,111,209,-1,111,218,108,-1,111,110,209,-1,209,110,214,-1,106,238,214,-1,106,214,110,-1,238,125,197,-1,125,238,106,-1,197,124,226,-1,124,197,125,-1,227,100,99,-1,100,227,113,-1,226,124,140,-1,226,140,224,-1,138,224,140,-1,224,138,221,-1,206,130,200,-1,201,200,136,-1,130,136,200,-1,131,202,201,-1,201,136,131,-1,130,206,128,-1,128,220,129,-1,220,128,206,-1,220,221,129,-1,129,221,138,-1,202,134,210,-1,134,202,131,-1,132,211,133,-1,135,133,213,-1,211,213,133,-1,210,134,135,-1,135,213,210,-1,211,132,212,-1,212,127,222,-1,127,212,132,-1,127,137,222,-1,222,137,223,-1,139,225,223,-1,139,223,137,-1,225,113,227,-1,113,225,139,-1,215,102,142,-1,215,142,219,-1,216,101,217,-1,239,217,103,-1,101,103,217,-1,102,215,239,-1,239,103,102,-1,101,216,107,-1,107,208,109,-1,208,107,216,-1,208,207,109,-1,109,207,104,-1,104,199,105,-1,199,104,207,-1,301,302,303,-1,301,303,304,-1,199,198,126,-1,199,126,105,-1,232,304,303,-1,232,303,229,-1,302,229,303,-1,117,121,237,-1,117,229,302,-1,117,237,229,-1,198,237,121,-1,121,126,198,-1,114,117,302,-1,114,302,301,-1,232,301,304,-1,301,232,114,-1,119,114,232,-1,119,232,235,-1,119,235,305,-1,119,305,306,-1,307,306,305,-1,307,305,308,-1,307,308,270,-1,307,270,120,-1,112,270,231,-1,112,120,270,-1,231,2,7,-1,7,112,231,-1,308,305,235,-1,308,235,270,-1,120,119,306,-1,120,306,307,-1,260,264,309,-1,309,310,260,-1,259,260,310,-1,310,311,259,-1,265,259,311,-1,311,312,265,-1,266,265,312,-1,312,313,266,-1,267,266,313,-1,313,314,267,-1,268,267,314,-1,314,315,268,-1,263,268,315,-1,315,316,263,-1,264,263,316,-1,316,309,264,-1,311,310,317,-1,314,316,315,-1,314,318,316,-1,312,311,313,-1,317,318,313,-1,317,313,311,-1,310,309,319,-1,318,314,313,-1,310,319,317,-1,319,309,318,-1,316,318,309,-1,320,321,322,-1,320,323,324,-1,324,325,320,-1,326,327,328,-1,328,329,326,-1,328,324,330,-1,330,329,328,-1,328,331,324,-1,324,331,325,-1,321,320,332,-1,322,323,320,-1,333,334,335,-1,333,336,334,-1,337,338,339,-1,340,336,333,-1,339,336,340,-1,337,339,341,-1,342,343,344,-1,345,346,347,-1,344,343,348,-1,349,348,350,-1,351,352,335,-1,341,339,340,-1,353,341,354,-1,341,340,354,-1,344,353,342,-1,354,342,353,-1,343,350,348,-1,349,347,346,-1,350,347,349,-1,355,345,356,-1,345,355,346,-1,345,352,356,-1,356,352,351,-1,351,335,334,-1,288,290,317,-1,317,319,288,-1,289,288,319,-1,319,318,289,-1,290,289,318,-1,318,317,290,-1,257,252,332,-1,332,320,257,-1,254,257,320,-1,320,325,254,-1,203,254,325,-1,325,331,203,-1,204,203,331,-1,331,328,204,-1,205,204,328,-1,328,327,205,-1,258,205,327,-1,327,326,258,-1,230,258,326,-1,326,329,230,-1,228,230,329,-1,329,330,228,-1,262,228,330,-1,330,324,262,-1,261,262,324,-1,324,323,261,-1,253,261,323,-1,323,322,253,-1,249,253,322,-1,322,321,249,-1,252,249,321,-1,321,332,252,-1,234,233,349,-1,349,346,234,-1,242,234,346,-1,346,355,242,-1,236,242,355,-1,355,356,236,-1,247,236,356,-1,356,351,247,-1,246,247,351,-1,351,334,246,-1,250,246,334,-1,334,336,250,-1,251,250,336,-1,336,339,251,-1,245,251,339,-1,339,338,245,-1,248,245,338,-1,338,337,248,-1,243,248,337,-1,337,341,243,-1,244,243,341,-1,341,353,244,-1,255,244,353,-1,353,344,255,-1,256,255,344,-1,344,348,256,-1,233,256,348,-1,348,349,233,-1,291,299,340,-1,340,333,291,-1,294,291,333,-1,333,335,294,-1,295,294,335,-1,335,352,295,-1,292,295,352,-1,352,345,292,-1,293,292,345,-1,345,347,293,-1,296,293,347,-1,347,350,296,-1,298,296,350,-1,350,343,298,-1,297,298,343,-1,343,342,297,-1,300,297,342,-1,342,354,300,-1,299,300,354,-1,354,340,299,-1,77,357,358,-1,77,358,74,-1,74,358,359,-1,74,359,50,-1,50,359,360,-1,50,360,51,-1,51,360,361,-1,51,361,52,-1,52,361,362,-1,52,362,53,-1,53,362,357,-1,53,357,77,-1,360,362,361,-1,360,358,357,-1,360,359,358,-1,362,360,357,-1,363,364,365,-1,366,367,368,-1,369,370,371,-1,372,373,374,-1,374,375,376,-1,377,370,378,-1,379,380,371,-1,381,382,379,-1,383,382,381,-1,381,384,383,-1,365,385,386,-1,384,387,388,-1,389,390,363,-1,391,390,389,-1,392,391,389,-1,393,394,395,-1,396,397,395,-1,398,399,396,-1,368,367,398,-1,376,400,401,-1,367,399,398,-1,399,397,396,-1,397,393,395,-1,394,392,395,-1,394,391,392,-1,363,390,364,-1,364,385,365,-1,385,387,386,-1,386,387,384,-1,388,383,384,-1,379,382,380,-1,371,380,369,-1,369,378,370,-1,377,372,370,-1,377,373,372,-1,373,375,374,-1,375,400,376,-1,400,402,401,-1,403,404,405,-1,404,406,405,-1,403,407,408,-1,406,409,410,-1,411,412,413,-1,413,405,411,-1,411,405,406,-1,409,406,404,-1,404,403,408,-1,407,414,408,-1,415,416,417,-1,418,416,415,-1,418,419,416,-1,418,420,419,-1,421,422,423,-1,424,422,425,-1,426,424,425,-1,426,427,424,-1,427,426,428,-1,419,429,423,-1,430,428,431,-1,432,431,433,-1,434,435,436,-1,430,427,428,-1,437,436,438,-1,425,422,421,-1,421,423,429,-1,429,419,420,-1,437,439,417,-1,439,415,417,-1,439,437,438,-1,438,436,435,-1,440,434,432,-1,435,434,440,-1,431,432,430,-1,440,432,433,-1,441,442,443,-1,444,445,446,-1,444,447,445,-1,448,441,449,-1,443,447,449,-1,443,449,441,-1,442,450,451,-1,447,444,449,-1,442,451,443,-1,451,450,447,-1,445,447,450,-1,10,401,402,-1,10,402,43,-1,43,402,400,-1,43,400,80,-1,80,400,375,-1,80,375,79,-1,79,375,373,-1,79,373,78,-1,78,373,377,-1,78,377,75,-1,75,377,378,-1,75,378,76,-1,76,378,369,-1,76,369,81,-1,81,369,380,-1,81,380,54,-1,54,380,382,-1,54,382,82,-1,82,382,383,-1,82,383,56,-1,56,383,388,-1,56,388,61,-1,61,388,387,-1,61,387,49,-1,49,387,385,-1,49,385,63,-1,63,385,364,-1,63,364,83,-1,83,364,390,-1,83,390,68,-1,68,390,391,-1,68,391,67,-1,67,391,394,-1,67,394,69,-1,69,394,393,-1,69,393,37,-1,37,393,397,-1,37,397,73,-1,73,397,399,-1,73,399,72,-1,72,399,367,-1,72,367,71,-1,71,367,366,-1,71,366,57,-1,57,366,368,-1,57,368,59,-1,59,368,398,-1,59,398,60,-1,60,398,396,-1,60,396,64,-1,64,396,395,-1,64,395,66,-1,66,395,392,-1,66,392,65,-1,65,392,389,-1,65,389,62,-1,62,389,363,-1,62,363,58,-1,58,363,365,-1,58,365,70,-1,70,365,386,-1,70,386,44,-1,44,386,384,-1,44,384,42,-1,42,384,381,-1,42,381,8,-1,8,381,379,-1,8,379,9,-1,9,379,371,-1,9,371,45,-1,45,371,370,-1,45,370,46,-1,46,370,372,-1,46,372,47,-1,47,372,374,-1,47,374,48,-1,48,374,376,-1,48,376,55,-1,55,376,401,-1,55,401,10,-1,33,408,414,-1,33,414,39,-1,39,414,407,-1,39,407,11,-1,11,407,403,-1,11,403,41,-1,41,403,405,-1,41,405,38,-1,38,405,413,-1,38,413,0,-1,0,413,412,-1,0,412,40,-1,40,412,411,-1,40,411,20,-1,20,411,406,-1,20,406,18,-1,18,406,410,-1,18,410,19,-1,19,410,409,-1,19,409,34,-1,34,409,404,-1,34,404,35,-1,35,404,408,-1,35,408,33,-1,1,431,428,-1,1,428,3,-1,3,428,426,-1,3,426,32,-1,32,426,425,-1,32,425,31,-1,31,425,421,-1,31,421,30,-1,30,421,429,-1,30,429,29,-1,29,429,420,-1,29,420,28,-1,28,420,418,-1,28,418,27,-1,27,418,415,-1,27,415,25,-1,25,415,439,-1,25,439,26,-1,26,439,438,-1,26,438,24,-1,24,438,435,-1,24,435,23,-1,23,435,440,-1,23,440,22,-1,22,440,433,-1,22,433,21,-1,21,433,431,-1,21,431,1,-1,89,427,430,-1,89,430,87,-1,87,430,432,-1,87,432,95,-1,95,432,434,-1,95,434,88,-1,88,434,436,-1,88,436,94,-1,94,436,437,-1,94,437,93,-1,93,437,417,-1,93,417,92,-1,92,417,416,-1,92,416,91,-1,91,416,419,-1,91,419,85,-1,85,419,423,-1,85,423,86,-1,86,423,422,-1,86,422,84,-1,84,422,424,-1,84,424,90,-1,90,424,427,-1,90,427,89,-1,4,450,442,-1,4,442,5,-1,5,442,441,-1,5,441,6,-1,6,441,448,-1,6,448,16,-1,16,448,449,-1,16,449,17,-1,17,449,444,-1,17,444,15,-1,15,444,446,-1,15,446,13,-1,13,446,445,-1,13,445,14,-1,14,445,450,-1,14,450,4,-1,97,443,451,-1,97,451,98,-1,98,451,447,-1,98,447,96,-1,96,447,443,-1,96,443,97,-1,
        ]
    }
}