#VRML V2.0 utf8
# 3D model generated by easyeda2kicad.py (https://github.com/uPesy/easyeda2kicad.py)

Shape{
    appearance Appearance {
        material  Material 	{
            diffuseColor 0.20784313725490197 0.20784313725490197 0.20784313725490197
            specularColor 0.01568627450980392 0.01568627450980392 0.01568627450980392
            ambientIntensity 0.2
            transparency 0
            shininess 0.5
        }
    }
    geometry IndexedFaceSet {
        ccw TRUE
        solid FALSE
        coord DEF co Coordinate {
            point [
                -0.9265 -0.0712 0.2756, -0.9132 -0.0655 0.2756, -0.8989 -0.0636 0.2756, -1.2463 -0.1702 0.2756, -1.3102 -0.2953 0.2756, -1.3102 0.0377 0.2756, 3.626 -0.126 0.2756, 3.626 0.0377 0.2756, 3.813 0.0377 0.2756, -0.0394 -0.2953 0.2756, -0.374 -0.126 0.2756, -0.374 0.0377 0.2756, 2.374 0.126 0.2756, 2.0394 0.2953 0.2756, 2.626 0.126 0.2756, 2.9606 0.2953 0.2756, 2.626 0.0377 0.2756, 2.0394 -0.2953 0.2756, 2.0 -0.2953 0.2756, 2.0 0.0377 0.2756, 2.374 0.0377 0.2756, 2.374 -0.126 0.2756, 2.9606 -0.2953 0.2756, 2.626 -0.126 0.2756, 3.0 0.0377 0.2756, 3.0 -0.2953 0.2756, 0.9606 0.2953 0.2756, 1.0 0.2953 0.2756, 1.0 0.0377 0.2756, 0.374 0.126 0.2756, 0.0394 0.2953 0.2756, 0.626 0.126 0.2756, 0.626 0.0377 0.2756, 0.0394 -0.2953 0.2756, 0.0 -0.2953 0.2756, 0.0 0.0377 0.2756, 0.374 0.0377 0.2756, 0.374 -0.126 0.2756, 0.9606 -0.2953 0.2756, 0.626 -0.126 0.2756, -1.626 0.126 0.2756, -1.9606 0.2953 0.2756, -1.374 0.126 0.2756, -1.3102 0.2953 0.2756, -1.9606 -0.2953 0.2756, -2.0 -0.2953 0.2756, -2.0 0.0377 0.2756, -1.374 0.0377 0.2756, -1.374 -0.126 0.2756, -1.626 -0.126 0.2756, -1.626 0.0377 0.2756, -3.9606 -0.2953 0.2756, -4.0 -0.2953 0.2756, -4.0 0.0377 0.2756, -3.0394 0.2953 0.2756, -3.0 0.2953 0.2756, -3.0 0.0377 0.2756, -3.374 0.0377 0.2756, -3.374 0.126 0.2756, -3.9606 0.2953 0.2756, -3.626 0.126 0.2756, -3.626 0.0377 0.2756, -4.0 0.2953 0.2756, -3.626 -0.126 0.2756, -3.0394 -0.2953 0.2756, -3.374 -0.126 0.2756, -2.0 0.2953 0.2756, -2.0394 0.2953 0.2756, -3.0 -0.2953 0.2756, -2.9606 -0.2953 0.2756, -2.9606 0.2953 0.2756, -2.626 0.0377 0.2756, -2.626 -0.126 0.2756, -2.0394 -0.2953 0.2756, -2.374 -0.126 0.2756, -2.374 0.0377 0.2756, -2.374 0.126 0.2756, -2.626 0.126 0.2756, -0.626 -0.126 0.2756, -0.8286 -0.1573 0.2756, -0.8286 -0.1702 0.2756, -0.8336 -0.2953 0.2756, -0.7681 -0.1702 0.2756, -0.626 0.0377 0.2756, -0.7681 -0.0521 0.2756, -0.8336 0.0377 0.2756, -0.7839 -0.0521 0.2756, 0.0 0.2953 0.2756, -0.0394 0.2953 0.2756, -0.374 0.126 0.2756, -0.8336 0.2953 0.2756, -0.626 0.126 0.2756, 1.0 -0.2953 0.2756, 1.0394 -0.2953 0.2756, 2.0 0.2953 0.2756, 1.9606 0.2953 0.2756, 1.9606 -0.2953 0.2756, 1.626 0.0377 0.2756, 1.626 0.126 0.2756, 1.0394 0.2953 0.2756, 1.374 0.126 0.2756, 1.374 0.0377 0.2756, 1.374 -0.126 0.2756, 1.626 -0.126 0.2756, 3.374 0.0377 0.2756, 3.374 -0.126 0.2756, 3.0394 -0.2953 0.2756, 3.813 -0.2953 0.2756, 3.0394 0.2953 0.2756, 3.813 0.2953 0.2756, 3.626 0.126 0.2756, 3.0 0.2953 0.2756, 3.374 0.126 0.2756, -1.0394 0.2953 0.2756, -1.1354 0.0377 0.2756, -1.1354 0.2953 0.2756, -1.0245 0.2953 0.2756, -1.0245 0.0377 0.2756, -0.9606 0.2953 0.2756, -0.9381 0.2953 0.2756, -0.9381 0.0377 0.2756, 4.0 0.2953 0.2756, 4.0 0.0377 0.2756, 3.9606 0.2953 0.2756, -1.2171 -0.1371 0.2756, -1.1683 -0.1371 0.2756, -1.229 -0.1702 0.2756, -1.157 -0.1702 0.2756, -1.1354 -0.2953 0.2756, -1.1397 -0.1702 0.2756, -1.1844 -0.0521 0.2756, -1.2002 -0.0521 0.2756, -1.1087 -0.1577 0.2756, -1.1184 -0.1484 0.2756, -1.1252 -0.1378 0.2756, -1.0864 -0.0539 0.2756, -1.1002 -0.0588 0.2756, -1.1131 -0.0674 0.2756, -1.0693 -0.0521 0.2756, -1.1132 -0.0675 0.2756, -1.1216 -0.0768 0.2756, -1.127 -0.0869 0.2756, -1.0963 -0.1649 0.2756, -1.0827 -0.1689 0.2756, -1.0394 -0.2953 0.2756, -1.0681 -0.1702 0.2756, -1.0245 -0.2953 0.2756, -1.036 -0.1702 0.2756, -1.036 -0.0521 0.2756, -1.1302 -0.0986 0.2756, -1.1311 -0.1097 0.2756, -1.1294 -0.1255 0.2756, -0.9496 -0.1702 0.2756, -0.9496 -0.0521 0.2756, -1.0101 -0.0521 0.2756, -0.9381 -0.2953 0.2756, -0.9606 -0.2953 0.2756, -1.013 -0.1702 0.2756, -1.013 -0.1573 0.2756, -1.0101 -0.0651 0.2756, -0.9654 -0.1169 0.2756, -0.9654 -0.1573 0.2756, -1.0072 -0.1169 0.2756, -1.0072 -0.104 0.2756, -0.9654 -0.104 0.2756, -0.9654 -0.0651 0.2756, -0.9265 -0.1511 0.2756, -0.9265 -0.1641 0.2756, -0.914 -0.1693 0.2756, -0.8873 -0.0649 0.2756, -0.9244 -0.1523 0.2756, -0.9265 -0.0553 0.2756, -0.9129 -0.0516 0.2756, -0.868 -0.1662 0.2756, -0.8585 -0.1601 0.2756, -0.8518 -0.0722 0.2756, -0.8625 -0.0619 0.2756, -0.8784 -0.0681 0.2756, -0.8702 -0.0736 0.2756, -0.8631 -0.0815 0.2756, -0.8545 -0.1124 0.2756, -0.8557 -0.1252 0.2756, -0.8589 -0.1354 0.2756, -0.8852 -0.1575 0.2756, -0.8962 -0.1587 0.2756, -0.8766 -0.1543 0.2756, -0.8694 -0.1494 0.2756, -0.8638 -0.1436 0.2756, -0.9119 -0.157 0.2756, -0.8387 -0.1134 0.2756, -0.8404 -0.0966 0.2756, -0.8449 -0.0832 0.2756, -0.8582 -0.0906 0.2756, -0.8551 -0.1032 0.2756, -0.8497 -0.1508 0.2756, -0.8434 -0.1396 0.2756, -0.8398 -0.1271 0.2756, -0.8973 -0.1716 0.2756, -0.894 -0.1717 0.2756, -0.8795 -0.1701 0.2756, -0.7839 -0.1573 0.2756, -0.8737 -0.0555 0.2756, -0.8869 -0.0516 0.2756, -0.8987 -0.0507 0.2756, 3.9606 -0.2953 0.2756, 4.0 -0.2953 0.2756, 3.626 0.4921 0.0, 3.7955 0.4921 0.0, 3.626 0.2953 0.0, 3.9606 0.2953 0.0, 1.626 0.4921 0.0, 1.7955 0.4921 0.0, 1.626 0.2953 0.0, 1.9606 0.2953 0.0, -0.374 0.4921 0.0, -0.2045 0.4921 0.0, -0.374 0.2953 0.0, -0.0394 0.2953 0.0, 2.374 -0.4921 0.0, 2.2045 -0.4921 0.0, 2.374 -0.2953 0.0, 2.0394 -0.2953 0.0, 0.374 -0.4921 0.0, 0.2045 -0.4921 0.0, 0.374 -0.2953 0.0, 0.0394 -0.2953 0.0, -1.626 -0.4921 0.0, -1.7955 -0.4921 0.0, -1.626 -0.2953 0.0, -1.9606 -0.2953 0.0, -2.374 0.4921 0.0, -2.2045 0.4921 0.0, -2.374 0.2953 0.0, -2.0394 0.2953 0.0, -3.626 -0.4921 0.0, -3.7955 -0.4921 0.0, -3.626 -0.2953 0.0, -3.9606 -0.2953 0.0, -3.9606 0.2953 0.0, -3.7955 0.4921 0.0, -3.0394 0.2953 0.0, -3.2045 0.4921 0.0, -3.0394 -0.2953 0.0, -3.2045 -0.4921 0.0, -3.374 -0.2953 0.0, -3.374 -0.4921 0.0, -2.9606 0.2953 0.0, -2.7955 0.4921 0.0, -2.626 0.2953 0.0, -2.626 0.4921 0.0, -2.0394 -0.2953 0.0, -2.2045 -0.4921 0.0, -2.9606 -0.2953 0.0, -2.7955 -0.4921 0.0, -1.9606 0.2953 0.0, -1.7955 0.4921 0.0, -1.0394 0.2953 0.0, -1.2045 0.4921 0.0, -1.0394 -0.2953 0.0, -1.2045 -0.4921 0.0, -1.374 -0.2953 0.0, -1.374 -0.4921 0.0, -0.9606 0.2953 0.0, -0.7955 0.4921 0.0, -0.626 0.2953 0.0, -0.626 0.4921 0.0, -0.0394 -0.2953 0.0, -0.2045 -0.4921 0.0, -0.9606 -0.2953 0.0, -0.7955 -0.4921 0.0, 0.0394 0.2953 0.0, 0.2045 0.4921 0.0, 0.9606 0.2953 0.0, 0.7955 0.4921 0.0, 0.9606 -0.2953 0.0, 0.7955 -0.4921 0.0, 0.626 -0.2953 0.0, 0.626 -0.4921 0.0, 1.0394 0.2953 0.0, 1.2045 0.4921 0.0, 1.374 0.2953 0.0, 1.374 0.4921 0.0, 1.9606 -0.2953 0.0, 1.7955 -0.4921 0.0, 1.0394 -0.2953 0.0, 1.2045 -0.4921 0.0, 2.0394 0.2953 0.0, 2.2045 0.4921 0.0, 2.9606 0.2953 0.0, 2.7955 0.4921 0.0, 2.9606 -0.2953 0.0, 2.7955 -0.4921 0.0, 2.626 -0.2953 0.0, 2.626 -0.4921 0.0, 3.0394 0.2953 0.0, 3.2045 0.4921 0.0, 3.374 0.2953 0.0, 3.374 0.4921 0.0, 3.9606 -0.2953 0.0, 3.7955 -0.4921 0.0, 3.0394 -0.2953 0.0, 3.2045 -0.4921 0.0, -3.0394 0.2953 0.9843, -3.0394 -0.2953 0.9843, -3.0394 0.2953 0.9803, -3.0394 -0.2953 0.9803, -3.9606 -0.2953 0.9843, -3.9606 0.2953 0.9843, -3.9606 -0.2953 0.9803, -3.9606 0.2953 0.9803, -3.2045 0.4921 0.9843, -3.7955 0.4921 0.9843, -3.2045 -0.4921 0.9843, -3.7955 -0.4921 0.9843, -3.374 0.126 0.9843, -3.374 -0.126 0.9843, -3.626 0.126 0.9843, -3.626 -0.126 0.9843, -4.0 -0.2953 0.9803, -4.0 -0.2106 0.2756, -4.0 0.2953 0.9803, -2.9606 0.2953 0.9803, -2.9606 -0.2953 0.9803, -2.0394 0.2953 0.9843, -2.0394 -0.2953 0.9843, -2.0394 0.2953 0.9803, -2.0394 -0.2953 0.9803, -2.9606 -0.2953 0.9843, -2.9606 0.2953 0.9843, -2.7955 0.4921 0.9843, -2.2045 0.4921 0.9843, -2.2045 -0.4921 0.9843, -2.7955 -0.4921 0.9843, -2.626 0.126 0.9843, -2.626 -0.126 0.9843, -2.374 -0.126 0.9843, -2.374 0.126 0.9843, -1.9606 0.2953 0.9803, -1.9606 -0.2953 0.9803, -1.0394 0.2953 0.9843, -1.0394 -0.2953 0.9843, -1.0394 0.2953 0.9803, -1.0394 -0.2953 0.9803, -1.9606 -0.2953 0.9843, -1.9606 0.2953 0.9843, -1.2045 0.4921 0.9843, -1.7955 0.4921 0.9843, -1.2045 -0.4921 0.9843, -1.7955 -0.4921 0.9843, -1.374 0.126 0.9843, -1.374 -0.126 0.9843, -1.626 0.126 0.9843, -1.626 -0.126 0.9843, -1.0 0.2953 0.2756, -0.9606 0.2953 0.9803, -0.9606 -0.2953 0.9803, -1.0 -0.2953 0.2756, -0.0394 0.2953 0.9843, -0.0394 -0.2953 0.9843, -0.0394 0.2953 0.9803, -0.0394 -0.2953 0.9803, -0.9606 -0.2953 0.9843, -0.9606 0.2953 0.9843, -0.7955 0.4921 0.9843, -0.2045 0.4921 0.9843, -0.2045 -0.4921 0.9843, -0.7955 -0.4921 0.9843, -0.374 -0.126 0.9843, -0.374 0.126 0.9843, -0.626 0.126 0.9843, -0.626 -0.126 0.9843, 0.0394 0.2953 0.9803, 0.0394 -0.2953 0.9803, 0.9606 0.2953 0.9843, 0.9606 -0.2953 0.9843, 0.9606 0.2953 0.9803, 0.9606 -0.2953 0.9803, 0.0394 -0.2953 0.9843, 0.0394 0.2953 0.9843, 0.7955 0.4921 0.9843, 0.2045 0.4921 0.9843, 0.7955 -0.4921 0.9843, 0.2045 -0.4921 0.9843, 0.626 0.126 0.9843, 0.626 -0.126 0.9843, 0.374 0.126 0.9843, 0.374 -0.126 0.9843, 1.0394 0.2953 0.9803, 1.0394 -0.2953 0.9803, 1.9606 0.2953 0.9843, 1.9606 -0.2953 0.9843, 1.9606 0.2953 0.9803, 1.9606 -0.2953 0.9803, 1.0394 -0.2953 0.9843, 1.0394 0.2953 0.9843, 1.2045 0.4921 0.9843, 1.7955 0.4921 0.9843, 1.7955 -0.4921 0.9843, 1.2045 -0.4921 0.9843, 1.626 -0.126 0.9843, 1.626 0.126 0.9843, 1.374 0.126 0.9843, 1.374 -0.126 0.9843, 2.0394 0.2953 0.9803, 2.0394 -0.2953 0.9803, 2.9606 0.2953 0.9843, 2.9606 -0.2953 0.9843, 2.9606 0.2953 0.9803, 2.9606 -0.2953 0.9803, 2.0394 -0.2953 0.9843, 2.0394 0.2953 0.9843, 2.7955 0.4921 0.9843, 2.2045 0.4921 0.9843, 2.7955 -0.4921 0.9843, 2.2045 -0.4921 0.9843, 2.626 0.126 0.9843, 2.626 -0.126 0.9843, 2.374 0.126 0.9843, 2.374 -0.126 0.9843, 3.0394 0.2953 0.9803, 3.0394 -0.2953 0.9803, 3.9606 0.2953 0.9843, 3.9606 -0.2953 0.9843, 3.9606 0.2953 0.9803, 3.9606 -0.2953 0.9803, 3.0394 -0.2953 0.9843, 3.0394 0.2953 0.9843, 3.2045 0.4921 0.9843, 3.7955 0.4921 0.9843, 3.7955 -0.4921 0.9843, 3.2045 -0.4921 0.9843, 3.626 -0.126 0.9843, 3.626 0.126 0.9843, 3.374 0.126 0.9843, 3.374 -0.126 0.9843, 4.0 0.2953 0.9803, 4.0 -0.2106 0.2756, 4.0 -0.2953 0.9803, 4.0 -0.2953 0.9803
            ]
        }
        coordIndex [
            0,1,2,-1,3,4,5,-1,6,7,8,-1,9,10,11,-1,12,13,14,-1,14,13,15,-1,14,15,16,-1,17,18,19,-1,19,20,17,-1,17,20,21,-1,17,21,22,-1,22,21,23,-1,23,16,22,-1,22,16,24,-1,22,24,25,-1,26,27,28,-1,29,30,31,-1,31,30,26,-1,31,26,32,-1,32,26,28,-1,33,34,35,-1,35,36,33,-1,33,36,37,-1,33,37,38,-1,38,37,39,-1,40,41,42,-1,42,41,43,-1,44,45,46,-1,47,5,48,-1,48,5,4,-1,48,4,49,-1,49,4,44,-1,49,44,50,-1,50,44,46,-1,51,52,53,-1,54,55,56,-1,56,57,54,-1,54,57,58,-1,54,58,59,-1,59,58,60,-1,59,60,61,-1,62,59,53,-1,53,59,61,-1,53,61,51,-1,51,61,63,-1,51,63,64,-1,64,63,65,-1,40,50,41,-1,41,50,46,-1,41,46,66,-1,66,46,67,-1,65,57,64,-1,64,57,56,-1,64,56,68,-1,68,56,69,-1,55,70,56,-1,56,70,71,-1,56,71,69,-1,69,71,72,-1,69,72,73,-1,73,72,74,-1,73,74,75,-1,45,73,46,-1,46,73,75,-1,46,75,67,-1,67,75,76,-1,67,76,70,-1,70,76,77,-1,70,77,71,-1,10,9,78,-1,79,80,81,-1,81,80,82,-1,9,81,78,-1,78,81,82,-1,78,82,83,-1,83,82,84,-1,83,84,85,-1,85,84,86,-1,29,36,30,-1,30,36,35,-1,30,35,87,-1,87,35,88,-1,34,9,35,-1,35,9,11,-1,35,11,88,-1,88,11,89,-1,88,89,90,-1,90,89,91,-1,39,32,38,-1,38,32,28,-1,38,28,92,-1,92,28,93,-1,12,20,13,-1,13,20,19,-1,13,19,94,-1,94,19,95,-1,18,96,19,-1,19,96,97,-1,19,97,95,-1,95,97,98,-1,95,98,99,-1,99,98,100,-1,99,100,101,-1,27,99,28,-1,28,99,101,-1,28,101,93,-1,93,101,102,-1,93,102,96,-1,96,102,103,-1,96,103,97,-1,104,105,106,-1,106,105,107,-1,108,109,110,-1,16,15,24,-1,24,15,111,-1,24,111,108,-1,110,112,108,-1,108,112,104,-1,108,104,24,-1,24,104,106,-1,24,106,25,-1,113,114,115,-1,115,114,5,-1,115,5,43,-1,43,5,47,-1,43,47,42,-1,113,116,117,-1,117,116,118,-1,118,119,120,-1,120,119,90,-1,120,90,85,-1,85,90,91,-1,85,91,83,-1,121,122,123,-1,123,122,8,-1,123,8,109,-1,109,8,7,-1,109,7,110,-1,124,125,126,-1,126,125,127,-1,3,126,4,-1,4,126,127,-1,4,127,128,-1,128,127,129,-1,128,129,114,-1,114,129,130,-1,114,130,5,-1,5,130,131,-1,5,131,3,-1,132,128,133,-1,133,128,134,-1,135,136,114,-1,114,136,137,-1,113,117,114,-1,114,117,138,-1,114,138,135,-1,137,139,114,-1,114,139,140,-1,114,140,141,-1,132,142,128,-1,128,142,143,-1,128,143,144,-1,144,143,145,-1,144,145,146,-1,146,145,147,-1,146,147,117,-1,117,147,148,-1,117,148,138,-1,141,149,114,-1,114,149,150,-1,114,150,128,-1,128,150,151,-1,128,151,134,-1,152,153,120,-1,118,120,117,-1,117,120,153,-1,117,153,154,-1,120,155,152,-1,152,155,156,-1,152,156,157,-1,157,156,146,-1,157,146,158,-1,158,146,117,-1,158,117,159,-1,159,117,154,-1,160,161,162,-1,162,161,158,-1,162,158,163,-1,163,158,159,-1,163,159,164,-1,164,159,165,-1,120,166,155,-1,155,166,167,-1,155,167,168,-1,169,170,2,-1,2,170,166,-1,2,166,0,-1,0,166,120,-1,0,120,171,-1,171,120,172,-1,173,174,81,-1,85,175,176,-1,169,177,170,-1,170,177,178,-1,170,178,179,-1,180,181,170,-1,170,181,182,-1,183,184,185,-1,185,184,186,-1,182,187,170,-1,170,187,186,-1,170,186,188,-1,188,186,184,-1,189,190,85,-1,85,190,191,-1,85,191,175,-1,179,192,170,-1,170,192,193,-1,170,193,180,-1,174,194,81,-1,81,194,195,-1,81,195,196,-1,168,197,155,-1,155,197,198,-1,155,198,81,-1,81,198,199,-1,81,199,173,-1,196,189,81,-1,81,189,85,-1,81,85,79,-1,79,85,86,-1,79,86,200,-1,176,201,85,-1,85,201,202,-1,85,202,120,-1,120,202,203,-1,120,203,172,-1,105,6,107,-1,107,6,8,-1,107,8,204,-1,204,8,122,-1,204,122,205,-1,206,207,208,-1,208,207,209,-1,210,211,212,-1,212,211,213,-1,214,215,216,-1,216,215,217,-1,218,219,220,-1,220,219,221,-1,222,223,224,-1,224,223,225,-1,226,227,228,-1,228,227,229,-1,230,231,232,-1,232,231,233,-1,234,235,236,-1,236,235,237,-1,238,239,240,-1,240,239,241,-1,242,243,244,-1,244,243,245,-1,246,247,248,-1,248,247,249,-1,250,251,252,-1,252,251,253,-1,254,255,256,-1,256,255,257,-1,258,259,260,-1,260,259,261,-1,262,263,264,-1,264,263,265,-1,266,267,268,-1,268,267,269,-1,270,271,272,-1,272,271,273,-1,274,275,276,-1,276,275,277,-1,278,279,280,-1,280,279,281,-1,282,283,284,-1,284,283,285,-1,286,287,288,-1,288,287,289,-1,290,291,292,-1,292,291,293,-1,294,295,296,-1,296,295,297,-1,298,299,300,-1,300,299,301,-1,302,303,304,-1,304,303,305,-1,306,307,308,-1,308,307,309,-1,241,239,310,-1,310,239,311,-1,243,312,245,-1,245,312,313,-1,245,313,234,-1,234,313,235,-1,302,314,303,-1,303,314,315,-1,302,310,314,-1,314,310,311,-1,314,311,316,-1,316,311,307,-1,316,307,317,-1,317,307,306,-1,317,306,315,-1,315,306,313,-1,315,313,303,-1,303,313,312,-1,305,303,312,-1,305,312,64,-1,64,312,243,-1,64,243,242,-1,310,302,304,-1,310,304,241,-1,241,304,54,-1,241,54,240,-1,313,306,308,-1,313,308,235,-1,235,308,51,-1,235,51,237,-1,239,238,59,-1,239,59,311,-1,311,59,309,-1,311,309,307,-1,52,51,318,-1,318,51,308,-1,52,318,319,-1,319,318,320,-1,319,320,62,-1,59,62,309,-1,309,62,320,-1,320,318,309,-1,309,318,308,-1,54,304,55,-1,55,304,321,-1,55,321,70,-1,69,322,68,-1,68,322,305,-1,68,305,64,-1,305,322,304,-1,304,322,321,-1,323,324,325,-1,325,324,326,-1,327,328,322,-1,322,328,321,-1,247,329,249,-1,249,329,330,-1,249,330,230,-1,230,330,231,-1,331,332,251,-1,251,332,253,-1,332,331,324,-1,333,328,334,-1,334,328,327,-1,334,327,335,-1,327,332,335,-1,335,332,324,-1,335,324,336,-1,336,324,323,-1,336,323,333,-1,333,323,330,-1,333,330,328,-1,328,330,329,-1,326,324,331,-1,326,331,73,-1,73,331,251,-1,73,251,250,-1,330,323,325,-1,330,325,231,-1,231,325,67,-1,231,67,233,-1,69,252,253,-1,69,253,322,-1,322,253,332,-1,322,332,327,-1,247,246,70,-1,247,70,329,-1,329,70,321,-1,329,321,328,-1,67,325,66,-1,66,325,337,-1,66,337,41,-1,44,338,45,-1,45,338,326,-1,45,326,73,-1,326,338,325,-1,325,338,337,-1,339,340,341,-1,341,340,342,-1,343,344,338,-1,338,344,337,-1,257,255,345,-1,345,255,346,-1,259,347,261,-1,261,347,348,-1,261,348,226,-1,226,348,227,-1,339,349,340,-1,340,349,350,-1,339,345,349,-1,349,345,346,-1,349,346,351,-1,351,346,344,-1,351,344,352,-1,352,344,343,-1,352,343,350,-1,350,343,348,-1,350,348,340,-1,340,348,347,-1,342,340,347,-1,342,347,144,-1,144,347,259,-1,144,259,258,-1,345,339,341,-1,345,341,257,-1,257,341,113,-1,257,113,256,-1,44,229,227,-1,44,227,338,-1,338,227,348,-1,338,348,343,-1,255,254,41,-1,255,41,346,-1,346,41,337,-1,346,337,344,-1,113,341,353,-1,353,341,354,-1,353,354,118,-1,156,355,356,-1,356,355,342,-1,356,342,144,-1,342,355,341,-1,341,355,354,-1,357,358,359,-1,359,358,360,-1,361,362,355,-1,355,362,354,-1,263,363,265,-1,265,363,364,-1,265,364,214,-1,214,364,215,-1,365,366,267,-1,267,366,269,-1,367,358,368,-1,368,358,357,-1,357,364,368,-1,368,364,363,-1,368,363,369,-1,369,363,362,-1,369,362,370,-1,370,362,361,-1,370,361,367,-1,367,361,366,-1,367,366,358,-1,358,366,365,-1,360,358,365,-1,360,365,9,-1,9,365,267,-1,9,267,266,-1,364,357,359,-1,364,359,215,-1,215,359,88,-1,215,88,217,-1,156,268,269,-1,156,269,355,-1,355,269,366,-1,355,366,361,-1,263,262,118,-1,263,118,363,-1,363,118,354,-1,363,354,362,-1,88,359,87,-1,87,359,371,-1,87,371,30,-1,33,372,34,-1,34,372,360,-1,34,360,9,-1,360,372,359,-1,359,372,371,-1,373,374,375,-1,375,374,376,-1,377,378,372,-1,372,378,371,-1,273,271,379,-1,379,271,380,-1,275,381,277,-1,277,381,382,-1,277,382,222,-1,222,382,223,-1,373,383,374,-1,374,383,384,-1,373,379,383,-1,383,379,380,-1,383,380,385,-1,385,380,378,-1,385,378,386,-1,386,378,377,-1,386,377,384,-1,384,377,382,-1,384,382,374,-1,374,382,381,-1,376,374,381,-1,376,381,38,-1,38,381,275,-1,38,275,274,-1,379,373,375,-1,379,375,273,-1,273,375,26,-1,273,26,272,-1,33,225,223,-1,33,223,372,-1,372,223,382,-1,372,382,377,-1,271,270,30,-1,271,30,380,-1,380,30,371,-1,380,371,378,-1,26,375,27,-1,27,375,387,-1,27,387,99,-1,93,388,92,-1,92,388,376,-1,92,376,38,-1,376,388,375,-1,375,388,387,-1,389,390,391,-1,391,390,392,-1,393,394,388,-1,388,394,387,-1,279,395,281,-1,281,395,396,-1,281,396,210,-1,210,396,211,-1,397,398,283,-1,283,398,285,-1,399,390,400,-1,400,390,389,-1,389,396,400,-1,400,396,395,-1,400,395,401,-1,401,395,394,-1,401,394,402,-1,402,394,393,-1,402,393,399,-1,399,393,398,-1,399,398,390,-1,390,398,397,-1,392,390,397,-1,392,397,96,-1,96,397,283,-1,96,283,282,-1,396,389,391,-1,396,391,211,-1,211,391,95,-1,211,95,213,-1,93,284,285,-1,93,285,388,-1,388,285,398,-1,388,398,393,-1,279,278,99,-1,279,99,395,-1,395,99,387,-1,395,387,394,-1,95,391,94,-1,94,391,403,-1,94,403,13,-1,17,404,18,-1,18,404,392,-1,18,392,96,-1,392,404,391,-1,391,404,403,-1,405,406,407,-1,407,406,408,-1,409,410,404,-1,404,410,403,-1,289,287,411,-1,411,287,412,-1,291,413,293,-1,293,413,414,-1,293,414,218,-1,218,414,219,-1,405,415,406,-1,406,415,416,-1,405,411,415,-1,415,411,412,-1,415,412,417,-1,417,412,410,-1,417,410,418,-1,418,410,409,-1,418,409,416,-1,416,409,414,-1,416,414,406,-1,406,414,413,-1,408,406,413,-1,408,413,22,-1,22,413,291,-1,22,291,290,-1,411,405,407,-1,411,407,289,-1,289,407,15,-1,289,15,288,-1,17,221,219,-1,17,219,404,-1,404,219,414,-1,404,414,409,-1,287,286,13,-1,287,13,412,-1,412,13,403,-1,412,403,410,-1,15,407,111,-1,111,407,419,-1,111,419,108,-1,106,420,25,-1,25,420,408,-1,25,408,22,-1,408,420,407,-1,407,420,419,-1,421,422,423,-1,423,422,424,-1,425,426,420,-1,420,426,419,-1,295,427,297,-1,297,427,428,-1,297,428,206,-1,206,428,207,-1,429,430,299,-1,299,430,301,-1,431,422,432,-1,432,422,421,-1,421,428,432,-1,432,428,427,-1,432,427,433,-1,433,427,426,-1,433,426,434,-1,434,426,425,-1,434,425,431,-1,431,425,430,-1,431,430,422,-1,422,430,429,-1,424,422,429,-1,424,429,204,-1,204,429,299,-1,204,299,298,-1,428,421,423,-1,428,423,207,-1,207,423,123,-1,207,123,209,-1,106,300,301,-1,106,301,420,-1,420,301,430,-1,420,430,425,-1,295,294,108,-1,295,108,427,-1,427,108,419,-1,427,419,426,-1,121,123,435,-1,435,123,423,-1,121,435,436,-1,436,435,437,-1,436,437,205,-1,204,205,424,-1,424,205,437,-1,424,437,423,-1,423,437,435,-1,204,298,107,-1,107,298,300,-1,107,300,106,-1,209,123,208,-1,208,123,109,-1,208,109,296,-1,296,109,108,-1,296,108,294,-1,220,221,17,-1,220,17,292,-1,292,17,22,-1,292,22,290,-1,286,288,13,-1,13,288,15,-1,93,96,284,-1,284,96,282,-1,212,213,95,-1,212,95,280,-1,280,95,99,-1,280,99,278,-1,224,225,33,-1,224,33,276,-1,276,33,38,-1,276,38,274,-1,270,272,30,-1,30,272,26,-1,156,9,268,-1,268,9,266,-1,216,217,88,-1,216,88,264,-1,264,88,118,-1,264,118,262,-1,228,229,44,-1,228,44,260,-1,260,44,144,-1,260,144,258,-1,254,256,41,-1,41,256,113,-1,69,73,252,-1,252,73,250,-1,232,233,67,-1,232,67,248,-1,248,67,70,-1,248,70,246,-1,238,240,59,-1,59,240,54,-1,236,237,51,-1,236,51,244,-1,244,51,64,-1,244,64,242,-1,
        ]
    }
}
Shape{
    appearance Appearance {
        material  Material 	{
            diffuseColor 0.6470588235294118 0.5176470588235295 0.0
            specularColor 0.45098039215686275 0.3607843137254902 0.0
            ambientIntensity 0.2
            transparency 0
            shininess 0.5
        }
    }
    geometry IndexedFaceSet {
        ccw TRUE
        solid FALSE
        coord DEF co Coordinate {
            point [
                -3.5669 -0.9449 -0.0591, -3.5669 -0.9449 -0.1929, -3.4331 -0.9449 -0.0591, -3.4331 -0.9449 -0.1929, -3.626 -0.7245 -0.252, -3.626 -0.1969 -0.252, -3.374 -0.7245 -0.252, -3.374 -0.1969 -0.252, -3.626 -0.125 -0.2439, -3.374 -0.125 -0.2439, -3.626 -0.0568 -0.22, -3.374 -0.0568 -0.22, -3.626 0.0044 -0.1815, -3.374 0.0044 -0.1815, -3.626 0.0556 -0.1304, -3.374 0.0556 -0.1304, -3.626 0.094 -0.0692, -3.374 0.094 -0.0692, -3.626 0.1179 -0.001, -3.374 0.1179 -0.001, -3.626 0.126 0.0709, -3.374 0.126 0.0709, -3.374 -0.126 0.0709, -3.626 -0.126 0.0709, -3.374 -0.1278 0.0551, -3.626 -0.1278 0.0551, -3.374 -0.133 0.0401, -3.626 -0.133 0.0401, -3.374 -0.1414 0.0267, -3.626 -0.1414 0.0267, -3.374 -0.1527 0.0155, -3.626 -0.1527 0.0155, -3.374 -0.1661 0.007, -3.626 -0.1661 0.007, -3.374 -0.1811 0.0018, -3.626 -0.1811 0.0018, -3.374 -0.1969 -0.0, -3.626 -0.1969 -0.0, -3.374 -0.2953 0.0, -3.626 -0.2953 0.0, -3.626 -0.7245 -0.0, -3.626 -0.4921 0.0, -3.626 -0.126 0.2756, -3.626 0.126 0.2756, -3.374 -0.4921 0.0, -3.374 -0.7245 -0.0, -3.374 0.126 0.2756, -3.374 -0.126 0.2756, -3.374 0.126 3.1261, -3.374 0.126 0.9843, -3.626 0.126 3.1261, -3.626 0.126 0.9843, -3.626 -0.126 3.1261, -3.626 -0.126 0.9843, -3.374 -0.126 3.1261, -3.374 -0.126 0.9843, -3.5669 0.0669 3.3465, -3.5669 -0.0669 3.3465, -3.4331 0.0669 3.3465, -3.4331 -0.0669 3.3465, -2.374 0.7245 -0.252, -2.374 0.7245 -0.0, -2.374 0.4921 0.0, -2.374 0.1969 -0.252, -2.374 0.126 0.2756, -2.374 -0.126 0.2756, -2.374 0.126 0.0709, -2.374 -0.126 0.0709, -2.374 0.1278 0.0551, -2.374 -0.1179 -0.001, -2.374 0.133 0.0401, -2.374 -0.094 -0.0692, -2.374 0.1414 0.0267, -2.374 -0.0556 -0.1304, -2.374 0.1527 0.0155, -2.374 -0.0044 -0.1815, -2.374 0.1661 0.007, -2.374 0.0568 -0.22, -2.374 0.1811 0.0018, -2.374 0.125 -0.2439, -2.374 0.1969 -0.0, -2.374 0.2953 0.0, -2.626 -0.126 0.2756, -2.626 0.126 0.2756, -2.626 -0.126 0.0709, -2.626 0.126 0.0709, -2.626 -0.1179 -0.001, -2.626 0.1278 0.0551, -2.626 -0.094 -0.0692, -2.626 0.133 0.0401, -2.626 -0.0556 -0.1304, -2.626 0.1414 0.0267, -2.626 -0.0044 -0.1815, -2.626 0.1527 0.0155, -2.626 0.0568 -0.22, -2.626 0.1661 0.007, -2.626 0.125 -0.2439, -2.626 0.1811 0.0018, -2.626 0.1969 -0.252, -2.626 0.1969 -0.0, -2.626 0.2953 0.0, -2.626 0.7245 -0.252, -2.626 0.4921 0.0, -2.626 0.7245 -0.0, -2.4331 0.9449 -0.0591, -2.4331 0.9449 -0.1929, -2.5669 0.9449 -0.0591, -2.5669 0.9449 -0.1929, -2.626 -0.126 3.1261, -2.626 -0.126 0.9843, -2.374 -0.126 3.1261, -2.374 -0.126 0.9843, -2.374 0.126 3.1261, -2.374 0.126 0.9843, -2.626 0.126 3.1261, -2.626 0.126 0.9843, -2.4331 -0.0669 3.3465, -2.4331 0.0669 3.3465, -2.5669 -0.0669 3.3465, -2.5669 0.0669 3.3465, -0.626 -0.126 3.1261, -0.626 -0.126 0.9843, -0.374 -0.126 3.1261, -0.374 -0.126 0.9843, -0.374 0.126 3.1261, -0.374 0.126 0.9843, -0.626 0.126 3.1261, -0.626 0.126 0.9843, -0.4331 -0.0669 3.3465, -0.4331 0.0669 3.3465, -0.5669 -0.0669 3.3465, -0.5669 0.0669 3.3465, 1.374 -0.126 3.1261, 1.374 -0.126 0.9843, 1.626 -0.126 3.1261, 1.626 -0.126 0.9843, 1.626 0.126 3.1261, 1.626 0.126 0.9843, 1.374 0.126 3.1261, 1.374 0.126 0.9843, 1.5669 -0.0669 3.3465, 1.5669 0.0669 3.3465, 1.4331 -0.0669 3.3465, 1.4331 0.0669 3.3465, 3.374 -0.126 3.1261, 3.374 -0.126 0.9843, 3.626 -0.126 3.1261, 3.626 -0.126 0.9843, 3.626 0.126 3.1261, 3.626 0.126 0.9843, 3.374 0.126 3.1261, 3.374 0.126 0.9843, 3.5669 -0.0669 3.3465, 3.5669 0.0669 3.3465, 3.4331 -0.0669 3.3465, 3.4331 0.0669 3.3465, -1.626 -0.4921 0.0, -1.626 -0.7245 -0.0, -1.374 -0.4921 0.0, -1.374 -0.7245 -0.0, -1.374 -0.7245 -0.252, -1.4331 -0.9449 -0.1929, -1.626 -0.7245 -0.252, -1.5669 -0.9449 -0.1929, -1.4331 -0.9449 -0.0591, -1.5669 -0.9449 -0.0591, -1.626 -0.1969 -0.252, -1.374 -0.1969 -0.252, -1.626 -0.125 -0.2439, -1.374 -0.125 -0.2439, -1.626 -0.0568 -0.22, -1.374 -0.0568 -0.22, -1.626 0.0044 -0.1815, -1.374 0.0044 -0.1815, -1.626 0.0556 -0.1304, -1.374 0.0556 -0.1304, -1.626 0.094 -0.0692, -1.374 0.094 -0.0692, -1.626 0.1179 -0.001, -1.374 0.1179 -0.001, -1.626 0.126 0.0709, -1.374 0.126 0.0709, -1.374 -0.126 0.0709, -1.626 -0.126 0.0709, -1.374 -0.1278 0.0551, -1.626 -0.1278 0.0551, -1.374 -0.133 0.0401, -1.626 -0.133 0.0401, -1.374 -0.1414 0.0267, -1.626 -0.1414 0.0267, -1.374 -0.1527 0.0155, -1.626 -0.1527 0.0155, -1.374 -0.1661 0.007, -1.626 -0.1661 0.007, -1.374 -0.1811 0.0018, -1.626 -0.1811 0.0018, -1.374 -0.1969 -0.0, -1.626 -0.1969 -0.0, -1.626 -0.126 0.2756, -1.374 -0.126 0.2756, -1.626 0.126 0.2756, -1.626 -0.2953 0.0, -1.374 0.126 0.2756, -1.374 -0.2953 0.0, 0.374 -0.4921 0.0, 0.374 -0.7245 -0.0, 0.626 -0.4921 0.0, 0.626 -0.7245 -0.0, 0.626 -0.7245 -0.252, 0.5669 -0.9449 -0.1929, 0.374 -0.7245 -0.252, 0.4331 -0.9449 -0.1929, 0.5669 -0.9449 -0.0591, 0.4331 -0.9449 -0.0591, 0.374 -0.1969 -0.252, 0.626 -0.1969 -0.252, 0.374 -0.125 -0.2439, 0.626 -0.125 -0.2439, 0.374 -0.0568 -0.22, 0.626 -0.0568 -0.22, 0.374 0.0044 -0.1815, 0.626 0.0044 -0.1815, 0.374 0.0556 -0.1304, 0.626 0.0556 -0.1304, 0.374 0.094 -0.0692, 0.626 0.094 -0.0692, 0.374 0.1179 -0.001, 0.626 0.1179 -0.001, 0.374 0.126 0.0709, 0.626 0.126 0.0709, 0.626 -0.126 0.0709, 0.374 -0.126 0.0709, 0.626 -0.1278 0.0551, 0.374 -0.1278 0.0551, 0.626 -0.133 0.0401, 0.374 -0.133 0.0401, 0.626 -0.1414 0.0267, 0.374 -0.1414 0.0267, 0.626 -0.1527 0.0155, 0.374 -0.1527 0.0155, 0.626 -0.1661 0.007, 0.374 -0.1661 0.007, 0.626 -0.1811 0.0018, 0.374 -0.1811 0.0018, 0.626 -0.1969 -0.0, 0.374 -0.1969 -0.0, 0.374 -0.126 0.2756, 0.626 -0.126 0.2756, 0.374 0.126 0.2756, 0.374 -0.2953 0.0, 0.626 0.126 0.2756, 0.626 -0.2953 0.0, 2.374 -0.4921 0.0, 2.374 -0.7245 -0.0, 2.626 -0.4921 0.0, 2.626 -0.7245 -0.0, 2.626 -0.7245 -0.252, 2.5669 -0.9449 -0.1929, 2.374 -0.7245 -0.252, 2.4331 -0.9449 -0.1929, 2.5669 -0.9449 -0.0591, 2.4331 -0.9449 -0.0591, 2.374 -0.1969 -0.252, 2.626 -0.1969 -0.252, 2.374 -0.125 -0.2439, 2.626 -0.125 -0.2439, 2.374 -0.0568 -0.22, 2.626 -0.0568 -0.22, 2.374 0.0044 -0.1815, 2.626 0.0044 -0.1815, 2.374 0.0556 -0.1304, 2.626 0.0556 -0.1304, 2.374 0.094 -0.0692, 2.626 0.094 -0.0692, 2.374 0.1179 -0.001, 2.626 0.1179 -0.001, 2.374 0.126 0.0709, 2.626 0.126 0.0709, 2.626 -0.126 0.0709, 2.374 -0.126 0.0709, 2.626 -0.1278 0.0551, 2.374 -0.1278 0.0551, 2.626 -0.133 0.0401, 2.374 -0.133 0.0401, 2.626 -0.1414 0.0267, 2.374 -0.1414 0.0267, 2.626 -0.1527 0.0155, 2.374 -0.1527 0.0155, 2.626 -0.1661 0.007, 2.374 -0.1661 0.007, 2.626 -0.1811 0.0018, 2.374 -0.1811 0.0018, 2.626 -0.1969 -0.0, 2.374 -0.1969 -0.0, 2.374 -0.126 0.2756, 2.626 -0.126 0.2756, 2.374 0.126 0.2756, 2.374 -0.2953 0.0, 2.626 0.126 0.2756, 2.626 -0.2953 0.0, -1.374 0.126 3.1261, -1.4331 0.0669 3.3465, -1.374 -0.126 3.1261, -1.4331 -0.0669 3.3465, -1.626 -0.126 3.1261, -1.5669 -0.0669 3.3465, -1.5669 0.0669 3.3465, -1.626 0.126 3.1261, -1.374 0.126 0.9843, -1.626 0.126 0.9843, -1.374 -0.126 0.9843, -1.626 -0.126 0.9843, 0.626 0.126 3.1261, 0.5669 0.0669 3.3465, 0.626 -0.126 3.1261, 0.5669 -0.0669 3.3465, 0.374 -0.126 3.1261, 0.4331 -0.0669 3.3465, 0.4331 0.0669 3.3465, 0.374 0.126 3.1261, 0.626 0.126 0.9843, 0.374 0.126 0.9843, 0.626 -0.126 0.9843, 0.374 -0.126 0.9843, 2.626 0.126 3.1261, 2.5669 0.0669 3.3465, 2.626 -0.126 3.1261, 2.5669 -0.0669 3.3465, 2.374 -0.126 3.1261, 2.4331 -0.0669 3.3465, 2.4331 0.0669 3.3465, 2.374 0.126 3.1261, 2.626 0.126 0.9843, 2.374 0.126 0.9843, 2.626 -0.126 0.9843, 2.374 -0.126 0.9843, -0.374 0.4921 0.0, -0.374 0.7245 -0.0, -0.626 0.4921 0.0, -0.626 0.7245 -0.0, -0.4331 0.9449 -0.0591, -0.4331 0.9449 -0.1929, -0.5669 0.9449 -0.0591, -0.5669 0.9449 -0.1929, -0.626 -0.126 0.2756, -0.626 -0.126 0.0709, -0.374 -0.126 0.2756, -0.374 -0.126 0.0709, -0.626 0.1969 -0.252, -0.374 0.1969 -0.252, -0.374 0.125 -0.2439, -0.626 0.125 -0.2439, -0.374 0.0568 -0.22, -0.626 0.0568 -0.22, -0.374 -0.0044 -0.1815, -0.626 -0.0044 -0.1815, -0.374 -0.0556 -0.1304, -0.626 -0.0556 -0.1304, -0.374 -0.094 -0.0692, -0.626 -0.094 -0.0692, -0.374 -0.1179 -0.001, -0.626 -0.1179 -0.001, -0.374 0.7245 -0.252, -0.626 0.7245 -0.252, -0.374 0.126 0.2756, -0.374 0.126 0.0709, -0.374 0.1278 0.0551, -0.374 0.133 0.0401, -0.374 0.1414 0.0267, -0.374 0.1527 0.0155, -0.374 0.1661 0.007, -0.374 0.1811 0.0018, -0.374 0.1969 -0.0, -0.374 0.2953 0.0, -0.626 0.126 0.0709, -0.626 0.126 0.2756, -0.626 0.1278 0.0551, -0.626 0.133 0.0401, -0.626 0.1414 0.0267, -0.626 0.1527 0.0155, -0.626 0.1661 0.007, -0.626 0.1811 0.0018, -0.626 0.1969 -0.0, -0.626 0.2953 0.0, 1.626 0.4921 0.0, 1.626 0.7245 -0.0, 1.374 0.4921 0.0, 1.374 0.7245 -0.0, 1.5669 0.9449 -0.0591, 1.5669 0.9449 -0.1929, 1.4331 0.9449 -0.0591, 1.4331 0.9449 -0.1929, 1.374 -0.126 0.2756, 1.374 -0.126 0.0709, 1.626 -0.126 0.2756, 1.626 -0.126 0.0709, 1.374 0.1969 -0.252, 1.626 0.1969 -0.252, 1.626 0.125 -0.2439, 1.374 0.125 -0.2439, 1.626 0.0568 -0.22, 1.374 0.0568 -0.22, 1.626 -0.0044 -0.1815, 1.374 -0.0044 -0.1815, 1.626 -0.0556 -0.1304, 1.374 -0.0556 -0.1304, 1.626 -0.094 -0.0692, 1.374 -0.094 -0.0692, 1.626 -0.1179 -0.001, 1.374 -0.1179 -0.001, 1.626 0.7245 -0.252, 1.374 0.7245 -0.252, 1.626 0.126 0.2756, 1.626 0.126 0.0709, 1.626 0.1278 0.0551, 1.626 0.133 0.0401, 1.626 0.1414 0.0267, 1.626 0.1527 0.0155, 1.626 0.1661 0.007, 1.626 0.1811 0.0018, 1.626 0.1969 -0.0, 1.626 0.2953 0.0, 1.374 0.126 0.0709, 1.374 0.126 0.2756, 1.374 0.1278 0.0551, 1.374 0.133 0.0401, 1.374 0.1414 0.0267, 1.374 0.1527 0.0155, 1.374 0.1661 0.007, 1.374 0.1811 0.0018, 1.374 0.1969 -0.0, 1.374 0.2953 0.0, 3.626 0.4921 0.0, 3.626 0.7245 -0.0, 3.374 0.4921 0.0, 3.374 0.7245 -0.0, 3.5669 0.9449 -0.0591, 3.5669 0.9449 -0.1929, 3.4331 0.9449 -0.0591, 3.4331 0.9449 -0.1929, 3.374 -0.126 0.2756, 3.374 -0.126 0.0709, 3.626 -0.126 0.2756, 3.626 -0.126 0.0709, 3.374 0.1969 -0.252, 3.626 0.1969 -0.252, 3.626 0.125 -0.2439, 3.374 0.125 -0.2439, 3.626 0.0568 -0.22, 3.374 0.0568 -0.22, 3.626 -0.0044 -0.1815, 3.374 -0.0044 -0.1815, 3.626 -0.0556 -0.1304, 3.374 -0.0556 -0.1304, 3.626 -0.094 -0.0692, 3.374 -0.094 -0.0692, 3.626 -0.1179 -0.001, 3.374 -0.1179 -0.001, 3.626 0.7245 -0.252, 3.374 0.7245 -0.252, 3.626 0.126 0.2756, 3.626 0.126 0.0709, 3.626 0.1278 0.0551, 3.626 0.133 0.0401, 3.626 0.1414 0.0267, 3.626 0.1527 0.0155, 3.626 0.1661 0.007, 3.626 0.1811 0.0018, 3.626 0.1969 -0.0, 3.626 0.2953 0.0, 3.374 0.126 0.0709, 3.374 0.126 0.2756, 3.374 0.1278 0.0551, 3.374 0.133 0.0401, 3.374 0.1414 0.0267, 3.374 0.1527 0.0155, 3.374 0.1661 0.007, 3.374 0.1811 0.0018, 3.374 0.1969 -0.0, 3.374 0.2953 0.0, 3.374 0.2953 0.0
            ]
        }
        coordIndex [
            0,1,2,-1,2,1,3,-1,4,5,6,-1,6,5,7,-1,7,5,8,-1,7,8,9,-1,9,8,10,-1,9,10,11,-1,11,10,12,-1,11,12,13,-1,13,12,14,-1,13,14,15,-1,15,14,16,-1,15,16,17,-1,17,16,18,-1,17,18,19,-1,19,18,20,-1,19,20,21,-1,22,23,24,-1,24,23,25,-1,24,25,26,-1,26,25,27,-1,26,27,28,-1,28,27,29,-1,28,29,30,-1,30,29,31,-1,30,31,32,-1,32,31,33,-1,32,33,34,-1,34,33,35,-1,34,35,36,-1,36,35,37,-1,36,37,38,-1,38,37,39,-1,4,40,41,-1,4,41,5,-1,42,43,23,-1,23,43,20,-1,23,20,25,-1,25,20,18,-1,25,18,27,-1,27,18,16,-1,27,16,29,-1,29,16,14,-1,29,14,31,-1,31,14,12,-1,31,12,33,-1,33,12,10,-1,33,10,35,-1,35,10,8,-1,35,8,37,-1,37,8,5,-1,37,5,39,-1,39,5,41,-1,7,38,6,-1,6,38,44,-1,6,44,45,-1,46,47,21,-1,21,47,22,-1,21,22,19,-1,19,22,24,-1,19,24,17,-1,17,24,26,-1,17,26,15,-1,15,26,28,-1,15,28,13,-1,13,28,30,-1,13,30,11,-1,11,30,32,-1,11,32,9,-1,9,32,34,-1,9,34,7,-1,7,34,36,-1,7,36,38,-1,23,22,42,-1,42,22,47,-1,46,21,43,-1,43,21,20,-1,45,44,40,-1,40,44,41,-1,48,49,50,-1,50,49,51,-1,52,53,54,-1,54,53,55,-1,54,55,48,-1,48,55,49,-1,50,51,52,-1,52,51,53,-1,56,57,58,-1,58,57,59,-1,6,3,4,-1,4,3,1,-1,45,2,6,-1,6,2,3,-1,0,40,1,-1,1,40,4,-1,40,0,45,-1,45,0,2,-1,54,59,52,-1,52,59,57,-1,48,58,54,-1,54,58,59,-1,56,50,57,-1,57,50,52,-1,50,56,48,-1,48,56,58,-1,60,61,62,-1,60,62,63,-1,64,65,66,-1,66,65,67,-1,66,67,68,-1,68,67,69,-1,68,69,70,-1,70,69,71,-1,70,71,72,-1,72,71,73,-1,72,73,74,-1,74,73,75,-1,74,75,76,-1,76,75,77,-1,76,77,78,-1,78,77,79,-1,78,79,80,-1,80,79,63,-1,80,63,81,-1,81,63,62,-1,82,83,84,-1,84,83,85,-1,84,85,86,-1,86,85,87,-1,86,87,88,-1,88,87,89,-1,88,89,90,-1,90,89,91,-1,90,91,92,-1,92,91,93,-1,92,93,94,-1,94,93,95,-1,94,95,96,-1,96,95,97,-1,96,97,98,-1,97,99,98,-1,98,99,100,-1,98,100,101,-1,101,100,102,-1,101,102,103,-1,85,66,87,-1,87,66,68,-1,87,68,89,-1,89,68,70,-1,89,70,91,-1,91,70,72,-1,91,72,93,-1,93,72,74,-1,93,74,95,-1,95,74,76,-1,95,76,97,-1,97,76,78,-1,97,78,99,-1,99,78,80,-1,66,85,64,-1,64,85,83,-1,82,84,65,-1,65,84,67,-1,98,63,79,-1,98,79,96,-1,96,79,77,-1,96,77,94,-1,94,77,75,-1,94,75,92,-1,92,75,73,-1,92,73,90,-1,90,73,71,-1,90,71,88,-1,88,71,69,-1,88,69,86,-1,86,69,67,-1,86,67,84,-1,60,63,101,-1,101,63,98,-1,104,105,106,-1,106,105,107,-1,99,80,100,-1,100,80,81,-1,103,102,61,-1,61,102,62,-1,108,109,110,-1,110,109,111,-1,112,113,114,-1,114,113,115,-1,114,115,108,-1,108,115,109,-1,110,111,112,-1,112,111,113,-1,116,117,118,-1,118,117,119,-1,101,107,60,-1,60,107,105,-1,103,106,101,-1,101,106,107,-1,104,61,105,-1,105,61,60,-1,61,104,103,-1,103,104,106,-1,114,119,112,-1,112,119,117,-1,108,118,114,-1,114,118,119,-1,116,110,117,-1,117,110,112,-1,110,116,108,-1,108,116,118,-1,120,121,122,-1,122,121,123,-1,122,123,124,-1,124,123,125,-1,124,125,126,-1,126,125,127,-1,126,127,120,-1,120,127,121,-1,128,129,130,-1,130,129,131,-1,120,130,126,-1,126,130,131,-1,126,131,124,-1,124,131,129,-1,128,122,129,-1,129,122,124,-1,122,128,120,-1,120,128,130,-1,132,133,134,-1,134,133,135,-1,134,135,136,-1,136,135,137,-1,136,137,138,-1,138,137,139,-1,138,139,132,-1,132,139,133,-1,140,141,142,-1,142,141,143,-1,132,142,138,-1,138,142,143,-1,138,143,136,-1,136,143,141,-1,140,134,141,-1,141,134,136,-1,134,140,132,-1,132,140,142,-1,144,145,146,-1,146,145,147,-1,146,147,148,-1,148,147,149,-1,148,149,150,-1,150,149,151,-1,150,151,144,-1,144,151,145,-1,152,153,154,-1,154,153,155,-1,144,154,150,-1,150,154,155,-1,150,155,148,-1,148,155,153,-1,152,146,153,-1,153,146,148,-1,146,152,144,-1,144,152,154,-1,156,157,158,-1,158,157,159,-1,160,161,162,-1,162,161,163,-1,159,164,160,-1,160,164,161,-1,157,165,159,-1,159,165,164,-1,165,163,164,-1,164,163,161,-1,165,157,163,-1,163,157,162,-1,162,166,160,-1,160,166,167,-1,167,166,168,-1,167,168,169,-1,169,168,170,-1,169,170,171,-1,171,170,172,-1,171,172,173,-1,173,172,174,-1,173,174,175,-1,175,174,176,-1,175,176,177,-1,177,176,178,-1,177,178,179,-1,179,178,180,-1,179,180,181,-1,182,183,184,-1,184,183,185,-1,184,185,186,-1,186,185,187,-1,186,187,188,-1,188,187,189,-1,188,189,190,-1,190,189,191,-1,190,191,192,-1,192,191,193,-1,192,193,194,-1,194,193,195,-1,194,195,196,-1,196,195,197,-1,183,182,198,-1,198,182,199,-1,162,157,156,-1,162,156,166,-1,198,200,183,-1,183,200,180,-1,183,180,185,-1,185,180,178,-1,185,178,187,-1,187,178,176,-1,187,176,189,-1,189,176,174,-1,189,174,191,-1,191,174,172,-1,191,172,193,-1,193,172,170,-1,193,170,195,-1,195,170,168,-1,195,168,197,-1,197,168,166,-1,197,166,201,-1,201,166,156,-1,202,181,200,-1,200,181,180,-1,167,203,160,-1,160,203,158,-1,160,158,159,-1,202,199,181,-1,181,199,182,-1,181,182,179,-1,179,182,184,-1,179,184,177,-1,177,184,186,-1,177,186,175,-1,175,186,188,-1,175,188,173,-1,173,188,190,-1,173,190,171,-1,171,190,192,-1,171,192,169,-1,169,192,194,-1,169,194,167,-1,167,194,196,-1,167,196,203,-1,196,197,203,-1,203,197,201,-1,204,205,206,-1,206,205,207,-1,208,209,210,-1,210,209,211,-1,207,212,208,-1,208,212,209,-1,205,213,207,-1,207,213,212,-1,213,211,212,-1,212,211,209,-1,213,205,211,-1,211,205,210,-1,210,214,208,-1,208,214,215,-1,215,214,216,-1,215,216,217,-1,217,216,218,-1,217,218,219,-1,219,218,220,-1,219,220,221,-1,221,220,222,-1,221,222,223,-1,223,222,224,-1,223,224,225,-1,225,224,226,-1,225,226,227,-1,227,226,228,-1,227,228,229,-1,230,231,232,-1,232,231,233,-1,232,233,234,-1,234,233,235,-1,234,235,236,-1,236,235,237,-1,236,237,238,-1,238,237,239,-1,238,239,240,-1,240,239,241,-1,240,241,242,-1,242,241,243,-1,242,243,244,-1,244,243,245,-1,231,230,246,-1,246,230,247,-1,210,205,204,-1,210,204,214,-1,246,248,231,-1,231,248,228,-1,231,228,233,-1,233,228,226,-1,233,226,235,-1,235,226,224,-1,235,224,237,-1,237,224,222,-1,237,222,239,-1,239,222,220,-1,239,220,241,-1,241,220,218,-1,241,218,243,-1,243,218,216,-1,243,216,245,-1,245,216,214,-1,245,214,249,-1,249,214,204,-1,250,229,248,-1,248,229,228,-1,215,251,208,-1,208,251,206,-1,208,206,207,-1,250,247,229,-1,229,247,230,-1,229,230,227,-1,227,230,232,-1,227,232,225,-1,225,232,234,-1,225,234,223,-1,223,234,236,-1,223,236,221,-1,221,236,238,-1,221,238,219,-1,219,238,240,-1,219,240,217,-1,217,240,242,-1,217,242,215,-1,215,242,244,-1,215,244,251,-1,244,245,251,-1,251,245,249,-1,252,253,254,-1,254,253,255,-1,256,257,258,-1,258,257,259,-1,255,260,256,-1,256,260,257,-1,253,261,255,-1,255,261,260,-1,261,259,260,-1,260,259,257,-1,261,253,259,-1,259,253,258,-1,258,262,256,-1,256,262,263,-1,263,262,264,-1,263,264,265,-1,265,264,266,-1,265,266,267,-1,267,266,268,-1,267,268,269,-1,269,268,270,-1,269,270,271,-1,271,270,272,-1,271,272,273,-1,273,272,274,-1,273,274,275,-1,275,274,276,-1,275,276,277,-1,278,279,280,-1,280,279,281,-1,280,281,282,-1,282,281,283,-1,282,283,284,-1,284,283,285,-1,284,285,286,-1,286,285,287,-1,286,287,288,-1,288,287,289,-1,288,289,290,-1,290,289,291,-1,290,291,292,-1,292,291,293,-1,279,278,294,-1,294,278,295,-1,258,253,252,-1,258,252,262,-1,294,296,279,-1,279,296,276,-1,279,276,281,-1,281,276,274,-1,281,274,283,-1,283,274,272,-1,283,272,285,-1,285,272,270,-1,285,270,287,-1,287,270,268,-1,287,268,289,-1,289,268,266,-1,289,266,291,-1,291,266,264,-1,291,264,293,-1,293,264,262,-1,293,262,297,-1,297,262,252,-1,298,277,296,-1,296,277,276,-1,263,299,256,-1,256,299,254,-1,256,254,255,-1,298,295,277,-1,277,295,278,-1,277,278,275,-1,275,278,280,-1,275,280,273,-1,273,280,282,-1,273,282,271,-1,271,282,284,-1,271,284,269,-1,269,284,286,-1,269,286,267,-1,267,286,288,-1,267,288,265,-1,265,288,290,-1,265,290,263,-1,263,290,292,-1,263,292,299,-1,292,293,299,-1,299,293,297,-1,300,301,302,-1,302,301,303,-1,302,303,304,-1,304,303,305,-1,306,307,305,-1,305,307,304,-1,300,308,307,-1,307,308,309,-1,302,310,300,-1,300,310,308,-1,304,311,302,-1,302,311,310,-1,307,309,304,-1,304,309,311,-1,307,306,300,-1,300,306,301,-1,306,305,301,-1,301,305,303,-1,312,313,314,-1,314,313,315,-1,314,315,316,-1,316,315,317,-1,318,319,317,-1,317,319,316,-1,312,320,319,-1,319,320,321,-1,314,322,312,-1,312,322,320,-1,316,323,314,-1,314,323,322,-1,319,321,316,-1,316,321,323,-1,319,318,312,-1,312,318,313,-1,318,317,313,-1,313,317,315,-1,324,325,326,-1,326,325,327,-1,326,327,328,-1,328,327,329,-1,330,331,329,-1,329,331,328,-1,324,332,331,-1,331,332,333,-1,326,334,324,-1,324,334,332,-1,328,335,326,-1,326,335,334,-1,331,333,328,-1,328,333,335,-1,331,330,324,-1,324,330,325,-1,330,329,325,-1,325,329,327,-1,336,337,338,-1,338,337,339,-1,340,341,342,-1,342,341,343,-1,344,345,346,-1,346,345,347,-1,348,349,350,-1,348,350,351,-1,351,350,352,-1,351,352,353,-1,353,352,354,-1,353,354,355,-1,355,354,356,-1,355,356,357,-1,357,356,358,-1,357,358,359,-1,359,358,360,-1,359,360,361,-1,361,360,347,-1,361,347,345,-1,362,349,363,-1,363,349,348,-1,362,337,336,-1,362,336,349,-1,364,346,365,-1,365,346,347,-1,365,347,366,-1,366,347,360,-1,366,360,367,-1,367,360,358,-1,367,358,368,-1,368,358,356,-1,368,356,369,-1,369,356,354,-1,369,354,370,-1,370,354,352,-1,370,352,371,-1,371,352,350,-1,371,350,372,-1,372,350,349,-1,372,349,373,-1,373,349,336,-1,365,374,364,-1,364,374,375,-1,374,365,376,-1,376,365,366,-1,376,366,377,-1,377,366,367,-1,377,367,378,-1,378,367,368,-1,378,368,379,-1,379,368,369,-1,379,369,380,-1,380,369,370,-1,380,370,381,-1,381,370,371,-1,381,371,382,-1,382,371,372,-1,344,375,345,-1,345,375,374,-1,345,374,361,-1,361,374,376,-1,361,376,359,-1,359,376,377,-1,359,377,357,-1,357,377,378,-1,357,378,355,-1,355,378,379,-1,355,379,353,-1,353,379,380,-1,353,380,351,-1,351,380,381,-1,351,381,348,-1,381,382,348,-1,348,382,383,-1,348,383,363,-1,363,383,338,-1,363,338,339,-1,382,372,383,-1,383,372,373,-1,339,342,363,-1,363,342,343,-1,363,343,362,-1,362,343,341,-1,340,337,341,-1,341,337,362,-1,337,340,339,-1,339,340,342,-1,384,385,386,-1,386,385,387,-1,388,389,390,-1,390,389,391,-1,392,393,394,-1,394,393,395,-1,396,397,398,-1,396,398,399,-1,399,398,400,-1,399,400,401,-1,401,400,402,-1,401,402,403,-1,403,402,404,-1,403,404,405,-1,405,404,406,-1,405,406,407,-1,407,406,408,-1,407,408,409,-1,409,408,395,-1,409,395,393,-1,410,397,411,-1,411,397,396,-1,410,385,384,-1,410,384,397,-1,412,394,413,-1,413,394,395,-1,413,395,414,-1,414,395,408,-1,414,408,415,-1,415,408,406,-1,415,406,416,-1,416,406,404,-1,416,404,417,-1,417,404,402,-1,417,402,418,-1,418,402,400,-1,418,400,419,-1,419,400,398,-1,419,398,420,-1,420,398,397,-1,420,397,421,-1,421,397,384,-1,413,422,412,-1,412,422,423,-1,422,413,424,-1,424,413,414,-1,424,414,425,-1,425,414,415,-1,425,415,426,-1,426,415,416,-1,426,416,427,-1,427,416,417,-1,427,417,428,-1,428,417,418,-1,428,418,429,-1,429,418,419,-1,429,419,430,-1,430,419,420,-1,392,423,393,-1,393,423,422,-1,393,422,409,-1,409,422,424,-1,409,424,407,-1,407,424,425,-1,407,425,405,-1,405,425,426,-1,405,426,403,-1,403,426,427,-1,403,427,401,-1,401,427,428,-1,401,428,399,-1,399,428,429,-1,399,429,396,-1,429,430,396,-1,396,430,431,-1,396,431,411,-1,411,431,386,-1,411,386,387,-1,430,420,431,-1,431,420,421,-1,387,390,411,-1,411,390,391,-1,411,391,410,-1,410,391,389,-1,388,385,389,-1,389,385,410,-1,385,388,387,-1,387,388,390,-1,432,433,434,-1,434,433,435,-1,436,437,438,-1,438,437,439,-1,440,441,442,-1,442,441,443,-1,444,445,446,-1,444,446,447,-1,447,446,448,-1,447,448,449,-1,449,448,450,-1,449,450,451,-1,451,450,452,-1,451,452,453,-1,453,452,454,-1,453,454,455,-1,455,454,456,-1,455,456,457,-1,457,456,443,-1,457,443,441,-1,458,445,459,-1,459,445,444,-1,458,433,432,-1,458,432,445,-1,460,442,461,-1,461,442,443,-1,461,443,462,-1,462,443,456,-1,462,456,463,-1,463,456,454,-1,463,454,464,-1,464,454,452,-1,464,452,465,-1,465,452,450,-1,465,450,466,-1,466,450,448,-1,466,448,467,-1,467,448,446,-1,467,446,468,-1,468,446,445,-1,468,445,469,-1,469,445,432,-1,461,470,460,-1,460,470,471,-1,470,461,472,-1,472,461,462,-1,472,462,473,-1,473,462,463,-1,473,463,474,-1,474,463,464,-1,474,464,475,-1,475,464,465,-1,475,465,476,-1,476,465,466,-1,476,466,477,-1,477,466,467,-1,477,467,478,-1,478,467,468,-1,440,471,441,-1,441,471,470,-1,441,470,457,-1,457,470,472,-1,457,472,455,-1,455,472,473,-1,455,473,453,-1,453,473,474,-1,453,474,451,-1,451,474,475,-1,451,475,449,-1,449,475,476,-1,449,476,447,-1,447,476,477,-1,447,477,444,-1,477,478,444,-1,444,478,479,-1,444,479,459,-1,459,479,434,-1,459,434,435,-1,478,468,479,-1,479,468,469,-1,435,438,459,-1,459,438,439,-1,459,439,458,-1,458,439,437,-1,436,433,437,-1,437,433,458,-1,433,436,435,-1,435,436,438,-1,
        ]
    }
}
Shape{
    appearance Appearance {
        material  Material 	{
            diffuseColor 1.0 1.0 1.0
            specularColor 0.8784313725490196 0.8784313725490196 0.8784313725490196
            ambientIntensity 0.2
            transparency 0
            shininess 0.5
        }
    }
    geometry IndexedFaceSet {
        ccw TRUE
        solid FALSE
        coord DEF co Coordinate {
            point [
                -1.2002 -0.0521 0.315, -1.2463 -0.1702 0.315, -1.2002 -0.0521 0.2756, -1.2463 -0.1702 0.2756, -1.229 -0.1702 0.315, -1.229 -0.1702 0.2756, -1.2171 -0.1371 0.315, -1.2171 -0.1371 0.2756, -1.1683 -0.1371 0.315, -1.1683 -0.1371 0.2756, -1.157 -0.1702 0.315, -1.157 -0.1702 0.2756, -1.1397 -0.1702 0.315, -1.1397 -0.1702 0.2756, -1.1844 -0.0521 0.315, -1.1844 -0.0521 0.2756, -1.1723 -0.1241 0.315, -1.2118 -0.1241 0.315, -1.1899 -0.0748 0.315, -1.191 -0.0707 0.315, -1.1918 -0.0665 0.315, -1.1922 -0.0665 0.315, -1.1929 -0.0707 0.315, -1.194 -0.0748 0.315, -1.1723 -0.1241 0.2756, -1.2118 -0.1241 0.2756, -1.1899 -0.0748 0.2756, -1.191 -0.0707 0.2756, -1.1918 -0.0665 0.2756, -1.1922 -0.0665 0.2756, -1.1929 -0.0707 0.2756, -1.194 -0.0748 0.2756, -1.0681 -0.1702 0.315, -1.036 -0.1702 0.315, -1.0681 -0.1702 0.2756, -1.036 -0.1702 0.2756, -1.036 -0.0521 0.315, -1.036 -0.0521 0.2756, -1.0693 -0.0521 0.315, -1.0693 -0.0521 0.2756, -1.1311 -0.1097 0.315, -1.1311 -0.1097 0.2756, -1.1302 -0.0986 0.2756, -1.1302 -0.0986 0.315, -1.127 -0.0869 0.2756, -1.127 -0.0869 0.315, -1.1216 -0.0768 0.2756, -1.1216 -0.0768 0.315, -1.1132 -0.0675 0.2756, -1.1132 -0.0675 0.315, -1.1131 -0.0674 0.2756, -1.1131 -0.0674 0.315, -1.1002 -0.0588 0.2756, -1.1002 -0.0588 0.315, -1.0864 -0.0539 0.2756, -1.0864 -0.0539 0.315, -1.0827 -0.1689 0.2756, -1.0827 -0.1689 0.315, -1.0963 -0.1649 0.2756, -1.0963 -0.1649 0.315, -1.1087 -0.1577 0.2756, -1.1087 -0.1577 0.315, -1.1184 -0.1484 0.2756, -1.1184 -0.1484 0.315, -1.1252 -0.1378 0.2756, -1.1252 -0.1378 0.315, -1.1294 -0.1255 0.2756, -1.1294 -0.1255 0.315, -1.1074 -0.0816 0.315, -1.1016 -0.0755 0.315, -1.093 -0.07 0.315, -1.0833 -0.0666 0.315, -1.0693 -0.0651 0.315, -1.0519 -0.0651 0.315, -1.0519 -0.1573 0.315, -1.0686 -0.1573 0.315, -1.0811 -0.1561 0.315, -1.091 -0.153 0.315, -1.0991 -0.1482 0.315, -1.1057 -0.1417 0.315, -1.1107 -0.1335 0.315, -1.1141 -0.1224 0.315, -1.1152 -0.11 0.315, -1.1142 -0.0983 0.315, -1.1115 -0.0889 0.315, -1.0693 -0.0651 0.2756, -1.0519 -0.0651 0.2756, -1.0833 -0.0666 0.2756, -1.093 -0.07 0.2756, -1.1016 -0.0755 0.2756, -1.1074 -0.0816 0.2756, -1.1115 -0.0889 0.2756, -1.1142 -0.0983 0.2756, -1.1152 -0.11 0.2756, -1.1141 -0.1224 0.2756, -1.1107 -0.1335 0.2756, -1.1057 -0.1417 0.2756, -1.0991 -0.1482 0.2756, -1.091 -0.153 0.2756, -1.0811 -0.1561 0.2756, -1.0686 -0.1573 0.2756, -1.0519 -0.1573 0.2756, -1.013 -0.1573 0.315, -1.013 -0.1702 0.315, -1.013 -0.1573 0.2756, -1.013 -0.1702 0.2756, -0.9496 -0.1702 0.315, -0.9496 -0.1702 0.2756, -0.9496 -0.0521 0.315, -0.9496 -0.0521 0.2756, -1.0101 -0.0521 0.315, -1.0101 -0.0521 0.2756, -1.0101 -0.0651 0.315, -1.0101 -0.0651 0.2756, -0.9654 -0.0651 0.315, -0.9654 -0.0651 0.2756, -0.9654 -0.104 0.315, -0.9654 -0.104 0.2756, -1.0072 -0.104 0.315, -1.0072 -0.104 0.2756, -1.0072 -0.1169 0.315, -1.0072 -0.1169 0.2756, -0.9654 -0.1169 0.315, -0.9654 -0.1169 0.2756, -0.9654 -0.1573 0.315, -0.9654 -0.1573 0.2756, -0.9265 -0.1511 0.315, -0.9265 -0.1641 0.315, -0.9265 -0.1511 0.2756, -0.9265 -0.1641 0.2756, -0.894 -0.1717 0.315, -0.894 -0.1717 0.2756, -0.8973 -0.1716 0.2756, -0.8973 -0.1716 0.315, -0.914 -0.1693 0.2756, -0.914 -0.1693 0.315, -0.8387 -0.1134 0.315, -0.8387 -0.1134 0.2756, -0.8398 -0.1271 0.2756, -0.8398 -0.1271 0.315, -0.8434 -0.1396 0.2756, -0.8434 -0.1396 0.315, -0.8497 -0.1508 0.2756, -0.8497 -0.1508 0.315, -0.8585 -0.1601 0.2756, -0.8585 -0.1601 0.315, -0.868 -0.1662 0.2756, -0.868 -0.1662 0.315, -0.8795 -0.1701 0.2756, -0.8795 -0.1701 0.315, -0.8987 -0.0507 0.315, -0.8987 -0.0507 0.2756, -0.8869 -0.0516 0.2756, -0.8869 -0.0516 0.315, -0.8737 -0.0555 0.2756, -0.8737 -0.0555 0.315, -0.8625 -0.0619 0.2756, -0.8625 -0.0619 0.315, -0.8518 -0.0722 0.2756, -0.8518 -0.0722 0.315, -0.8449 -0.0832 0.2756, -0.8449 -0.0832 0.315, -0.8404 -0.0966 0.2756, -0.8404 -0.0966 0.315, -0.9265 -0.0553 0.315, -0.9265 -0.0553 0.2756, -0.9129 -0.0516 0.2756, -0.9129 -0.0516 0.315, -0.9265 -0.0712 0.315, -0.9265 -0.0712 0.2756, -0.8989 -0.0636 0.315, -0.8989 -0.0636 0.2756, -0.9132 -0.0655 0.2756, -0.9132 -0.0655 0.315, -0.8545 -0.1124 0.315, -0.8545 -0.1124 0.2756, -0.8551 -0.1032 0.2756, -0.8551 -0.1032 0.315, -0.8582 -0.0906 0.2756, -0.8582 -0.0906 0.315, -0.8631 -0.0815 0.2756, -0.8631 -0.0815 0.315, -0.8702 -0.0736 0.2756, -0.8702 -0.0736 0.315, -0.8784 -0.0681 0.2756, -0.8784 -0.0681 0.315, -0.8873 -0.0649 0.2756, -0.8873 -0.0649 0.315, -0.8962 -0.1587 0.315, -0.8962 -0.1587 0.2756, -0.8852 -0.1575 0.2756, -0.8852 -0.1575 0.315, -0.8766 -0.1543 0.2756, -0.8766 -0.1543 0.315, -0.8694 -0.1494 0.2756, -0.8694 -0.1494 0.315, -0.8638 -0.1436 0.2756, -0.8638 -0.1436 0.315, -0.8589 -0.1354 0.2756, -0.8589 -0.1354 0.315, -0.8557 -0.1252 0.2756, -0.8557 -0.1252 0.315, -0.9244 -0.1523 0.2756, -0.9244 -0.1523 0.315, -0.9119 -0.157 0.2756, -0.9119 -0.157 0.315, -0.8286 -0.1573 0.315, -0.8286 -0.1702 0.315, -0.8286 -0.1573 0.2756, -0.8286 -0.1702 0.2756, -0.7681 -0.1702 0.315, -0.7681 -0.1702 0.2756, -0.7681 -0.0521 0.315, -0.7681 -0.0521 0.2756, -0.7839 -0.0521 0.315, -0.7839 -0.0521 0.2756, -0.7839 -0.1573 0.315, -0.7839 -0.1573 0.2756, -0.7839 -0.1573 0.2756
            ]
        }
        coordIndex [
            0,1,2,-1,2,1,3,-1,1,4,3,-1,3,4,5,-1,4,6,5,-1,5,6,7,-1,6,8,7,-1,7,8,9,-1,8,10,9,-1,9,10,11,-1,10,12,11,-1,11,12,13,-1,12,14,13,-1,13,14,15,-1,14,0,15,-1,15,0,2,-1,16,8,17,-1,17,8,6,-1,18,14,16,-1,16,14,12,-1,16,12,8,-1,8,12,10,-1,18,19,14,-1,14,19,20,-1,14,20,0,-1,0,20,21,-1,0,21,22,-1,22,23,0,-1,0,23,17,-1,0,17,1,-1,1,17,6,-1,1,6,4,-1,16,17,24,-1,24,17,25,-1,18,16,26,-1,26,16,24,-1,18,26,27,-1,18,27,19,-1,19,27,28,-1,19,28,20,-1,21,20,29,-1,29,20,28,-1,21,29,30,-1,21,30,22,-1,22,30,31,-1,22,31,23,-1,17,23,25,-1,25,23,31,-1,32,33,34,-1,34,33,35,-1,33,36,35,-1,35,36,37,-1,36,38,37,-1,37,38,39,-1,40,41,42,-1,40,42,43,-1,43,42,44,-1,43,44,45,-1,45,44,46,-1,45,46,47,-1,47,46,48,-1,47,48,49,-1,49,48,50,-1,49,50,51,-1,51,50,52,-1,51,52,53,-1,53,52,54,-1,53,54,55,-1,55,54,39,-1,55,39,38,-1,32,34,56,-1,32,56,57,-1,57,56,58,-1,57,58,59,-1,59,58,60,-1,59,60,61,-1,61,60,62,-1,61,62,63,-1,63,62,64,-1,63,64,65,-1,65,64,66,-1,65,66,67,-1,67,66,41,-1,67,41,40,-1,45,47,68,-1,68,47,49,-1,68,49,69,-1,69,49,51,-1,69,51,70,-1,70,51,53,-1,70,53,71,-1,71,53,55,-1,71,55,72,-1,72,55,38,-1,72,38,73,-1,73,38,36,-1,73,36,74,-1,74,36,33,-1,74,33,75,-1,75,33,32,-1,75,32,76,-1,76,32,57,-1,76,57,77,-1,77,57,59,-1,77,59,78,-1,78,59,61,-1,78,61,79,-1,79,61,63,-1,79,63,80,-1,80,63,65,-1,80,65,81,-1,81,65,67,-1,81,67,82,-1,82,67,40,-1,82,40,83,-1,83,40,43,-1,83,43,84,-1,84,43,45,-1,84,45,68,-1,72,73,85,-1,85,73,86,-1,72,85,87,-1,72,87,71,-1,71,87,88,-1,71,88,70,-1,70,88,89,-1,70,89,69,-1,69,89,90,-1,69,90,68,-1,68,90,91,-1,68,91,84,-1,84,91,92,-1,84,92,83,-1,83,92,93,-1,83,93,82,-1,82,93,94,-1,82,94,81,-1,81,94,95,-1,81,95,80,-1,80,95,96,-1,80,96,79,-1,79,96,97,-1,79,97,78,-1,78,97,98,-1,78,98,77,-1,77,98,99,-1,77,99,76,-1,76,99,100,-1,76,100,75,-1,74,75,101,-1,101,75,100,-1,73,74,86,-1,86,74,101,-1,102,103,104,-1,104,103,105,-1,103,106,105,-1,105,106,107,-1,106,108,107,-1,107,108,109,-1,108,110,109,-1,109,110,111,-1,110,112,111,-1,111,112,113,-1,112,114,113,-1,113,114,115,-1,114,116,115,-1,115,116,117,-1,116,118,117,-1,117,118,119,-1,118,120,119,-1,119,120,121,-1,120,122,121,-1,121,122,123,-1,122,124,123,-1,123,124,125,-1,124,102,125,-1,125,102,104,-1,106,103,102,-1,102,124,106,-1,106,124,122,-1,106,122,108,-1,112,110,114,-1,114,110,108,-1,114,108,116,-1,116,108,122,-1,116,122,118,-1,118,122,120,-1,126,127,128,-1,128,127,129,-1,130,131,132,-1,130,132,133,-1,133,132,134,-1,133,134,135,-1,135,134,129,-1,135,129,127,-1,136,137,138,-1,136,138,139,-1,139,138,140,-1,139,140,141,-1,141,140,142,-1,141,142,143,-1,143,142,144,-1,143,144,145,-1,145,144,146,-1,145,146,147,-1,147,146,148,-1,147,148,149,-1,149,148,131,-1,149,131,130,-1,150,151,152,-1,150,152,153,-1,153,152,154,-1,153,154,155,-1,155,154,156,-1,155,156,157,-1,157,156,158,-1,157,158,159,-1,159,158,160,-1,159,160,161,-1,161,160,162,-1,161,162,163,-1,163,162,137,-1,163,137,136,-1,164,165,166,-1,164,166,167,-1,167,166,151,-1,167,151,150,-1,164,168,165,-1,165,168,169,-1,170,171,172,-1,170,172,173,-1,173,172,169,-1,173,169,168,-1,174,175,176,-1,174,176,177,-1,177,176,178,-1,177,178,179,-1,179,178,180,-1,179,180,181,-1,181,180,182,-1,181,182,183,-1,183,182,184,-1,183,184,185,-1,185,184,186,-1,185,186,187,-1,187,186,171,-1,187,171,170,-1,188,189,190,-1,188,190,191,-1,191,190,192,-1,191,192,193,-1,193,192,194,-1,193,194,195,-1,195,194,196,-1,195,196,197,-1,197,196,198,-1,197,198,199,-1,199,198,200,-1,199,200,201,-1,201,200,175,-1,201,175,174,-1,126,128,202,-1,126,202,203,-1,203,202,204,-1,203,204,205,-1,205,204,189,-1,205,189,188,-1,191,130,188,-1,188,130,133,-1,188,133,205,-1,205,133,135,-1,205,135,203,-1,203,135,127,-1,203,127,126,-1,168,164,173,-1,173,164,167,-1,173,167,170,-1,170,167,150,-1,170,150,187,-1,187,150,153,-1,187,153,185,-1,185,153,155,-1,185,155,183,-1,183,155,157,-1,183,157,181,-1,181,157,159,-1,181,159,179,-1,179,159,161,-1,179,161,177,-1,177,161,163,-1,177,163,174,-1,174,163,136,-1,174,136,201,-1,201,136,139,-1,201,139,199,-1,199,139,141,-1,199,141,197,-1,197,141,143,-1,197,143,195,-1,195,143,145,-1,195,145,193,-1,193,145,147,-1,193,147,191,-1,191,147,149,-1,191,149,130,-1,206,207,208,-1,208,207,209,-1,207,210,209,-1,209,210,211,-1,210,212,211,-1,211,212,213,-1,212,214,213,-1,213,214,215,-1,214,216,215,-1,215,216,217,-1,216,206,217,-1,217,206,208,-1,214,212,216,-1,216,212,210,-1,216,210,206,-1,206,210,207,-1,
        ]
    }
}
Shape{
    appearance Appearance {
        material  Material 	{
            diffuseColor 0.20784313725490197 0.20784313725490197 0.20784313725490197
            specularColor 0.01568627450980392 0.01568627450980392 0.01568627450980392
            ambientIntensity 0.2
            transparency 0
            shininess 0.5
        }
    }
    geometry IndexedFaceSet {
        ccw TRUE
        solid FALSE
        coord DEF co Coordinate {
            point [
                -1.1723 -0.1241 0.2756, -1.2118 -0.1241 0.2756, -1.1899 -0.0748 0.2756, -1.194 -0.0748 0.2756, -1.191 -0.0707 0.2756, -1.1929 -0.0707 0.2756, -1.1918 -0.0665 0.2756, -1.1922 -0.0665 0.2756, -1.0519 -0.0651 0.2756, -1.0519 -0.1573 0.2756, -1.0693 -0.0651 0.2756, -1.0686 -0.1573 0.2756, -1.0811 -0.1561 0.2756, -1.1152 -0.11 0.2756, -1.1142 -0.0983 0.2756, -1.1115 -0.0889 0.2756, -1.0833 -0.0666 0.2756, -1.091 -0.153 0.2756, -1.0991 -0.1482 0.2756, -1.1057 -0.1417 0.2756, -1.1107 -0.1335 0.2756, -1.1141 -0.1224 0.2756, -1.1074 -0.0816 0.2756, -1.1016 -0.0755 0.2756, -1.093 -0.07 0.2756, -1.093 -0.07 0.2756
            ]
        }
        coordIndex [
            0,1,2,-1,2,1,3,-1,2,3,4,-1,4,3,5,-1,4,5,6,-1,6,5,7,-1,8,9,10,-1,10,9,11,-1,10,11,12,-1,13,14,10,-1,10,14,15,-1,10,15,16,-1,12,17,10,-1,10,17,18,-1,10,18,19,-1,19,20,10,-1,10,20,21,-1,10,21,13,-1,22,23,15,-1,15,23,24,-1,15,24,16,-1,
        ]
    }
}