#VRML V2.0 utf8
# 3D model generated by easyeda2kicad.py (https://github.com/uPesy/easyeda2kicad.py)

Shape{
    appearance Appearance {
        material  Material 	{
            diffuseColor 0.14901960784313725 0.14901960784313725 0.14901960784313725
            specularColor 0.07450980392156863 0.07450980392156863 0.07450980392156863
            ambientIntensity 0.2
            transparency 0
            shininess 0.5
        }
    }
    geometry IndexedFaceSet {
        ccw TRUE
        solid FALSE
        coord DEF co Coordinate {
            point [
                1.0236 0.3346 0.0, 0.5512 0.3346 0.0, 1.0236 0.4921 0.0, 0.5512 0.4921 0.0, 1.3386 0.4921 0.0, 1.811 0.4921 0.0, 1.3386 0.3346 0.0, 1.811 0.3346 0.0, -0.5512 0.3346 0.0, -1.0236 0.3346 0.0, -0.5512 0.4921 0.0, -1.0236 0.4921 0.0, -0.2362 0.4921 0.0, 0.2362 0.4921 0.0, -0.2362 0.3346 0.0, 0.2362 0.3346 0.0, -1.3386 0.3346 0.0, -1.811 0.3346 0.0, -1.3386 0.4921 0.0, -1.811 0.4921 0.0, 0.2362 -0.4921 0.0, -0.2362 -0.4921 0.0, 0.2362 -0.3346 0.0, -0.2362 -0.3346 0.0, 0.5512 -0.3346 0.0, 1.0236 -0.3346 0.0, 0.5512 -0.4921 0.0, 1.0236 -0.4921 0.0, -1.3386 -0.4921 0.0, -1.811 -0.4921 0.0, -1.3386 -0.3346 0.0, -1.811 -0.3346 0.0, -1.0236 -0.3346 0.0, -0.5512 -0.3346 0.0, -1.0236 -0.4921 0.0, -0.5512 -0.4921 0.0, 1.3386 -0.3346 0.0, 1.811 -0.3346 0.0, 1.3386 -0.4921 0.0, 1.811 -0.4921 0.0, 0.5512 0.3346 0.1969, 0.7874 0.3346 0.1969, 1.0236 0.3346 0.1969, 1.811 0.3346 0.1969, 1.5748 0.3346 0.1969, 1.3386 0.3346 0.1969, -0.5512 0.3346 0.1969, -1.0236 0.3346 0.1969, 0.2362 0.3346 0.1969, 0.1205 0.3346 0.1969, -0.1171 0.3346 0.1969, -0.2362 0.3346 0.1969, -1.811 0.3346 0.1969, -1.5748 0.3346 0.1969, -1.3386 0.3346 0.1969, -0.2362 -0.3346 0.1969, -0.1171 -0.3346 0.1969, 0.1205 -0.3346 0.1969, 0.2362 -0.3346 0.1969, 1.0236 -0.3346 0.1969, 0.7874 -0.3346 0.1969, 0.5512 -0.3346 0.1969, -1.811 -0.3346 0.1969, -1.5748 -0.3346 0.1969, -1.3386 -0.3346 0.1969, -1.0236 -0.3346 0.1969, -0.5512 -0.3346 0.1969, 1.811 -0.3346 0.1969, 1.5748 -0.3346 0.1969, 1.3386 -0.3346 0.1969, -2.126 0.3346 0.0, -2.4803 0.3346 0.0, -2.126 0.4921 0.0, -2.4803 0.4921 0.0, -2.126 -0.4921 0.0, -2.4803 -0.4921 0.0, -2.126 -0.3346 0.0, -2.4803 -0.3346 0.0, -2.4803 0.3346 0.1969, -2.2736 0.3346 0.1969, -2.126 0.3346 0.1969, -2.4803 -0.3346 0.1969, -2.2736 -0.3346 0.1969, -2.126 -0.3346 0.1969, 2.1654 -0.1969 1.6929, 2.0866 -0.1181 1.6142, 1.7717 -0.1969 1.6929, 1.8504 -0.1181 1.6142, 2.0866 0.1181 1.6142, 2.1654 0.1969 1.6929, 1.7717 0.1969 1.6929, 1.8504 0.1181 1.6142, 1.8504 0.1181 0.9055, 2.0866 0.1181 0.9055, 1.8504 -0.1181 0.9055, 2.0866 -0.1181 0.9055, 1.378 -0.1969 1.6929, 1.2992 -0.1181 1.6142, 0.9843 -0.1969 1.6929, 1.063 -0.1181 1.6142, 1.2992 0.1181 1.6142, 1.378 0.1969 1.6929, 0.9843 0.1969 1.6929, 1.063 0.1181 1.6142, 1.063 0.1181 0.9055, 1.2992 0.1181 0.9055, 1.063 -0.1181 0.9055, 1.2992 -0.1181 0.9055, 0.5906 -0.1969 1.6929, 0.5118 -0.1181 1.6142, 0.1969 -0.1969 1.6929, 0.2756 -0.1181 1.6142, 0.5118 0.1181 1.6142, 0.5906 0.1969 1.6929, 0.1969 0.1969 1.6929, 0.2756 0.1181 1.6142, 0.2756 0.1181 0.9055, 0.5118 0.1181 0.9055, 0.2756 -0.1181 0.9055, 0.5118 -0.1181 0.9055, -0.1969 -0.1969 1.6929, -0.2756 -0.1181 1.6142, -0.5906 -0.1969 1.6929, -0.5118 -0.1181 1.6142, -0.2756 0.1181 1.6142, -0.1969 0.1969 1.6929, -0.5906 0.1969 1.6929, -0.5118 0.1181 1.6142, -0.5118 0.1181 0.9055, -0.2756 0.1181 0.9055, -0.5118 -0.1181 0.9055, -0.2756 -0.1181 0.9055, 2.4803 -0.4921 1.6929, 2.4803 -0.3445 1.6929, 1.5748 -0.3445 1.6929, 1.5748 0.4921 1.6929, 2.4803 0.4921 1.6929, 0.7874 0.4921 1.6929, 0.7874 -0.3445 1.6929, 0.0 0.4921 1.6929, 0.0 -0.3445 1.6929, -0.7874 0.4921 1.6929, -0.7874 -0.3445 1.6929, -0.9843 0.1969 1.6929, -1.378 0.1969 1.6929, -1.5748 0.4921 1.6929, -1.378 -0.1969 1.6929, -1.5748 -0.3445 1.6929, -0.9843 -0.1969 1.6929, -2.1654 -0.1969 1.6929, -2.3228 -0.3445 1.6929, -1.7717 -0.1969 1.6929, -1.7717 0.1969 1.6929, -2.1654 0.1969 1.6929, -2.3228 0.4921 1.6929, -2.4803 0.4921 1.6929, -2.4803 -0.3445 1.6929, 1.5748 -0.4921 1.6929, 0.7874 -0.4921 1.6929, 0.0 -0.4921 1.6929, -0.7874 -0.4921 1.6929, -1.5748 -0.4921 1.6929, -2.3228 -0.4921 1.6929, -2.4803 -0.4921 1.6929, -0.4555 -0.038 0.1969, -0.4555 0.0953 0.1969, -0.3404 0.0953 0.1969, -2.126 0.3386 0.1969, -2.126 0.4921 0.1969, -1.811 0.4921 0.1969, -1.8701 0.1851 0.1969, -1.3386 0.3386 0.1969, -1.3386 0.4921 0.1969, -1.0236 0.4921 0.1969, 0.2362 0.3386 0.1969, 0.2362 0.4921 0.1969, 0.5512 0.4921 0.1969, 0.4921 0.1851 0.1969, 1.0236 0.3386 0.1969, 1.0236 0.4921 0.1969, 1.3386 0.4921 0.1969, 1.811 0.3386 0.1969, 1.811 0.4921 0.1969, 2.126 0.4921 0.1969, -0.0542 -0.2924 0.1969, -0.0542 -0.1743 0.1969, 0.1205 -0.1728 0.1969, -0.4926 -0.2546 0.1969, -0.4746 -0.2924 0.1969, -0.5336 -0.4921 0.1969, -0.4555 -0.4921 0.1969, -0.4631 -0.2924 0.1969, -0.4555 -0.1728 0.1969, -0.5191 -0.1743 0.1969, -0.5336 -0.1728 0.1969, -0.5512 -0.4921 0.1969, -0.5336 -0.2546 0.1969, -0.5206 -0.1743 0.1969, -0.5336 -0.2025 0.1969, -0.5751 -0.2924 0.1969, -1.0236 -0.4921 0.1969, -1.3386 -0.4921 0.1969, -2.2736 -0.1728 0.1969, -2.4803 -0.1728 0.1969, -1.811 -0.4921 0.1969, -2.126 -0.4921 0.1969, -1.5748 -0.1728 0.1969, -0.5636 -0.2924 0.1969, -0.5461 -0.2546 0.1969, -0.2006 -0.1728 0.1969, -0.2046 -0.1733 0.1969, -0.2511 -0.1728 0.1969, -0.2154 -0.177 0.1969, -0.2282 -0.1848 0.1969, -0.2355 -0.1916 0.1969, -0.239 -0.196 0.1969, -0.1347 -0.2279 0.1969, -0.1345 -0.2335 0.1969, -0.1868 -0.1834 0.1969, -0.2362 -0.4921 0.1969, -0.2511 -0.4921 0.1969, -0.239 -0.2707 0.1969, -0.2297 -0.2637 0.1969, -0.174 -0.1728 0.1969, -0.1171 -0.1728 0.1969, -0.1636 -0.1753 0.1969, -0.1511 -0.1816 0.1969, -0.1373 -0.2165 0.1969, -0.155 -0.2879 0.1969, -0.1436 -0.2797 0.1969, -0.1239 -0.2327 0.1969, -0.1258 -0.2166 0.1969, -0.1461 -0.2656 0.1969, -0.1547 -0.2734 0.1969, -0.2285 -0.2816 0.1969, -0.2163 -0.2893 0.1969, -0.2029 -0.2939 0.1969, -0.1389 -0.2748 0.1969, -0.1303 -0.2619 0.1969, -0.1255 -0.2483 0.1969, -0.2297 -0.2031 0.1969, -0.2202 -0.1939 0.1969, -0.2231 -0.2703 0.1969, -0.2091 -0.1877 0.1969, -0.2127 -0.2774 0.1969, -0.2013 -0.2817 0.1969, -0.1728 -0.1851 0.1969, -0.1607 -0.1898 0.1969, -0.136 -0.2465 0.1969, -0.1398 -0.2563 0.1969, -0.2039 -0.1858 0.1969, -0.1909 -0.1835 0.1969, -0.1781 -0.2827 0.1969, -0.1661 -0.2796 0.1969, -0.1306 -0.204 0.1969, -0.1388 -0.1924 0.1969, -0.1875 -0.2833 0.1969, -0.1499 -0.1974 0.1969, -0.1425 -0.206 0.1969, -0.1935 -0.2952 0.1969, -0.1876 -0.2955 0.1969, -0.1691 -0.2933 0.1969, -0.0648 -0.1743 0.1969, -0.0648 -0.2803 0.1969, -0.1102 -0.2803 0.1969, -0.1102 -0.2924 0.1969, 0.5512 -0.4921 0.1969, 0.2362 -0.4921 0.1969, 0.7874 -0.1728 0.1969, 1.5748 -0.1728 0.1969, 1.0236 -0.4921 0.1969, 1.3386 -0.4921 0.1969, 2.4803 -0.1728 0.1969, 2.126 -0.3346 0.1969, 2.4803 -0.3346 0.1969, 2.126 -0.4921 0.1969, 1.811 -0.4921 0.1969, 2.126 0.3346 0.1969, 2.4803 0.3346 0.1969, 2.0669 0.1851 0.1969, 2.4803 -0.038 0.1969, 2.0669 0.0953 0.1969, 1.5748 -0.038 0.1969, 2.126 0.3386 0.1969, 1.8701 0.1851 0.1969, 1.8701 0.0953 0.1969, 1.3386 0.3386 0.1969, 1.2795 0.1851 0.1969, 1.0827 0.1851 0.1969, 0.7874 -0.038 0.1969, 1.0827 0.0953 0.1969, 1.2795 0.0953 0.1969, 0.4921 0.0953 0.1969, 0.2953 0.0953 0.1969, 0.1205 -0.038 0.1969, 0.2953 0.1851 0.1969, 0.5512 0.3386 0.1969, -0.1171 -0.038 0.1969, -0.2511 0.3386 0.1969, -0.2362 0.3386 0.1969, -0.2362 0.4921 0.1969, -0.5512 0.3386 0.1969, -0.5336 0.3386 0.1969, -0.5336 -0.038 0.1969, -1.0827 0.1851 0.1969, -1.0827 0.0953 0.1969, -1.5748 -0.038 0.1969, -1.0236 0.3386 0.1969, -1.2795 0.1851 0.1969, -1.2795 0.0953 0.1969, -1.8701 0.0953 0.1969, -2.0669 0.0953 0.1969, -2.2736 -0.038 0.1969, -2.0669 0.1851 0.1969, -1.811 0.3386 0.1969, -2.4803 -0.038 0.1969, -0.2511 -0.038 0.1969, -0.1874 -0.1713 0.1969, -0.178 -0.1719 0.1969, -0.2953 0.0953 0.1969, -0.2953 0.1851 0.1969, -0.3404 -0.038 0.1969, -0.4921 0.0953 0.1969, -0.4921 0.1851 0.1969, -0.4555 0.1851 0.1969, -0.4555 0.3386 0.1969, -0.3404 0.3386 0.1969, -0.3404 0.1851 0.1969, -0.3404 -0.1728 0.1969, -0.3749 -0.1743 0.1969, -0.351 -0.1743 0.1969, -0.3938 -0.175 0.1969, -0.4123 -0.1786 0.1969, -0.4243 -0.1846 0.1969, -0.4416 -0.2638 0.1969, -0.4336 -0.276 0.1969, -0.4247 -0.2838 0.1969, -0.4159 -0.2884 0.1969, -0.4014 -0.2917 0.1969, -0.3404 -0.4921 0.1969, -0.3876 -0.2924 0.1969, -0.351 -0.2924 0.1969, -0.4329 -0.1921 0.1969, -0.4404 -0.2028 0.1969, -0.4454 -0.2151 0.1969, -0.4478 -0.2294 0.1969, -0.4479 -0.2349 0.1969, -0.4463 -0.2507 0.1969, -0.3298 -0.1864 0.1969, -0.2738 -0.1864 0.1969, -0.2738 -0.2228 0.1969, -0.3298 -0.2228 0.1969, -0.3298 -0.2349 0.1969, -0.2738 -0.2349 0.1969, -0.2738 -0.2803 0.1969, -0.3298 -0.2803 0.1969, -0.3298 -0.2924 0.1969, -0.2632 -0.2924 0.1969, -0.2632 -0.1743 0.1969, -0.3298 -0.1743 0.1969, -0.2511 0.4921 0.1969, -0.3404 0.4921 0.1969, -0.4555 0.4921 0.1969, -0.5336 0.4921 0.1969, -0.5512 0.4921 0.1969, 2.126 0.4921 0.0, 2.4803 0.4921 0.0, 2.126 0.3346 0.0, 2.4803 0.3346 0.0, 2.4803 -0.4921 0.0, 2.4803 -0.3346 0.0, 2.126 -0.4921 0.0, 2.126 -0.3346 0.0, -1.8504 0.1181 1.6142, -1.8504 0.1181 0.9055, -1.8504 -0.1181 1.6142, -1.8504 -0.1181 0.9055, -2.0866 -0.1181 1.6142, -2.0866 -0.1181 0.9055, -2.0866 0.1181 1.6142, -2.0866 0.1181 0.9055, -2.0866 0.1181 0.9055
            ]
        }
        coordIndex [
            0,1,2,-1,2,1,3,-1,4,5,6,-1,6,5,7,-1,8,9,10,-1,10,9,11,-1,12,13,14,-1,14,13,15,-1,16,17,18,-1,18,17,19,-1,20,21,22,-1,22,21,23,-1,24,25,26,-1,26,25,27,-1,28,29,30,-1,30,29,31,-1,32,33,34,-1,34,33,35,-1,36,37,38,-1,38,37,39,-1,40,1,41,-1,41,1,0,-1,41,0,42,-1,7,43,6,-1,6,43,44,-1,6,44,45,-1,46,47,8,-1,8,47,9,-1,15,48,49,-1,15,49,14,-1,14,49,50,-1,14,50,51,-1,52,17,53,-1,53,17,16,-1,53,16,54,-1,23,55,56,-1,23,56,22,-1,22,56,57,-1,22,57,58,-1,59,25,60,-1,60,25,24,-1,60,24,61,-1,31,62,30,-1,30,62,63,-1,30,63,64,-1,65,66,32,-1,32,66,33,-1,67,37,68,-1,68,37,36,-1,68,36,69,-1,70,71,72,-1,72,71,73,-1,74,75,76,-1,76,75,77,-1,78,71,79,-1,79,71,70,-1,79,70,80,-1,77,81,76,-1,76,81,82,-1,76,82,83,-1,84,85,86,-1,86,85,87,-1,85,84,88,-1,88,84,89,-1,90,91,89,-1,89,91,88,-1,86,87,90,-1,90,87,91,-1,91,92,88,-1,88,92,93,-1,92,94,93,-1,93,94,95,-1,87,94,91,-1,91,94,92,-1,85,95,87,-1,87,95,94,-1,88,93,85,-1,85,93,95,-1,96,97,98,-1,98,97,99,-1,97,96,100,-1,100,96,101,-1,102,103,101,-1,101,103,100,-1,98,99,102,-1,102,99,103,-1,103,104,100,-1,100,104,105,-1,104,106,105,-1,105,106,107,-1,99,106,103,-1,103,106,104,-1,97,107,99,-1,99,107,106,-1,100,105,97,-1,97,105,107,-1,108,109,110,-1,110,109,111,-1,109,108,112,-1,112,108,113,-1,114,115,113,-1,113,115,112,-1,110,111,114,-1,114,111,115,-1,115,116,112,-1,112,116,117,-1,116,118,117,-1,117,118,119,-1,111,118,115,-1,115,118,116,-1,109,119,111,-1,111,119,118,-1,112,117,109,-1,109,117,119,-1,120,121,122,-1,122,121,123,-1,121,120,124,-1,124,120,125,-1,126,127,125,-1,125,127,124,-1,122,123,126,-1,126,123,127,-1,127,128,124,-1,124,128,129,-1,128,130,129,-1,129,130,131,-1,123,130,127,-1,127,130,128,-1,121,131,123,-1,123,131,130,-1,124,129,121,-1,121,129,131,-1,132,133,134,-1,90,135,86,-1,86,135,134,-1,86,134,84,-1,84,134,133,-1,84,133,89,-1,89,133,136,-1,89,136,90,-1,90,136,135,-1,102,137,98,-1,98,137,138,-1,98,138,96,-1,96,138,134,-1,96,134,101,-1,101,134,135,-1,101,135,102,-1,102,135,137,-1,114,139,110,-1,110,139,140,-1,110,140,108,-1,108,140,138,-1,108,138,113,-1,113,138,137,-1,113,137,114,-1,114,137,139,-1,126,141,122,-1,122,141,142,-1,122,142,120,-1,120,142,140,-1,120,140,125,-1,125,140,139,-1,125,139,126,-1,126,139,141,-1,143,141,144,-1,144,141,145,-1,144,145,146,-1,146,145,147,-1,146,147,148,-1,148,147,142,-1,148,142,143,-1,143,142,141,-1,149,150,151,-1,151,150,147,-1,151,147,152,-1,152,147,145,-1,152,145,153,-1,153,145,154,-1,153,154,149,-1,149,154,150,-1,150,154,155,-1,150,155,156,-1,132,134,157,-1,157,134,138,-1,157,138,158,-1,158,138,140,-1,158,140,159,-1,159,140,142,-1,159,142,160,-1,160,142,147,-1,160,147,161,-1,161,147,150,-1,161,150,162,-1,162,150,156,-1,162,156,163,-1,164,165,166,-1,167,168,169,-1,52,53,170,-1,171,172,173,-1,174,175,176,-1,40,41,177,-1,178,179,180,-1,181,182,183,-1,184,185,186,-1,187,188,189,-1,189,188,190,-1,190,188,191,-1,190,191,192,-1,192,191,193,-1,192,193,194,-1,195,66,189,-1,189,66,196,-1,189,196,187,-1,193,197,194,-1,194,197,198,-1,194,198,199,-1,200,201,65,-1,65,201,64,-1,83,82,202,-1,202,82,81,-1,202,81,203,-1,62,204,205,-1,205,83,62,-1,62,83,202,-1,62,202,63,-1,63,202,206,-1,63,206,64,-1,64,206,194,-1,64,194,65,-1,65,194,199,-1,65,199,66,-1,66,199,207,-1,66,207,196,-1,196,207,208,-1,209,210,211,-1,211,210,212,-1,212,213,211,-1,211,213,214,-1,211,214,215,-1,216,217,218,-1,219,220,55,-1,55,220,211,-1,55,211,221,-1,221,211,215,-1,221,215,222,-1,223,224,225,-1,225,224,226,-1,216,218,227,-1,56,228,229,-1,230,231,224,-1,218,232,233,-1,221,234,55,-1,55,234,235,-1,55,235,236,-1,229,237,56,-1,56,237,238,-1,56,238,239,-1,215,240,222,-1,222,240,241,-1,222,241,242,-1,242,241,243,-1,242,243,244,-1,244,243,245,-1,218,246,247,-1,217,248,218,-1,218,248,249,-1,218,249,232,-1,250,251,252,-1,252,251,218,-1,252,218,253,-1,253,218,233,-1,231,254,224,-1,224,254,255,-1,224,255,226,-1,250,252,243,-1,243,252,256,-1,243,256,245,-1,247,257,218,-1,218,257,258,-1,218,258,227,-1,236,259,55,-1,55,259,260,-1,55,260,56,-1,56,260,261,-1,56,261,228,-1,186,185,224,-1,224,185,262,-1,224,262,263,-1,263,264,224,-1,224,264,56,-1,224,56,230,-1,230,56,239,-1,264,265,56,-1,56,265,184,-1,56,184,57,-1,57,184,186,-1,57,186,58,-1,61,266,267,-1,69,268,269,-1,267,58,61,-1,61,58,186,-1,61,186,60,-1,60,186,268,-1,60,268,59,-1,59,268,69,-1,59,69,270,-1,270,69,271,-1,269,272,273,-1,273,272,274,-1,275,276,273,-1,273,276,67,-1,273,67,269,-1,269,67,68,-1,269,68,69,-1,277,278,279,-1,279,278,280,-1,279,280,281,-1,281,280,282,-1,183,283,181,-1,181,283,277,-1,181,277,43,-1,43,277,279,-1,43,279,44,-1,44,279,284,-1,44,284,282,-1,282,284,285,-1,282,285,281,-1,180,286,178,-1,178,286,45,-1,178,45,42,-1,42,45,287,-1,42,287,41,-1,41,287,288,-1,41,288,289,-1,289,288,290,-1,289,290,282,-1,282,290,291,-1,282,291,44,-1,44,291,287,-1,44,287,45,-1,177,41,292,-1,292,41,289,-1,292,289,293,-1,293,289,294,-1,293,294,295,-1,295,49,177,-1,177,49,48,-1,177,48,40,-1,40,48,174,-1,40,174,296,-1,296,174,176,-1,295,294,49,-1,49,294,297,-1,49,297,50,-1,298,299,51,-1,299,298,300,-1,301,302,46,-1,46,302,303,-1,47,46,304,-1,304,46,303,-1,304,303,305,-1,305,303,306,-1,173,307,171,-1,171,307,47,-1,171,47,54,-1,54,47,304,-1,54,304,53,-1,53,304,308,-1,53,308,306,-1,306,308,309,-1,306,309,305,-1,170,53,310,-1,310,53,306,-1,310,306,311,-1,311,306,312,-1,311,312,313,-1,313,79,170,-1,170,79,80,-1,170,80,52,-1,52,80,167,-1,52,167,314,-1,314,167,169,-1,313,312,79,-1,79,312,315,-1,79,315,78,-1,316,317,209,-1,317,316,318,-1,318,316,297,-1,318,297,223,-1,316,319,320,-1,319,316,166,-1,166,316,321,-1,166,321,164,-1,165,164,322,-1,322,164,303,-1,322,303,323,-1,323,303,302,-1,323,302,324,-1,324,302,325,-1,324,325,326,-1,50,297,51,-1,51,297,316,-1,51,316,298,-1,298,316,320,-1,298,320,326,-1,326,320,327,-1,326,327,324,-1,192,328,329,-1,329,328,330,-1,329,331,192,-1,192,331,332,-1,192,332,333,-1,334,335,190,-1,190,335,336,-1,336,337,190,-1,190,337,338,-1,190,338,339,-1,339,338,340,-1,339,340,341,-1,333,342,192,-1,192,342,343,-1,192,343,344,-1,344,345,192,-1,192,345,346,-1,192,346,190,-1,190,346,347,-1,190,347,334,-1,348,349,350,-1,351,352,339,-1,350,351,348,-1,348,351,339,-1,348,339,328,-1,328,339,341,-1,328,341,330,-1,353,354,352,-1,352,354,355,-1,352,355,339,-1,339,355,356,-1,339,356,220,-1,220,356,357,-1,220,357,211,-1,211,357,358,-1,211,358,328,-1,328,358,359,-1,328,359,348,-1,209,211,316,-1,316,211,328,-1,316,328,321,-1,321,328,192,-1,321,192,164,-1,164,192,194,-1,164,194,303,-1,303,194,206,-1,303,206,306,-1,306,206,202,-1,306,202,312,-1,312,202,203,-1,312,203,315,-1,300,298,360,-1,360,298,326,-1,360,326,361,-1,361,326,325,-1,361,325,362,-1,362,325,302,-1,362,302,363,-1,363,302,301,-1,363,301,364,-1,223,297,224,-1,224,297,294,-1,224,294,186,-1,186,294,289,-1,186,289,268,-1,268,289,282,-1,268,282,269,-1,269,282,280,-1,269,280,272,-1,365,366,367,-1,367,366,368,-1,133,132,274,-1,274,132,369,-1,274,369,370,-1,368,366,278,-1,278,366,136,-1,278,136,280,-1,280,136,133,-1,280,133,272,-1,272,133,274,-1,180,179,155,-1,366,365,183,-1,182,5,4,-1,175,13,12,-1,4,180,182,-1,182,180,155,-1,182,155,183,-1,183,155,136,-1,183,136,366,-1,12,300,175,-1,175,300,155,-1,175,155,176,-1,176,155,179,-1,176,179,3,-1,3,179,2,-1,173,172,155,-1,364,10,11,-1,300,360,155,-1,155,360,361,-1,155,361,362,-1,11,173,364,-1,364,173,155,-1,364,155,363,-1,363,155,362,-1,72,73,168,-1,168,73,155,-1,168,155,169,-1,169,155,172,-1,169,172,19,-1,19,172,18,-1,77,75,81,-1,81,75,163,-1,81,163,203,-1,203,163,156,-1,203,156,315,-1,315,156,155,-1,315,155,78,-1,78,155,73,-1,78,73,71,-1,266,26,27,-1,270,271,132,-1,204,163,205,-1,205,163,75,-1,205,75,74,-1,21,20,219,-1,219,20,267,-1,371,369,275,-1,275,369,132,-1,275,132,276,-1,276,132,271,-1,276,271,39,-1,39,271,38,-1,29,28,204,-1,204,28,201,-1,204,201,163,-1,163,201,200,-1,34,35,200,-1,200,35,195,-1,200,195,163,-1,163,195,189,-1,189,190,163,-1,163,190,339,-1,163,339,220,-1,27,270,266,-1,266,270,132,-1,266,132,267,-1,267,132,163,-1,267,163,219,-1,219,163,220,-1,372,370,371,-1,371,370,369,-1,373,374,375,-1,375,374,376,-1,375,376,377,-1,377,376,378,-1,377,378,379,-1,379,378,380,-1,379,380,373,-1,373,380,374,-1,380,378,374,-1,374,378,376,-1,153,379,152,-1,152,379,373,-1,149,377,153,-1,153,377,379,-1,375,151,373,-1,373,151,152,-1,151,375,149,-1,149,375,377,-1,367,368,277,-1,277,368,278,-1,273,274,372,-1,372,274,370,-1,
        ]
    }
}
Shape{
    appearance Appearance {
        material  Material 	{
            diffuseColor 0.7529411764705882 0.7529411764705882 0.7529411764705882
            specularColor 0.3764705882352941 0.3764705882352941 0.3764705882352941
            ambientIntensity 0.2
            transparency 0
            shininess 0.5
        }
    }
    geometry IndexedFaceSet {
        ccw TRUE
        solid FALSE
        coord DEF co Coordinate {
            point [
                -2.0669 0.0394 -0.0684, -2.0669 0.1851 0.1969, -1.8701 0.0394 -0.0684, -1.8701 0.1851 0.1969, -2.0669 0.0394 -1.063, -1.8701 0.0394 -1.063, -2.0669 -0.0394 -1.063, -1.8701 -0.0394 -1.063, -2.0669 -0.0394 -0.0482, -1.8701 -0.0394 -0.0482, -2.0669 0.0953 0.1969, -1.8701 0.0953 0.1969, -0.5191 -0.1743 0.2362, -0.5206 -0.1743 0.2362, -0.5191 -0.1743 0.1969, -0.5206 -0.1743 0.1969, -0.5751 -0.2924 0.2362, -0.5751 -0.2924 0.1969, -0.5336 -0.2025 0.1969, -0.5636 -0.2924 0.2362, -0.5636 -0.2924 0.1969, -0.5461 -0.2546 0.2362, -0.5461 -0.2546 0.1969, -0.5336 -0.2546 0.1969, -0.4926 -0.2546 0.2362, -0.4926 -0.2546 0.1969, -0.4746 -0.2924 0.2362, -0.4746 -0.2924 0.1969, -0.4631 -0.2924 0.2362, -0.4631 -0.2924 0.1969, -0.5406 -0.2425 0.2362, -0.4983 -0.2425 0.2362, -0.5197 -0.1973 0.2362, -0.5406 -0.2425 0.1969, -0.5197 -0.1973 0.1969, -0.4983 -0.2425 0.1969, -0.3876 -0.2924 0.2362, -0.351 -0.2924 0.2362, -0.3876 -0.2924 0.1969, -0.351 -0.2924 0.1969, -0.351 -0.1743 0.2362, -0.351 -0.1743 0.1969, -0.3749 -0.1743 0.2362, -0.3749 -0.1743 0.1969, -0.4123 -0.1786 0.2362, -0.4123 -0.1786 0.1969, -0.3938 -0.175 0.1969, -0.3938 -0.175 0.2362, -0.4479 -0.2349 0.2362, -0.4479 -0.2349 0.1969, -0.4457 -0.2163 0.1969, -0.4457 -0.2163 0.2362, -0.4336 -0.1929 0.1969, -0.4336 -0.1929 0.2362, -0.4004 -0.2918 0.1969, -0.4004 -0.2918 0.2362, -0.4241 -0.2842 0.1969, -0.4241 -0.2842 0.2362, -0.4413 -0.2646 0.1969, -0.4413 -0.2646 0.2362, -0.4355 -0.2495 0.2362, -0.4258 -0.2668 0.2362, -0.4089 -0.2773 0.2362, -0.3922 -0.2798 0.2362, -0.3752 -0.2803 0.2362, -0.3616 -0.2803 0.2362, -0.3616 -0.1864 0.2362, -0.3699 -0.1864 0.2362, -0.3882 -0.187 0.2362, -0.4062 -0.1897 0.2362, -0.4193 -0.196 0.2362, -0.4322 -0.2113 0.2362, -0.4373 -0.2348 0.2362, -0.3616 -0.1864 0.1969, -0.3616 -0.2803 0.1969, -0.3699 -0.1864 0.1969, -0.3882 -0.187 0.1969, -0.4062 -0.1897 0.1969, -0.4193 -0.196 0.1969, -0.4322 -0.2113 0.1969, -0.4373 -0.2348 0.1969, -0.4355 -0.2495 0.1969, -0.4258 -0.2668 0.1969, -0.4089 -0.2773 0.1969, -0.3922 -0.2798 0.1969, -0.3752 -0.2803 0.1969, -0.2632 -0.2924 0.2362, -0.2632 -0.1743 0.2362, -0.2632 -0.2924 0.1969, -0.2632 -0.1743 0.1969, -0.3298 -0.1743 0.2362, -0.3298 -0.1743 0.1969, -0.3298 -0.1864 0.2362, -0.3298 -0.1864 0.1969, -0.2738 -0.1864 0.2362, -0.2738 -0.1864 0.1969, -0.2738 -0.2228 0.2362, -0.2738 -0.2228 0.1969, -0.3298 -0.2228 0.2362, -0.3298 -0.2228 0.1969, -0.3298 -0.2349 0.2362, -0.3298 -0.2349 0.1969, -0.2738 -0.2349 0.2362, -0.2738 -0.2349 0.1969, -0.2738 -0.2803 0.2362, -0.2738 -0.2803 0.1969, -0.3298 -0.2803 0.2362, -0.3298 -0.2803 0.1969, -0.3298 -0.2924 0.2362, -0.3298 -0.2924 0.1969, -0.1874 -0.1713 0.1969, -0.1874 -0.1713 0.2362, -0.1946 -0.1728 0.1969, -0.2162 -0.1774 0.2362, -0.2162 -0.1774 0.1969, -0.2283 -0.1848 0.2362, -0.2283 -0.1848 0.1969, -0.2352 -0.1914 0.2362, -0.2352 -0.1914 0.1969, -0.239 -0.196 0.2362, -0.239 -0.196 0.1969, -0.2297 -0.2031 0.2362, -0.2297 -0.2031 0.1969, -0.1868 -0.1834 0.2362, -0.1868 -0.1834 0.1969, -0.1916 -0.1836 0.1969, -0.1916 -0.1836 0.2362, -0.1994 -0.1847 0.1969, -0.1994 -0.1847 0.2362, -0.2105 -0.1883 0.1969, -0.2105 -0.1883 0.2362, -0.1345 -0.2335 0.2362, -0.1345 -0.2335 0.1969, -0.1347 -0.2287 0.1969, -0.1347 -0.2287 0.2362, -0.1423 -0.2064 0.1969, -0.1423 -0.2064 0.2362, -0.1606 -0.1899 0.1969, -0.1606 -0.1899 0.2362, -0.1875 -0.2833 0.2362, -0.1875 -0.2833 0.1969, -0.1801 -0.283 0.1969, -0.1801 -0.283 0.2362, -0.1569 -0.2749 0.1969, -0.1569 -0.2749 0.2362, -0.1406 -0.2578 0.1969, -0.1406 -0.2578 0.2362, -0.2297 -0.2637 0.2362, -0.2297 -0.2637 0.1969, -0.2108 -0.2783 0.1969, -0.2108 -0.2783 0.2362, -0.239 -0.2707 0.2362, -0.239 -0.2707 0.1969, -0.1876 -0.2955 0.2362, -0.1876 -0.2955 0.1969, -0.1935 -0.2952 0.1969, -0.1935 -0.2952 0.2362, -0.2029 -0.2939 0.1969, -0.2029 -0.2939 0.2362, -0.2163 -0.2893 0.1969, -0.2163 -0.2893 0.2362, -0.1389 -0.2748 0.2362, -0.1389 -0.2748 0.1969, -0.1426 -0.2788 0.1969, -0.1426 -0.2788 0.2362, -0.1493 -0.2844 0.1969, -0.1493 -0.2844 0.2362, -0.1608 -0.2907 0.1969, -0.1608 -0.2907 0.2362, -0.1239 -0.2327 0.2362, -0.1239 -0.2327 0.1969, -0.1275 -0.2551 0.1969, -0.1275 -0.2551 0.2362, -0.1822 -0.1715 0.1969, -0.1822 -0.1715 0.2362, -0.178 -0.1728 0.1969, -0.1517 -0.1812 0.2362, -0.1517 -0.1812 0.1969, -0.1315 -0.2025 0.1969, -0.1315 -0.2025 0.2362, -0.0542 -0.2924 0.2362, -0.0542 -0.1743 0.2362, -0.0542 -0.2924 0.1969, -0.0542 -0.1743 0.1969, -0.0648 -0.1743 0.2362, -0.0648 -0.1743 0.1969, -0.0648 -0.2803 0.2362, -0.0648 -0.2803 0.1969, -0.1102 -0.2803 0.2362, -0.1102 -0.2803 0.1969, -0.1102 -0.2924 0.2362, -0.1102 -0.2924 0.1969, -0.1102 -0.2924 0.1969
            ]
        }
        coordIndex [
            0,1,2,-1,2,1,3,-1,4,0,5,-1,5,0,2,-1,6,4,7,-1,7,4,5,-1,8,6,9,-1,9,6,7,-1,10,8,11,-1,11,8,9,-1,4,6,0,-1,0,6,8,-1,0,8,1,-1,1,8,10,-1,3,11,2,-1,2,11,9,-1,2,9,5,-1,5,9,7,-1,12,13,14,-1,14,13,15,-1,16,17,13,-1,13,17,18,-1,13,18,15,-1,16,19,17,-1,17,19,20,-1,19,21,20,-1,20,21,22,-1,22,21,23,-1,23,21,24,-1,23,24,25,-1,24,26,25,-1,25,26,27,-1,26,28,27,-1,27,28,29,-1,28,12,29,-1,29,12,14,-1,30,16,13,-1,12,31,13,-1,13,31,32,-1,13,32,30,-1,28,26,24,-1,19,16,21,-1,21,16,30,-1,21,30,24,-1,24,30,31,-1,24,31,28,-1,28,31,12,-1,30,32,33,-1,33,32,34,-1,31,30,35,-1,35,30,33,-1,32,31,34,-1,34,31,35,-1,36,37,38,-1,38,37,39,-1,37,40,39,-1,39,40,41,-1,40,42,41,-1,41,42,43,-1,44,45,46,-1,44,46,47,-1,47,46,43,-1,47,43,42,-1,48,49,50,-1,48,50,51,-1,51,50,52,-1,51,52,53,-1,53,52,45,-1,53,45,44,-1,36,38,54,-1,36,54,55,-1,55,54,56,-1,55,56,57,-1,57,56,58,-1,57,58,59,-1,59,58,49,-1,59,49,48,-1,60,61,57,-1,57,61,62,-1,57,62,55,-1,55,62,63,-1,55,63,36,-1,36,63,64,-1,36,64,37,-1,37,64,65,-1,37,65,40,-1,40,65,66,-1,40,66,42,-1,42,66,67,-1,42,67,47,-1,47,67,68,-1,47,68,44,-1,44,68,69,-1,44,69,53,-1,53,69,70,-1,53,70,51,-1,51,70,71,-1,51,71,48,-1,48,71,72,-1,48,72,59,-1,59,72,60,-1,59,60,57,-1,66,65,73,-1,73,65,74,-1,67,66,75,-1,75,66,73,-1,67,75,76,-1,67,76,68,-1,68,76,77,-1,68,77,69,-1,69,77,78,-1,69,78,70,-1,70,78,79,-1,70,79,71,-1,71,79,80,-1,71,80,72,-1,72,80,81,-1,72,81,60,-1,60,81,82,-1,60,82,61,-1,61,82,83,-1,61,83,62,-1,62,83,84,-1,62,84,63,-1,63,84,85,-1,63,85,64,-1,65,64,74,-1,74,64,85,-1,86,87,88,-1,88,87,89,-1,87,90,89,-1,89,90,91,-1,90,92,91,-1,91,92,93,-1,92,94,93,-1,93,94,95,-1,94,96,95,-1,95,96,97,-1,96,98,97,-1,97,98,99,-1,98,100,99,-1,99,100,101,-1,100,102,101,-1,101,102,103,-1,102,104,103,-1,103,104,105,-1,104,106,105,-1,105,106,107,-1,106,108,107,-1,107,108,109,-1,108,86,109,-1,109,86,88,-1,86,108,106,-1,106,104,86,-1,86,104,102,-1,86,102,87,-1,92,90,94,-1,94,90,87,-1,94,87,96,-1,96,87,102,-1,96,102,98,-1,98,102,100,-1,110,111,112,-1,112,111,113,-1,112,113,114,-1,114,113,115,-1,114,115,116,-1,116,115,117,-1,116,117,118,-1,118,117,119,-1,118,119,120,-1,119,121,120,-1,120,121,122,-1,123,124,125,-1,123,125,126,-1,126,125,127,-1,126,127,128,-1,128,127,129,-1,128,129,130,-1,130,129,122,-1,130,122,121,-1,131,132,133,-1,131,133,134,-1,134,133,135,-1,134,135,136,-1,136,135,137,-1,136,137,138,-1,138,137,124,-1,138,124,123,-1,139,140,141,-1,139,141,142,-1,142,141,143,-1,142,143,144,-1,144,143,145,-1,144,145,146,-1,146,145,132,-1,146,132,131,-1,147,148,149,-1,147,149,150,-1,150,149,140,-1,150,140,139,-1,147,151,148,-1,148,151,152,-1,153,154,155,-1,153,155,156,-1,156,155,157,-1,156,157,158,-1,158,157,159,-1,158,159,160,-1,160,159,152,-1,160,152,151,-1,161,162,163,-1,161,163,164,-1,164,163,165,-1,164,165,166,-1,166,165,167,-1,166,167,168,-1,168,167,154,-1,168,154,153,-1,169,170,171,-1,169,171,172,-1,172,171,162,-1,172,162,161,-1,111,110,173,-1,111,173,174,-1,174,173,175,-1,174,175,176,-1,175,177,176,-1,176,177,178,-1,176,178,179,-1,179,178,170,-1,179,170,169,-1,151,147,160,-1,160,147,150,-1,169,172,146,-1,146,172,144,-1,144,172,161,-1,144,161,164,-1,121,119,117,-1,121,117,130,-1,130,117,115,-1,130,115,113,-1,164,166,144,-1,144,166,168,-1,144,168,142,-1,142,168,153,-1,142,153,139,-1,139,153,156,-1,139,156,150,-1,150,156,158,-1,150,158,160,-1,146,131,169,-1,169,131,134,-1,169,134,179,-1,179,134,136,-1,179,136,176,-1,176,136,138,-1,176,138,174,-1,174,138,123,-1,174,123,111,-1,111,123,126,-1,111,126,113,-1,113,126,128,-1,113,128,130,-1,180,181,182,-1,182,181,183,-1,181,184,183,-1,183,184,185,-1,184,186,185,-1,185,186,187,-1,186,188,187,-1,187,188,189,-1,188,190,189,-1,189,190,191,-1,190,180,191,-1,191,180,182,-1,184,181,186,-1,186,181,180,-1,186,180,188,-1,188,180,190,-1,
        ]
    }
}
Shape{
    appearance Appearance {
        material  Material 	{
            diffuseColor 0.14901960784313725 0.14901960784313725 0.14901960784313725
            specularColor 0.07450980392156863 0.07450980392156863 0.07450980392156863
            ambientIntensity 0.2
            transparency 0
            shininess 0.5
        }
    }
    geometry IndexedFaceSet {
        ccw TRUE
        solid FALSE
        coord DEF co Coordinate {
            point [
                -0.5197 -0.1973 0.1969, -0.4983 -0.2425 0.1969, -0.5406 -0.2425 0.1969, -0.3616 -0.1864 0.1969, -0.3616 -0.2803 0.1969, -0.3699 -0.1864 0.1969, -0.3752 -0.2803 0.1969, -0.3882 -0.187 0.1969, -0.3922 -0.2798 0.1969, -0.4062 -0.1897 0.1969, -0.4089 -0.2773 0.1969, -0.4258 -0.2668 0.1969, -0.4355 -0.2495 0.1969, -0.4373 -0.2348 0.1969, -0.4322 -0.2113 0.1969, -0.4193 -0.196 0.1969, -1.063 0.1181 1.6142, -1.063 0.1181 0.9055, -1.063 -0.1181 1.6142, -1.063 -0.1181 0.9055, -1.2992 -0.1181 1.6142, -1.2992 -0.1181 0.9055, -1.2992 0.1181 1.6142, -1.2992 0.1181 0.9055, -1.378 -0.1969 1.6929, -1.378 0.1969 1.6929, -0.9843 0.1969 1.6929, -0.9843 -0.1969 1.6929, -0.9843 -0.1969 1.6929
            ]
        }
        coordIndex [
            0,1,2,-1,3,4,5,-1,5,4,6,-1,5,6,7,-1,7,6,8,-1,7,8,9,-1,10,11,8,-1,8,11,12,-1,8,12,13,-1,13,14,8,-1,8,14,15,-1,8,15,9,-1,16,17,18,-1,18,17,19,-1,18,19,20,-1,20,19,21,-1,20,21,22,-1,22,21,23,-1,23,21,17,-1,17,21,19,-1,22,23,16,-1,16,23,17,-1,24,20,25,-1,25,20,22,-1,25,22,26,-1,26,22,16,-1,18,27,16,-1,16,27,26,-1,27,18,24,-1,24,18,20,-1,
        ]
    }
}
Shape{
    appearance Appearance {
        material  Material 	{
            diffuseColor 0.7529411764705882 0.7529411764705882 0.7529411764705882
            specularColor 0.3764705882352941 0.3764705882352941 0.3764705882352941
            ambientIntensity 0.2
            transparency 0
            shininess 0.5
        }
    }
    geometry IndexedFaceSet {
        ccw TRUE
        solid FALSE
        coord DEF co Coordinate {
            point [
                -1.2795 0.0394 -0.0684, -1.2795 0.1851 0.1969, -1.0827 0.0394 -0.0684, -1.0827 0.1851 0.1969, -1.2795 0.0394 -1.063, -1.0827 0.0394 -1.063, -1.2795 -0.0394 -1.063, -1.0827 -0.0394 -1.063, -1.2795 -0.0394 -0.0482, -1.0827 -0.0394 -0.0482, -1.2795 0.0953 0.1969, -1.0827 0.0953 0.1969, -0.2953 0.1851 0.1969, -0.2953 0.0394 -0.0684, -0.3404 0.1851 0.1969, -0.4921 0.0394 -0.0684, -0.4555 0.1851 0.1969, -0.4921 0.1851 0.1969, -0.4921 0.0394 -1.063, -0.2953 0.0394 -1.063, -0.4921 -0.0394 -1.063, -0.2953 -0.0394 -1.063, -0.4921 -0.0394 -0.0482, -0.2953 -0.0394 -0.0482, -0.4921 0.0953 0.1969, -0.4555 0.0953 0.1969, -0.3404 0.0953 0.1969, -0.2953 0.0953 0.1969, 0.2953 0.0394 -0.0684, 0.2953 0.1851 0.1969, 0.4921 0.0394 -0.0684, 0.4921 0.1851 0.1969, 0.2953 0.0394 -1.063, 0.4921 0.0394 -1.063, 0.2953 -0.0394 -1.063, 0.4921 -0.0394 -1.063, 0.2953 -0.0394 -0.0482, 0.4921 -0.0394 -0.0482, 0.2953 0.0953 0.1969, 0.4921 0.0953 0.1969, 1.0827 0.0394 -0.0684, 1.0827 0.1851 0.1969, 1.2795 0.0394 -0.0684, 1.2795 0.1851 0.1969, 1.0827 0.0394 -1.063, 1.2795 0.0394 -1.063, 1.0827 -0.0394 -1.063, 1.2795 -0.0394 -1.063, 1.0827 -0.0394 -0.0482, 1.2795 -0.0394 -0.0482, 1.0827 0.0953 0.1969, 1.2795 0.0953 0.1969, 1.8701 0.0394 -0.0684, 1.8701 0.1851 0.1969, 2.0669 0.0394 -0.0684, 2.0669 0.1851 0.1969, 1.8701 0.0394 -1.063, 2.0669 0.0394 -1.063, 1.8701 -0.0394 -1.063, 2.0669 -0.0394 -1.063, 1.8701 -0.0394 -0.0482, 2.0669 -0.0394 -0.0482, 1.8701 0.0953 0.1969, 2.0669 0.0953 0.1969, 2.0669 0.0953 0.1969
            ]
        }
        coordIndex [
            0,1,2,-1,2,1,3,-1,4,0,5,-1,5,0,2,-1,6,4,7,-1,7,4,5,-1,8,6,9,-1,9,6,7,-1,10,8,11,-1,11,8,9,-1,4,6,0,-1,0,6,8,-1,0,8,1,-1,1,8,10,-1,3,11,2,-1,2,11,9,-1,2,9,5,-1,5,9,7,-1,12,13,14,-1,14,13,15,-1,14,15,16,-1,16,15,17,-1,18,15,19,-1,19,15,13,-1,20,18,21,-1,21,18,19,-1,22,20,23,-1,23,20,21,-1,24,22,25,-1,25,22,23,-1,25,23,26,-1,26,23,27,-1,18,20,15,-1,15,20,22,-1,15,22,17,-1,17,22,24,-1,12,27,13,-1,13,27,23,-1,13,23,19,-1,19,23,21,-1,28,29,30,-1,30,29,31,-1,32,28,33,-1,33,28,30,-1,34,32,35,-1,35,32,33,-1,36,34,37,-1,37,34,35,-1,38,36,39,-1,39,36,37,-1,32,34,28,-1,28,34,36,-1,28,36,29,-1,29,36,38,-1,31,39,30,-1,30,39,37,-1,30,37,33,-1,33,37,35,-1,40,41,42,-1,42,41,43,-1,44,40,45,-1,45,40,42,-1,46,44,47,-1,47,44,45,-1,48,46,49,-1,49,46,47,-1,50,48,51,-1,51,48,49,-1,44,46,40,-1,40,46,48,-1,40,48,41,-1,41,48,50,-1,43,51,42,-1,42,51,49,-1,42,49,45,-1,45,49,47,-1,52,53,54,-1,54,53,55,-1,56,52,57,-1,57,52,54,-1,58,56,59,-1,59,56,57,-1,60,58,61,-1,61,58,59,-1,62,60,63,-1,63,60,61,-1,56,58,52,-1,52,58,60,-1,52,60,53,-1,53,60,62,-1,55,63,54,-1,54,63,61,-1,54,61,57,-1,57,61,59,-1,
        ]
    }
}
Shape{
    appearance Appearance {
        material  Material 	{
            diffuseColor 0.14901960784313725 0.14901960784313725 0.14901960784313725
            specularColor 0.07450980392156863 0.07450980392156863 0.07450980392156863
            ambientIntensity 0.2
            transparency 0
            shininess 0.5
        }
    }
    geometry IndexedFaceSet {
        ccw TRUE
        solid FALSE
        coord DEF co Coordinate {
            point [
                -2.126 -0.3346 0.0, -2.126 -0.3346 0.1969, -2.126 -0.4921 0.0, -2.126 -0.4921 0.1969, -1.811 -0.4921 0.0, -1.811 -0.4921 0.1969, -1.811 -0.3346 0.0, -1.811 -0.3346 0.1969, -2.126 0.3346 0.1969, -2.126 0.3346 0.0, -2.126 0.3386 0.1969, -2.126 0.4921 0.0, -2.126 0.4921 0.1969, -1.811 0.4921 0.1969, -1.811 0.4921 0.0, -1.811 0.3386 0.1969, -1.811 0.3346 0.0, -1.811 0.3346 0.1969, 1.811 -0.3346 0.0, 1.811 -0.3346 0.1969, 1.811 -0.4921 0.0, 1.811 -0.4921 0.1969, 2.126 -0.4921 0.0, 2.126 -0.4921 0.1969, 2.126 -0.3346 0.0, 2.126 -0.3346 0.1969, -0.5512 -0.3346 0.0, -0.5512 -0.3346 0.1969, -0.5512 -0.4921 0.0, -0.5512 -0.4921 0.1969, -0.2362 -0.4921 0.0, -0.2362 -0.4921 0.1969, -0.2362 -0.3346 0.0, -0.2362 -0.3346 0.1969, -1.3386 -0.3346 0.0, -1.3386 -0.3346 0.1969, -1.3386 -0.4921 0.0, -1.3386 -0.4921 0.1969, -1.0236 -0.4921 0.0, -1.0236 -0.4921 0.1969, -1.0236 -0.3346 0.0, -1.0236 -0.3346 0.1969, 1.0236 -0.3346 0.0, 1.0236 -0.3346 0.1969, 1.0236 -0.4921 0.0, 1.0236 -0.4921 0.1969, 1.3386 -0.4921 0.0, 1.3386 -0.4921 0.1969, 1.3386 -0.3346 0.0, 1.3386 -0.3346 0.1969, 0.2362 -0.3346 0.0, 0.2362 -0.3346 0.1969, 0.2362 -0.4921 0.0, 0.2362 -0.4921 0.1969, 0.5512 -0.4921 0.0, 0.5512 -0.4921 0.1969, 0.5512 -0.3346 0.0, 0.5512 -0.3346 0.1969, -1.3386 0.3346 0.1969, -1.3386 0.3346 0.0, -1.3386 0.3386 0.1969, -1.3386 0.4921 0.0, -1.3386 0.4921 0.1969, -1.0236 0.4921 0.1969, -1.0236 0.4921 0.0, -1.0236 0.3386 0.1969, -1.0236 0.3346 0.0, -1.0236 0.3346 0.1969, 0.2362 0.3346 0.1969, 0.2362 0.3346 0.0, 0.2362 0.3386 0.1969, 0.2362 0.4921 0.0, 0.2362 0.4921 0.1969, 0.5512 0.4921 0.1969, 0.5512 0.4921 0.0, 0.5512 0.3386 0.1969, 0.5512 0.3346 0.0, 0.5512 0.3346 0.1969, -0.5512 0.3346 0.1969, -0.5512 0.3346 0.0, -0.5512 0.3386 0.1969, -0.5512 0.4921 0.0, -0.5512 0.4921 0.1969, -0.2362 0.4921 0.1969, -0.2362 0.4921 0.0, -0.2362 0.3386 0.1969, -0.2362 0.3346 0.0, -0.2362 0.3346 0.1969, 1.811 0.3346 0.1969, 1.811 0.3346 0.0, 1.811 0.3386 0.1969, 1.811 0.4921 0.0, 1.811 0.4921 0.1969, 2.126 0.4921 0.1969, 2.126 0.4921 0.0, 2.126 0.3386 0.1969, 2.126 0.3346 0.0, 2.126 0.3346 0.1969, 1.0236 0.3346 0.1969, 1.0236 0.3346 0.0, 1.0236 0.3386 0.1969, 1.0236 0.4921 0.0, 1.0236 0.4921 0.1969, 1.3386 0.4921 0.1969, 1.3386 0.4921 0.0, 1.3386 0.3386 0.1969, 1.3386 0.3346 0.0, 1.3386 0.3346 0.1969, 1.3386 0.3346 0.1969
            ]
        }
        coordIndex [
            0,1,2,-1,2,1,3,-1,4,5,6,-1,6,5,7,-1,8,9,10,-1,10,9,11,-1,10,11,12,-1,13,14,15,-1,15,14,16,-1,15,16,17,-1,18,19,20,-1,20,19,21,-1,22,23,24,-1,24,23,25,-1,26,27,28,-1,28,27,29,-1,30,31,32,-1,32,31,33,-1,34,35,36,-1,36,35,37,-1,38,39,40,-1,40,39,41,-1,42,43,44,-1,44,43,45,-1,46,47,48,-1,48,47,49,-1,50,51,52,-1,52,51,53,-1,54,55,56,-1,56,55,57,-1,58,59,60,-1,60,59,61,-1,60,61,62,-1,63,64,65,-1,65,64,66,-1,65,66,67,-1,68,69,70,-1,70,69,71,-1,70,71,72,-1,73,74,75,-1,75,74,76,-1,75,76,77,-1,78,79,80,-1,80,79,81,-1,80,81,82,-1,83,84,85,-1,85,84,86,-1,85,86,87,-1,88,89,90,-1,90,89,91,-1,90,91,92,-1,93,94,95,-1,95,94,96,-1,95,96,97,-1,98,99,100,-1,100,99,101,-1,100,101,102,-1,103,104,105,-1,105,104,106,-1,105,106,107,-1,
        ]
    }
}