%TF.GenerationSoftware,KiCad,Pcbnew,9.0.6*%
%TF.CreationDate,2026-02-06T04:29:02+09:00*%
%TF.ProjectId,zudo-bus,7a75646f-2d62-4757-932e-6b696361645f,rev?*%
%TF.SameCoordinates,Original*%
%TF.FileFunction,Profile,NP*%
%FSLAX46Y46*%
G04 Gerber Fmt 4.6, Leading zero omitted, Abs format (unit mm)*
G04 Created by KiCad (PCBNEW 9.0.6) date 2026-02-06 04:29:02*
%MOMM*%
%LPD*%
G01*
G04 APERTURE LIST*
%TA.AperFunction,Profile*%
%ADD10C,0.050000*%
%TD*%
G04 APERTURE END LIST*
D10*
X31500000Y-6000000D02*
X63500000Y-6000000D01*
X63500000Y0D01*
X65500000Y0D01*
X65500000Y-6000000D01*
X99500000Y-6000000D01*
X99500000Y0D01*
X101500000Y0D01*
X101500000Y-6000000D01*
X135500000Y-6000000D01*
X135500000Y0D01*
X137500000Y0D01*
X137500000Y-6000000D01*
X169500000Y-6000000D01*
X169500000Y0D01*
X200000000Y0D01*
X200000000Y-2000000D01*
X190000000Y-2000000D01*
X190000000Y-4000000D01*
X200000000Y-4000000D01*
X200000000Y-35000000D01*
X190000000Y-35000000D01*
X190000000Y-37000000D01*
X200000000Y-37000000D01*
X200000000Y-39000000D01*
X169500000Y-39000000D01*
X169250000Y-33000000D01*
X137250000Y-33000000D01*
X137500000Y-39000000D01*
X135500000Y-39000000D01*
X135500000Y-33000000D01*
X101500000Y-33000000D01*
X101500000Y-39000000D01*
X99500000Y-39000000D01*
X99500000Y-33000000D01*
X65500000Y-33000000D01*
X65500000Y-39000000D01*
X63500000Y-39000000D01*
X63500000Y-33000000D01*
X31500000Y-33000000D01*
X31500000Y-39000000D01*
X-3000000Y-39000000D01*
X-3000000Y0D01*
X31500000Y0D01*
X31500000Y-6000000D01*
M02*
