M48
; DRILL file {KiCad 9.0.6} date 2026-02-06T04:28:59+0900
; FORMAT={-:-/ absolute / metric / decimal}
; #@! TF.CreationDate,2026-02-06T04:28:59+09:00
; #@! TF.GenerationSoftware,Kicad,Pcbnew,9.0.6
; #@! TF.FileFunction,Plated,1,2,PTH
FMAT,2
METRIC
; #@! TA.AperFunction,Plated,PTH,ViaDrill
T1C0.300
; #@! TA.AperFunction,Plated,PTH,ViaDrill
T2C0.500
; #@! TA.AperFunction,Plated,PTH,ComponentDrill
T3C1.100
; #@! TA.AperFunction,Plated,PTH,ComponentDrill
T4C1.200
; #@! TA.AperFunction,Plated,PTH,ComponentDrill
T5C1.300
; #@! TA.AperFunction,Plated,PTH,ComponentDrill
T6C1.400
%
G90
G05
T1
X14.5Y-10.6
X18.5Y-11.75
X20.0Y-3.75
X21.95Y-10.6
X22.5Y-13.25
X23.25Y-3.75
X24.75Y-8.8
X26.25Y-5.25
X29.35Y-22.95
X29.8Y-19.9
X32.5Y-22.35
X33.9Y-17.9
X34.15Y-23.5
X38.55Y-17.4
X40.65Y-15.4
X41.783Y-16.203
X42.3Y-23.75
X43.8Y-17.4
X43.8Y-23.8
X44.93Y-15.05
X48.312Y-23.723
X50.32Y-16.37
X52.0Y-23.7
X56.4Y-18.3
X56.75Y-23.75
X68.6Y-28.45
X68.7Y-31.85
X72.45Y-17.399
X72.5Y-16.4
X74.53Y-16.4
X74.53Y-17.399
X76.5Y-15.25
X79.75Y-23.7
X79.78Y-17.4
X82.87Y-16.4
X83.95Y-23.7
X86.3Y-16.4
X88.066Y-23.698
X88.832Y-7.5
X92.9Y-18.3
X92.9Y-23.6
X104.65Y-28.55
X104.75Y-31.8
X108.61Y-16.4
X108.63Y-17.4
X110.6Y-16.4
X110.65Y-17.4
X112.65Y-15.2
X115.6Y-23.8
X115.61Y-17.33
X117.0Y-15.1
X118.7Y-16.41
X120.2Y-23.7
X122.35Y-16.4
X124.2Y-23.75
X124.86Y-7.5
X128.9Y-18.3
X128.95Y-23.7
X141.4Y-31.85
X141.45Y-28.55
X144.5Y-17.4
X144.52Y-16.4
X146.43Y-16.4
X146.48Y-17.4
X148.25Y-15.2
X151.35Y-23.9
X151.36Y-17.4
X153.1Y-15.2
X154.85Y-16.4
X155.9Y-23.85
X160.5Y-23.7
X160.81Y-7.48
X165.15Y-18.3
X165.15Y-23.75
X165.65Y-31.85
X166.5Y-7.5
X167.25Y-10.75
X167.25Y-18.35
X167.25Y-23.7
X168.4Y-29.1
X168.55Y-18.25
X168.55Y-23.6
T2
X10.63Y-2.45
X10.82Y-36.95
X12.74Y-16.02
X14.75Y-12.25
X22.35Y-14.55
X25.25Y-20.25
X25.75Y-22.25
X27.0Y-16.25
X27.0Y-23.0
T3
X37.62Y-10.52
X37.62Y-13.06
X37.62Y-25.94
X37.62Y-28.48
X40.16Y-10.52
X40.16Y-13.06
X40.16Y-25.94
X40.16Y-28.48
X42.7Y-10.52
X42.7Y-13.06
X42.7Y-25.94
X42.7Y-28.48
X45.24Y-10.52
X45.24Y-13.06
X45.24Y-25.94
X45.24Y-28.48
X47.78Y-10.52
X47.78Y-13.06
X47.78Y-25.94
X47.78Y-28.48
X50.32Y-10.52
X50.32Y-13.06
X50.32Y-25.94
X50.32Y-28.48
X52.86Y-10.52
X52.86Y-13.06
X52.86Y-25.94
X52.86Y-28.48
X55.4Y-10.52
X55.4Y-13.06
X55.4Y-25.94
X55.4Y-28.48
X73.593Y-10.52
X73.593Y-13.06
X73.593Y-25.94
X73.593Y-28.48
X76.132Y-10.52
X76.132Y-13.06
X76.132Y-25.94
X76.132Y-28.48
X78.672Y-10.52
X78.672Y-13.06
X78.672Y-25.94
X78.672Y-28.48
X81.212Y-10.52
X81.212Y-13.06
X81.212Y-25.94
X81.212Y-28.48
X83.752Y-10.52
X83.752Y-13.06
X83.752Y-25.94
X83.752Y-28.48
X86.292Y-10.52
X86.292Y-13.06
X86.292Y-25.94
X86.292Y-28.48
X88.832Y-10.52
X88.832Y-13.06
X88.832Y-25.94
X88.832Y-28.48
X91.373Y-10.52
X91.373Y-13.06
X91.373Y-25.94
X91.373Y-28.48
X109.593Y-10.52
X109.593Y-13.06
X109.593Y-25.94
X109.593Y-28.48
X112.132Y-10.52
X112.132Y-13.06
X112.132Y-25.94
X112.132Y-28.48
X114.672Y-10.52
X114.672Y-13.06
X114.672Y-25.94
X114.672Y-28.48
X117.212Y-10.52
X117.212Y-13.06
X117.212Y-25.94
X117.212Y-28.48
X119.752Y-10.52
X119.752Y-13.06
X119.752Y-25.94
X119.752Y-28.48
X122.292Y-10.52
X122.292Y-13.06
X122.292Y-25.94
X122.292Y-28.48
X124.832Y-10.52
X124.832Y-13.06
X124.832Y-25.94
X124.832Y-28.48
X127.372Y-10.52
X127.372Y-13.06
X127.372Y-25.94
X127.372Y-28.48
X145.58Y-10.52
X145.58Y-13.06
X145.58Y-25.94
X145.58Y-28.48
X148.12Y-10.52
X148.12Y-13.06
X148.12Y-25.94
X148.12Y-28.48
X150.66Y-10.52
X150.66Y-13.06
X150.66Y-25.94
X150.66Y-28.48
X153.2Y-10.52
X153.2Y-13.06
X153.2Y-25.94
X153.2Y-28.48
X155.74Y-10.52
X155.74Y-13.06
X155.74Y-25.94
X155.74Y-28.48
X158.28Y-10.52
X158.28Y-13.06
X158.28Y-25.94
X158.28Y-28.48
X160.82Y-10.52
X160.82Y-13.06
X160.82Y-25.94
X160.82Y-28.48
X163.36Y-10.52
X163.36Y-13.06
X163.36Y-25.94
X163.36Y-28.48
T4
X24.5Y-31.71
X24.5Y-34.25
X24.5Y-36.79
T5
X6.0Y-10.5
X6.0Y-15.58
X6.0Y-23.5
X6.0Y-28.58
T6
X179.552Y-7.72
X179.552Y-15.5
X179.552Y-23.5
X179.552Y-31.5
X184.632Y-7.72
X184.632Y-15.5
X184.632Y-23.5
X184.632Y-31.5
M30
