%TF.GenerationSoftware,KiCad,Pcbnew,9.0.6*%
%TF.CreationDate,2026-02-06T04:29:02+09:00*%
%TF.ProjectId,zudo-bus,7a75646f-2d62-4757-932e-6b696361645f,rev?*%
%TF.SameCoordinates,Original*%
%TF.FileFunction,Paste,Top*%
%TF.FilePolarity,Positive*%
%FSLAX46Y46*%
G04 Gerber Fmt 4.6, Leading zero omitted, Abs format (unit mm)*
G04 Created by KiCad (PCBNEW 9.0.6) date 2026-02-06 04:29:02*
%MOMM*%
%LPD*%
G01*
G04 APERTURE LIST*
G04 Aperture macros list*
%AMRoundRect*
0 Rectangle with rounded corners*
0 $1 Rounding radius*
0 $2 $3 $4 $5 $6 $7 $8 $9 X,Y pos of 4 corners*
0 Add a 4 corners polygon primitive as box body*
4,1,4,$2,$3,$4,$5,$6,$7,$8,$9,$2,$3,0*
0 Add four circle primitives for the rounded corners*
1,1,$1+$1,$2,$3*
1,1,$1+$1,$4,$5*
1,1,$1+$1,$6,$7*
1,1,$1+$1,$8,$9*
0 Add four rect primitives between the rounded corners*
20,1,$1+$1,$2,$3,$4,$5,0*
20,1,$1+$1,$4,$5,$6,$7,0*
20,1,$1+$1,$6,$7,$8,$9,0*
20,1,$1+$1,$8,$9,$2,$3,0*%
G04 Aperture macros list end*
%ADD10R,1.520000X1.680000*%
%ADD11R,0.800000X0.900000*%
%ADD12R,0.800000X0.800000*%
%ADD13R,1.130000X1.380000*%
%ADD14R,1.400000X1.200000*%
%ADD15R,1.410000X3.500000*%
%ADD16R,0.900000X1.000000*%
%ADD17R,3.500000X1.410000*%
%ADD18R,1.000000X1.200000*%
%ADD19R,1.200000X1.000000*%
%ADD20RoundRect,0.375000X-0.375000X0.625000X-0.375000X-0.625000X0.375000X-0.625000X0.375000X0.625000X0*%
%ADD21RoundRect,0.500000X-1.400000X0.500000X-1.400000X-0.500000X1.400000X-0.500000X1.400000X0.500000X0*%
%ADD22R,1.350000X1.410000*%
%ADD23R,1.380000X1.130000*%
%ADD24R,1.410000X1.350000*%
G04 APERTURE END LIST*
D10*
%TO.C,D7*%
X21210000Y-26930000D03*
X17290000Y-26930000D03*
%TD*%
D11*
%TO.C,C105*%
X37600000Y-15250000D03*
X39000000Y-15250000D03*
%TD*%
D12*
%TO.C,LED1/-12V*%
X25500000Y-10750000D03*
X27000000Y-10750000D03*
%TD*%
D11*
%TO.C,C102*%
X91350000Y-23600000D03*
X89950000Y-23600000D03*
%TD*%
D13*
%TO.C,R1*%
X28500000Y-8250000D03*
X26500000Y-8250000D03*
%TD*%
D11*
%TO.C,C104*%
X163400000Y-23800000D03*
X162000000Y-23800000D03*
%TD*%
%TO.C,C207*%
X119750000Y-15050000D03*
X118350000Y-15050000D03*
%TD*%
%TO.C,C205*%
X47800000Y-15150000D03*
X46400000Y-15150000D03*
%TD*%
%TO.C,C103*%
X127400000Y-23700000D03*
X126000000Y-23700000D03*
%TD*%
%TO.C,C108*%
X145590000Y-15150000D03*
X146990000Y-15150000D03*
%TD*%
%TO.C,C202*%
X81200000Y-23700000D03*
X82600000Y-23700000D03*
%TD*%
D14*
%TO.C,D1*%
X12640000Y-20660000D03*
X12640000Y-17260000D03*
%TD*%
D15*
%TO.C,F2*%
X6010000Y-4170000D03*
X2310000Y-4170000D03*
%TD*%
D11*
%TO.C,C206*%
X83750000Y-15150000D03*
X82350000Y-15150000D03*
%TD*%
D16*
%TO.C,LED2/+12V*%
X25250000Y-12750000D03*
X26950000Y-12750000D03*
%TD*%
D14*
%TO.C,D3*%
X8680000Y-2440000D03*
X8680000Y-5840000D03*
%TD*%
D17*
%TO.C,F1*%
X13930000Y-26860000D03*
X13930000Y-23160000D03*
%TD*%
D18*
%TO.C,D6*%
X16600000Y-36870000D03*
X13300000Y-36870000D03*
%TD*%
D10*
%TO.C,D8*%
X22140000Y-30310000D03*
X18220000Y-30310000D03*
%TD*%
D11*
%TO.C,C101*%
X55250000Y-23750000D03*
X53850000Y-23750000D03*
%TD*%
D19*
%TO.C,D2*%
X12750000Y-10600000D03*
X12750000Y-13900000D03*
%TD*%
D11*
%TO.C,C203*%
X117250000Y-23800000D03*
X118650000Y-23800000D03*
%TD*%
D18*
%TO.C,D4*%
X15970000Y-2050000D03*
X12670000Y-2050000D03*
%TD*%
D12*
%TO.C,LED3/+5V*%
X25500000Y-14750000D03*
X27000000Y-14750000D03*
%TD*%
D14*
%TO.C,D5*%
X8750000Y-33550000D03*
X8750000Y-36950000D03*
%TD*%
D20*
%TO.C,U1*%
X22350000Y-16520000D03*
X20050000Y-16520000D03*
D21*
X20050000Y-22820000D03*
D20*
X17750000Y-16520000D03*
%TD*%
D15*
%TO.C,F3*%
X2300000Y-35250000D03*
X6000000Y-35250000D03*
%TD*%
D22*
%TO.C,C2*%
X20500000Y-14000000D03*
X20500000Y-12000000D03*
%TD*%
D11*
%TO.C,C201*%
X45300000Y-23800000D03*
X46700000Y-23800000D03*
%TD*%
D17*
%TO.C,F4*%
X27500000Y-28500000D03*
X27500000Y-24800000D03*
%TD*%
D11*
%TO.C,C208*%
X155750000Y-15200000D03*
X154350000Y-15200000D03*
%TD*%
%TO.C,C204*%
X153200000Y-23900000D03*
X154600000Y-23900000D03*
%TD*%
D23*
%TO.C,R3*%
X25250000Y-16750000D03*
X25250000Y-18750000D03*
%TD*%
D24*
%TO.C,C1*%
X17750000Y-14000000D03*
X15750000Y-14000000D03*
%TD*%
D11*
%TO.C,C106*%
X73600000Y-15200000D03*
X75000000Y-15200000D03*
%TD*%
D23*
%TO.C,R2*%
X27500000Y-18000000D03*
X27500000Y-20000000D03*
%TD*%
D11*
%TO.C,C107*%
X109590000Y-15200000D03*
X110990000Y-15200000D03*
%TD*%
M02*
