%TF.GenerationSoftware,KiCad,Pcbnew,9.0.6*%
%TF.CreationDate,2026-02-06T04:29:02+09:00*%
%TF.ProjectId,zudo-bus,7a75646f-2d62-4757-932e-6b696361645f,rev?*%
%TF.SameCoordinates,Original*%
%TF.FileFunction,Soldermask,Bot*%
%TF.FilePolarity,Negative*%
%FSLAX46Y46*%
G04 Gerber Fmt 4.6, Leading zero omitted, Abs format (unit mm)*
G04 Created by KiCad (PCBNEW 9.0.6) date 2026-02-06 04:29:02*
%MOMM*%
%LPD*%
G01*
G04 APERTURE LIST*
%ADD10R,1.780000X1.800000*%
%ADD11C,1.800000*%
%ADD12R,2.200000X2.200000*%
%ADD13C,2.200000*%
%ADD14C,3.200000*%
%ADD15C,2.000000*%
%ADD16R,1.800000X1.570000*%
G04 APERTURE END LIST*
D10*
%TO.C,J104*%
X145580000Y-28480000D03*
D11*
X145580000Y-25940000D03*
X148120000Y-28480000D03*
X148120000Y-25940000D03*
X150660000Y-28480000D03*
X150660000Y-25940000D03*
X153200000Y-28480000D03*
X153200000Y-25940000D03*
X155740000Y-28480000D03*
X155740000Y-25940000D03*
X158280000Y-28480000D03*
X158280000Y-25940000D03*
X160820000Y-28480000D03*
X160820000Y-25940000D03*
X163360000Y-28480000D03*
X163360000Y-25940000D03*
%TD*%
D10*
%TO.C,J105*%
X55400000Y-10520000D03*
D11*
X55400000Y-13060000D03*
X52860000Y-10520000D03*
X52860000Y-13060000D03*
X50320000Y-10520000D03*
X50320000Y-13060000D03*
X47780000Y-10520000D03*
X47780000Y-13060000D03*
X45240000Y-10520000D03*
X45240000Y-13060000D03*
X42700000Y-10520000D03*
X42700000Y-13060000D03*
X40160000Y-10520000D03*
X40160000Y-13060000D03*
X37620000Y-10520000D03*
X37620000Y-13060000D03*
%TD*%
D10*
%TO.C,J108*%
X163360000Y-10520000D03*
D11*
X163360000Y-13060000D03*
X160820000Y-10520000D03*
X160820000Y-13060000D03*
X158280000Y-10520000D03*
X158280000Y-13060000D03*
X155740000Y-10520000D03*
X155740000Y-13060000D03*
X153200000Y-10520000D03*
X153200000Y-13060000D03*
X150660000Y-10520000D03*
X150660000Y-13060000D03*
X148120000Y-10520000D03*
X148120000Y-13060000D03*
X145580000Y-10520000D03*
X145580000Y-13060000D03*
%TD*%
D10*
%TO.C,J107*%
X127372500Y-10520000D03*
D11*
X127372500Y-13060000D03*
X124832500Y-10520000D03*
X124832500Y-13060000D03*
X122292500Y-10520000D03*
X122292500Y-13060000D03*
X119752500Y-10520000D03*
X119752500Y-13060000D03*
X117212500Y-10520000D03*
X117212500Y-13060000D03*
X114672500Y-10520000D03*
X114672500Y-13060000D03*
X112132500Y-10520000D03*
X112132500Y-13060000D03*
X109592500Y-10520000D03*
X109592500Y-13060000D03*
%TD*%
D10*
%TO.C,J103*%
X109592500Y-28480000D03*
D11*
X109592500Y-25940000D03*
X112132500Y-28480000D03*
X112132500Y-25940000D03*
X114672500Y-28480000D03*
X114672500Y-25940000D03*
X117212500Y-28480000D03*
X117212500Y-25940000D03*
X119752500Y-28480000D03*
X119752500Y-25940000D03*
X122292500Y-28480000D03*
X122292500Y-25940000D03*
X124832500Y-28480000D03*
X124832500Y-25940000D03*
X127372500Y-28480000D03*
X127372500Y-25940000D03*
%TD*%
D10*
%TO.C,J102*%
X73592500Y-28480000D03*
D11*
X73592500Y-25940000D03*
X76132500Y-28480000D03*
X76132500Y-25940000D03*
X78672500Y-28480000D03*
X78672500Y-25940000D03*
X81212500Y-28480000D03*
X81212500Y-25940000D03*
X83752500Y-28480000D03*
X83752500Y-25940000D03*
X86292500Y-28480000D03*
X86292500Y-25940000D03*
X88832500Y-28480000D03*
X88832500Y-25940000D03*
X91372500Y-28480000D03*
X91372500Y-25940000D03*
%TD*%
D10*
%TO.C,J106*%
X91372500Y-10520000D03*
D11*
X91372500Y-13060000D03*
X88832500Y-10520000D03*
X88832500Y-13060000D03*
X86292500Y-10520000D03*
X86292500Y-13060000D03*
X83752500Y-10520000D03*
X83752500Y-13060000D03*
X81212500Y-10520000D03*
X81212500Y-13060000D03*
X78672500Y-10520000D03*
X78672500Y-13060000D03*
X76132500Y-10520000D03*
X76132500Y-13060000D03*
X73592500Y-10520000D03*
X73592500Y-13060000D03*
%TD*%
D10*
%TO.C,J101*%
X37620000Y-28480000D03*
D11*
X37620000Y-25940000D03*
X40160000Y-28480000D03*
X40160000Y-25940000D03*
X42700000Y-28480000D03*
X42700000Y-25940000D03*
X45240000Y-28480000D03*
X45240000Y-25940000D03*
X47780000Y-28480000D03*
X47780000Y-25940000D03*
X50320000Y-28480000D03*
X50320000Y-25940000D03*
X52860000Y-28480000D03*
X52860000Y-25940000D03*
X55400000Y-28480000D03*
X55400000Y-25940000D03*
%TD*%
D12*
%TO.C,P3*%
X179552500Y-31500000D03*
D13*
X184632500Y-31500000D03*
%TD*%
D12*
%TO.C,P4*%
X179552500Y-23500000D03*
D13*
X184632500Y-23500000D03*
%TD*%
D12*
%TO.C,P5*%
X179552500Y-15500000D03*
D13*
X184632500Y-15500000D03*
%TD*%
D12*
%TO.C,P6*%
X179552500Y-7720000D03*
D13*
X184632500Y-7720000D03*
%TD*%
D14*
%TO.C,REF\u002A\u002A*%
X14750000Y-32000000D03*
%TD*%
D15*
%TO.C,P2*%
X6000000Y-28580000D03*
X6000000Y-23500000D03*
%TD*%
D14*
%TO.C,REF\u002A\u002A*%
X100500000Y-26500000D03*
%TD*%
D16*
%TO.C,JP1*%
X24500000Y-31710000D03*
D11*
X24500000Y-34250000D03*
X24500000Y-36790000D03*
%TD*%
D14*
%TO.C,REF\u002A\u002A*%
X64500000Y-26500000D03*
%TD*%
%TO.C,REF\u002A\u002A*%
X14750000Y-7000000D03*
%TD*%
%TO.C,REF\u002A\u002A*%
X136500000Y-26500000D03*
%TD*%
%TO.C,REF\u002A\u002A*%
X64500000Y-12500000D03*
%TD*%
%TO.C,REF\u002A\u002A*%
X174250000Y-32000000D03*
%TD*%
%TO.C,REF\u002A\u002A*%
X136500000Y-12500000D03*
%TD*%
D15*
%TO.C,P1*%
X6000000Y-15580000D03*
X6000000Y-10500000D03*
%TD*%
D14*
%TO.C,REF\u002A\u002A*%
X100500000Y-12500000D03*
%TD*%
%TO.C,REF\u002A\u002A*%
X174250000Y-7000000D03*
%TD*%
M02*
