%TF.GenerationSoftware,KiCad,Pcbnew,9.0.6*%
%TF.CreationDate,2026-02-06T04:29:02+09:00*%
%TF.ProjectId,zudo-bus,7a75646f-2d62-4757-932e-6b696361645f,rev?*%
%TF.SameCoordinates,Original*%
%TF.FileFunction,Soldermask,Top*%
%TF.FilePolarity,Negative*%
%FSLAX46Y46*%
G04 Gerber Fmt 4.6, Leading zero omitted, Abs format (unit mm)*
G04 Created by KiCad (PCBNEW 9.0.6) date 2026-02-06 04:29:02*
%MOMM*%
%LPD*%
G01*
G04 APERTURE LIST*
G04 Aperture macros list*
%AMRoundRect*
0 Rectangle with rounded corners*
0 $1 Rounding radius*
0 $2 $3 $4 $5 $6 $7 $8 $9 X,Y pos of 4 corners*
0 Add a 4 corners polygon primitive as box body*
4,1,4,$2,$3,$4,$5,$6,$7,$8,$9,$2,$3,0*
0 Add four circle primitives for the rounded corners*
1,1,$1+$1,$2,$3*
1,1,$1+$1,$4,$5*
1,1,$1+$1,$6,$7*
1,1,$1+$1,$8,$9*
0 Add four rect primitives between the rounded corners*
20,1,$1+$1,$2,$3,$4,$5,0*
20,1,$1+$1,$4,$5,$6,$7,0*
20,1,$1+$1,$6,$7,$8,$9,0*
20,1,$1+$1,$8,$9,$2,$3,0*%
G04 Aperture macros list end*
%ADD10R,1.780000X1.800000*%
%ADD11C,1.800000*%
%ADD12R,2.200000X2.200000*%
%ADD13C,2.200000*%
%ADD14R,1.520000X1.680000*%
%ADD15R,0.800000X0.900000*%
%ADD16R,0.800000X0.800000*%
%ADD17R,1.130000X1.380000*%
%ADD18C,3.200000*%
%ADD19C,1.500000*%
%ADD20R,1.400000X1.200000*%
%ADD21R,1.410000X3.500000*%
%ADD22C,2.000000*%
%ADD23R,0.900000X1.000000*%
%ADD24R,3.500000X1.410000*%
%ADD25R,1.000000X1.200000*%
%ADD26R,1.800000X1.570000*%
%ADD27R,1.200000X1.000000*%
%ADD28RoundRect,0.375000X-0.375000X0.625000X-0.375000X-0.625000X0.375000X-0.625000X0.375000X0.625000X0*%
%ADD29RoundRect,0.500000X-1.400000X0.500000X-1.400000X-0.500000X1.400000X-0.500000X1.400000X0.500000X0*%
%ADD30R,1.350000X1.410000*%
%ADD31R,1.380000X1.130000*%
%ADD32R,1.410000X1.350000*%
G04 APERTURE END LIST*
D10*
%TO.C,J104*%
X145580000Y-28480000D03*
D11*
X145580000Y-25940000D03*
X148120000Y-28480000D03*
X148120000Y-25940000D03*
X150660000Y-28480000D03*
X150660000Y-25940000D03*
X153200000Y-28480000D03*
X153200000Y-25940000D03*
X155740000Y-28480000D03*
X155740000Y-25940000D03*
X158280000Y-28480000D03*
X158280000Y-25940000D03*
X160820000Y-28480000D03*
X160820000Y-25940000D03*
X163360000Y-28480000D03*
X163360000Y-25940000D03*
%TD*%
D10*
%TO.C,J105*%
X55400000Y-10520000D03*
D11*
X55400000Y-13060000D03*
X52860000Y-10520000D03*
X52860000Y-13060000D03*
X50320000Y-10520000D03*
X50320000Y-13060000D03*
X47780000Y-10520000D03*
X47780000Y-13060000D03*
X45240000Y-10520000D03*
X45240000Y-13060000D03*
X42700000Y-10520000D03*
X42700000Y-13060000D03*
X40160000Y-10520000D03*
X40160000Y-13060000D03*
X37620000Y-10520000D03*
X37620000Y-13060000D03*
%TD*%
D10*
%TO.C,J108*%
X163360000Y-10520000D03*
D11*
X163360000Y-13060000D03*
X160820000Y-10520000D03*
X160820000Y-13060000D03*
X158280000Y-10520000D03*
X158280000Y-13060000D03*
X155740000Y-10520000D03*
X155740000Y-13060000D03*
X153200000Y-10520000D03*
X153200000Y-13060000D03*
X150660000Y-10520000D03*
X150660000Y-13060000D03*
X148120000Y-10520000D03*
X148120000Y-13060000D03*
X145580000Y-10520000D03*
X145580000Y-13060000D03*
%TD*%
D10*
%TO.C,J107*%
X127372500Y-10520000D03*
D11*
X127372500Y-13060000D03*
X124832500Y-10520000D03*
X124832500Y-13060000D03*
X122292500Y-10520000D03*
X122292500Y-13060000D03*
X119752500Y-10520000D03*
X119752500Y-13060000D03*
X117212500Y-10520000D03*
X117212500Y-13060000D03*
X114672500Y-10520000D03*
X114672500Y-13060000D03*
X112132500Y-10520000D03*
X112132500Y-13060000D03*
X109592500Y-10520000D03*
X109592500Y-13060000D03*
%TD*%
D10*
%TO.C,J103*%
X109592500Y-28480000D03*
D11*
X109592500Y-25940000D03*
X112132500Y-28480000D03*
X112132500Y-25940000D03*
X114672500Y-28480000D03*
X114672500Y-25940000D03*
X117212500Y-28480000D03*
X117212500Y-25940000D03*
X119752500Y-28480000D03*
X119752500Y-25940000D03*
X122292500Y-28480000D03*
X122292500Y-25940000D03*
X124832500Y-28480000D03*
X124832500Y-25940000D03*
X127372500Y-28480000D03*
X127372500Y-25940000D03*
%TD*%
D10*
%TO.C,J102*%
X73592500Y-28480000D03*
D11*
X73592500Y-25940000D03*
X76132500Y-28480000D03*
X76132500Y-25940000D03*
X78672500Y-28480000D03*
X78672500Y-25940000D03*
X81212500Y-28480000D03*
X81212500Y-25940000D03*
X83752500Y-28480000D03*
X83752500Y-25940000D03*
X86292500Y-28480000D03*
X86292500Y-25940000D03*
X88832500Y-28480000D03*
X88832500Y-25940000D03*
X91372500Y-28480000D03*
X91372500Y-25940000D03*
%TD*%
D10*
%TO.C,J106*%
X91372500Y-10520000D03*
D11*
X91372500Y-13060000D03*
X88832500Y-10520000D03*
X88832500Y-13060000D03*
X86292500Y-10520000D03*
X86292500Y-13060000D03*
X83752500Y-10520000D03*
X83752500Y-13060000D03*
X81212500Y-10520000D03*
X81212500Y-13060000D03*
X78672500Y-10520000D03*
X78672500Y-13060000D03*
X76132500Y-10520000D03*
X76132500Y-13060000D03*
X73592500Y-10520000D03*
X73592500Y-13060000D03*
%TD*%
D10*
%TO.C,J101*%
X37620000Y-28480000D03*
D11*
X37620000Y-25940000D03*
X40160000Y-28480000D03*
X40160000Y-25940000D03*
X42700000Y-28480000D03*
X42700000Y-25940000D03*
X45240000Y-28480000D03*
X45240000Y-25940000D03*
X47780000Y-28480000D03*
X47780000Y-25940000D03*
X50320000Y-28480000D03*
X50320000Y-25940000D03*
X52860000Y-28480000D03*
X52860000Y-25940000D03*
X55400000Y-28480000D03*
X55400000Y-25940000D03*
%TD*%
D12*
%TO.C,P3*%
X179552500Y-31500000D03*
D13*
X184632500Y-31500000D03*
%TD*%
D12*
%TO.C,P4*%
X179552500Y-23500000D03*
D13*
X184632500Y-23500000D03*
%TD*%
D12*
%TO.C,P5*%
X179552500Y-15500000D03*
D13*
X184632500Y-15500000D03*
%TD*%
D12*
%TO.C,P6*%
X179552500Y-7720000D03*
D13*
X184632500Y-7720000D03*
%TD*%
D14*
%TO.C,D7*%
X21210000Y-26930000D03*
X17290000Y-26930000D03*
%TD*%
D15*
%TO.C,C105*%
X37600000Y-15250000D03*
X39000000Y-15250000D03*
%TD*%
D16*
%TO.C,LED1/-12V*%
X25500000Y-10750000D03*
X27000000Y-10750000D03*
%TD*%
D15*
%TO.C,C102*%
X91350000Y-23600000D03*
X89950000Y-23600000D03*
%TD*%
D17*
%TO.C,R1*%
X28500000Y-8250000D03*
X26500000Y-8250000D03*
%TD*%
D18*
%TO.C,REF\u002A\u002A*%
X14750000Y-32000000D03*
%TD*%
D15*
%TO.C,C104*%
X163400000Y-23800000D03*
X162000000Y-23800000D03*
%TD*%
%TO.C,C207*%
X119750000Y-15050000D03*
X118350000Y-15050000D03*
%TD*%
D19*
%TO.C,TP3*%
X20000000Y-36750000D03*
%TD*%
D15*
%TO.C,C205*%
X47800000Y-15150000D03*
X46400000Y-15150000D03*
%TD*%
D19*
%TO.C,TP2*%
X18500000Y-2160000D03*
%TD*%
D15*
%TO.C,C103*%
X127400000Y-23700000D03*
X126000000Y-23700000D03*
%TD*%
%TO.C,C108*%
X145590000Y-15150000D03*
X146990000Y-15150000D03*
%TD*%
%TO.C,C202*%
X81200000Y-23700000D03*
X82600000Y-23700000D03*
%TD*%
D20*
%TO.C,D1*%
X12640000Y-20660000D03*
X12640000Y-17260000D03*
%TD*%
D21*
%TO.C,F2*%
X6010000Y-4170000D03*
X2310000Y-4170000D03*
%TD*%
D15*
%TO.C,C206*%
X83750000Y-15150000D03*
X82350000Y-15150000D03*
%TD*%
D19*
%TO.C,TP5*%
X33750000Y-29750000D03*
%TD*%
D22*
%TO.C,P2*%
X6000000Y-28580000D03*
X6000000Y-23500000D03*
%TD*%
D23*
%TO.C,LED2/+12V*%
X25250000Y-12750000D03*
X26950000Y-12750000D03*
%TD*%
D20*
%TO.C,D3*%
X8680000Y-2440000D03*
X8680000Y-5840000D03*
%TD*%
D24*
%TO.C,F1*%
X13930000Y-26860000D03*
X13930000Y-23160000D03*
%TD*%
D25*
%TO.C,D6*%
X16600000Y-36870000D03*
X13300000Y-36870000D03*
%TD*%
D18*
%TO.C,REF\u002A\u002A*%
X100500000Y-26500000D03*
%TD*%
D26*
%TO.C,JP1*%
X24500000Y-31710000D03*
D11*
X24500000Y-34250000D03*
X24500000Y-36790000D03*
%TD*%
D14*
%TO.C,D8*%
X22140000Y-30310000D03*
X18220000Y-30310000D03*
%TD*%
D15*
%TO.C,C101*%
X55250000Y-23750000D03*
X53850000Y-23750000D03*
%TD*%
D27*
%TO.C,D2*%
X12750000Y-10600000D03*
X12750000Y-13900000D03*
%TD*%
D15*
%TO.C,C203*%
X117250000Y-23800000D03*
X118650000Y-23800000D03*
%TD*%
D18*
%TO.C,REF\u002A\u002A*%
X64500000Y-26500000D03*
%TD*%
D25*
%TO.C,D4*%
X15970000Y-2050000D03*
X12670000Y-2050000D03*
%TD*%
D16*
%TO.C,LED3/+5V*%
X25500000Y-14750000D03*
X27000000Y-14750000D03*
%TD*%
D20*
%TO.C,D5*%
X8750000Y-33550000D03*
X8750000Y-36950000D03*
%TD*%
D28*
%TO.C,U1*%
X22350000Y-16520000D03*
X20050000Y-16520000D03*
D29*
X20050000Y-22820000D03*
D28*
X17750000Y-16520000D03*
%TD*%
D18*
%TO.C,REF\u002A\u002A*%
X14750000Y-7000000D03*
%TD*%
%TO.C,REF\u002A\u002A*%
X136500000Y-26500000D03*
%TD*%
%TO.C,REF\u002A\u002A*%
X64500000Y-12500000D03*
%TD*%
D21*
%TO.C,F3*%
X2300000Y-35250000D03*
X6000000Y-35250000D03*
%TD*%
D30*
%TO.C,C2*%
X20500000Y-14000000D03*
X20500000Y-12000000D03*
%TD*%
D19*
%TO.C,TP6*%
X27500000Y-2160000D03*
%TD*%
D15*
%TO.C,C201*%
X45300000Y-23800000D03*
X46700000Y-23800000D03*
%TD*%
D19*
%TO.C,TP4*%
X24500000Y-2160000D03*
%TD*%
%TO.C,TP1*%
X21500000Y-2160000D03*
%TD*%
D24*
%TO.C,F4*%
X27500000Y-28500000D03*
X27500000Y-24800000D03*
%TD*%
D18*
%TO.C,REF\u002A\u002A*%
X174250000Y-32000000D03*
%TD*%
%TO.C,REF\u002A\u002A*%
X136500000Y-12500000D03*
%TD*%
D15*
%TO.C,C208*%
X155750000Y-15200000D03*
X154350000Y-15200000D03*
%TD*%
%TO.C,C204*%
X153200000Y-23900000D03*
X154600000Y-23900000D03*
%TD*%
D31*
%TO.C,R3*%
X25250000Y-16750000D03*
X25250000Y-18750000D03*
%TD*%
D22*
%TO.C,P1*%
X6000000Y-15580000D03*
X6000000Y-10500000D03*
%TD*%
D18*
%TO.C,REF\u002A\u002A*%
X100500000Y-12500000D03*
%TD*%
D32*
%TO.C,C1*%
X17750000Y-14000000D03*
X15750000Y-14000000D03*
%TD*%
D15*
%TO.C,C106*%
X73600000Y-15200000D03*
X75000000Y-15200000D03*
%TD*%
D31*
%TO.C,R2*%
X27500000Y-18000000D03*
X27500000Y-20000000D03*
%TD*%
D18*
%TO.C,REF\u002A\u002A*%
X174250000Y-7000000D03*
%TD*%
D15*
%TO.C,C107*%
X109590000Y-15200000D03*
X110990000Y-15200000D03*
%TD*%
M02*
