%TF.GenerationSoftware,KiCad,Pcbnew,9.0.6*%
%TF.CreationDate,2026-02-06T04:29:02+09:00*%
%TF.ProjectId,zudo-bus,7a75646f-2d62-4757-932e-6b696361645f,rev?*%
%TF.SameCoordinates,Original*%
%TF.FileFunction,Copper,L1,Top*%
%TF.FilePolarity,Positive*%
%FSLAX46Y46*%
G04 Gerber Fmt 4.6, Leading zero omitted, Abs format (unit mm)*
G04 Created by KiCad (PCBNEW 9.0.6) date 2026-02-06 04:29:02*
%MOMM*%
%LPD*%
G01*
G04 APERTURE LIST*
G04 Aperture macros list*
%AMRoundRect*
0 Rectangle with rounded corners*
0 $1 Rounding radius*
0 $2 $3 $4 $5 $6 $7 $8 $9 X,Y pos of 4 corners*
0 Add a 4 corners polygon primitive as box body*
4,1,4,$2,$3,$4,$5,$6,$7,$8,$9,$2,$3,0*
0 Add four circle primitives for the rounded corners*
1,1,$1+$1,$2,$3*
1,1,$1+$1,$4,$5*
1,1,$1+$1,$6,$7*
1,1,$1+$1,$8,$9*
0 Add four rect primitives between the rounded corners*
20,1,$1+$1,$2,$3,$4,$5,0*
20,1,$1+$1,$4,$5,$6,$7,0*
20,1,$1+$1,$6,$7,$8,$9,0*
20,1,$1+$1,$8,$9,$2,$3,0*%
G04 Aperture macros list end*
%TA.AperFunction,ComponentPad*%
%ADD10R,1.780000X1.800000*%
%TD*%
%TA.AperFunction,ComponentPad*%
%ADD11C,1.800000*%
%TD*%
%TA.AperFunction,ComponentPad*%
%ADD12R,2.200000X2.200000*%
%TD*%
%TA.AperFunction,ComponentPad*%
%ADD13C,2.200000*%
%TD*%
%TA.AperFunction,SMDPad,CuDef*%
%ADD14R,1.520000X1.680000*%
%TD*%
%TA.AperFunction,SMDPad,CuDef*%
%ADD15R,0.800000X0.900000*%
%TD*%
%TA.AperFunction,SMDPad,CuDef*%
%ADD16R,0.800000X0.800000*%
%TD*%
%TA.AperFunction,SMDPad,CuDef*%
%ADD17R,1.130000X1.380000*%
%TD*%
%TA.AperFunction,SMDPad,CuDef*%
%ADD18C,1.500000*%
%TD*%
%TA.AperFunction,SMDPad,CuDef*%
%ADD19R,1.400000X1.200000*%
%TD*%
%TA.AperFunction,SMDPad,CuDef*%
%ADD20R,1.410000X3.500000*%
%TD*%
%TA.AperFunction,ComponentPad*%
%ADD21C,2.000000*%
%TD*%
%TA.AperFunction,SMDPad,CuDef*%
%ADD22R,0.900000X1.000000*%
%TD*%
%TA.AperFunction,SMDPad,CuDef*%
%ADD23R,3.500000X1.410000*%
%TD*%
%TA.AperFunction,SMDPad,CuDef*%
%ADD24R,1.000000X1.200000*%
%TD*%
%TA.AperFunction,ComponentPad*%
%ADD25R,1.800000X1.570000*%
%TD*%
%TA.AperFunction,SMDPad,CuDef*%
%ADD26R,1.200000X1.000000*%
%TD*%
%TA.AperFunction,SMDPad,CuDef*%
%ADD27RoundRect,0.375000X-0.375000X0.625000X-0.375000X-0.625000X0.375000X-0.625000X0.375000X0.625000X0*%
%TD*%
%TA.AperFunction,SMDPad,CuDef*%
%ADD28RoundRect,0.500000X-1.400000X0.500000X-1.400000X-0.500000X1.400000X-0.500000X1.400000X0.500000X0*%
%TD*%
%TA.AperFunction,SMDPad,CuDef*%
%ADD29R,1.350000X1.410000*%
%TD*%
%TA.AperFunction,SMDPad,CuDef*%
%ADD30R,1.380000X1.130000*%
%TD*%
%TA.AperFunction,SMDPad,CuDef*%
%ADD31R,1.410000X1.350000*%
%TD*%
%TA.AperFunction,ViaPad*%
%ADD32C,0.600000*%
%TD*%
%TA.AperFunction,ViaPad*%
%ADD33C,1.000000*%
%TD*%
%TA.AperFunction,Conductor*%
%ADD34C,0.700000*%
%TD*%
%TA.AperFunction,Conductor*%
%ADD35C,1.000000*%
%TD*%
G04 APERTURE END LIST*
D10*
%TO.P,J104,1,1*%
%TO.N,GATE rail*%
X145580000Y-28480000D03*
D11*
%TO.P,J104,2,2*%
X145580000Y-25940000D03*
%TO.P,J104,3,3*%
%TO.N,CV rail*%
X148120000Y-28480000D03*
%TO.P,J104,4,4*%
X148120000Y-25940000D03*
%TO.P,J104,5,5*%
%TO.N,+5V rail*%
X150660000Y-28480000D03*
%TO.P,J104,6,6*%
X150660000Y-25940000D03*
%TO.P,J104,7,7*%
%TO.N,+12V rail*%
X153200000Y-28480000D03*
%TO.P,J104,8,8*%
X153200000Y-25940000D03*
%TO.P,J104,9,9*%
%TO.N,GND*%
X155740000Y-28480000D03*
%TO.P,J104,10,10*%
X155740000Y-25940000D03*
%TO.P,J104,11,11*%
X158280000Y-28480000D03*
%TO.P,J104,12,12*%
X158280000Y-25940000D03*
%TO.P,J104,13,13*%
X160820000Y-28480000D03*
%TO.P,J104,14,14*%
X160820000Y-25940000D03*
%TO.P,J104,15,15*%
%TO.N,-12V rail*%
X163360000Y-28480000D03*
%TO.P,J104,16,16*%
X163360000Y-25940000D03*
%TD*%
D10*
%TO.P,J105,1,1*%
%TO.N,GATE rail*%
X55400000Y-10520000D03*
D11*
%TO.P,J105,2,2*%
X55400000Y-13060000D03*
%TO.P,J105,3,3*%
%TO.N,CV rail*%
X52860000Y-10520000D03*
%TO.P,J105,4,4*%
X52860000Y-13060000D03*
%TO.P,J105,5,5*%
%TO.N,+5V rail*%
X50320000Y-10520000D03*
%TO.P,J105,6,6*%
X50320000Y-13060000D03*
%TO.P,J105,7,7*%
%TO.N,+12V rail*%
X47780000Y-10520000D03*
%TO.P,J105,8,8*%
X47780000Y-13060000D03*
%TO.P,J105,9,9*%
%TO.N,GND*%
X45240000Y-10520000D03*
%TO.P,J105,10,10*%
X45240000Y-13060000D03*
%TO.P,J105,11,11*%
X42700000Y-10520000D03*
%TO.P,J105,12,12*%
X42700000Y-13060000D03*
%TO.P,J105,13,13*%
X40160000Y-10520000D03*
%TO.P,J105,14,14*%
X40160000Y-13060000D03*
%TO.P,J105,15,15*%
%TO.N,-12V rail*%
X37620000Y-10520000D03*
%TO.P,J105,16,16*%
X37620000Y-13060000D03*
%TD*%
D10*
%TO.P,J108,1,1*%
%TO.N,GATE rail*%
X163360000Y-10520000D03*
D11*
%TO.P,J108,2,2*%
X163360000Y-13060000D03*
%TO.P,J108,3,3*%
%TO.N,CV rail*%
X160820000Y-10520000D03*
%TO.P,J108,4,4*%
X160820000Y-13060000D03*
%TO.P,J108,5,5*%
%TO.N,+5V rail*%
X158280000Y-10520000D03*
%TO.P,J108,6,6*%
X158280000Y-13060000D03*
%TO.P,J108,7,7*%
%TO.N,+12V rail*%
X155740000Y-10520000D03*
%TO.P,J108,8,8*%
X155740000Y-13060000D03*
%TO.P,J108,9,9*%
%TO.N,GND*%
X153200000Y-10520000D03*
%TO.P,J108,10,10*%
X153200000Y-13060000D03*
%TO.P,J108,11,11*%
X150660000Y-10520000D03*
%TO.P,J108,12,12*%
X150660000Y-13060000D03*
%TO.P,J108,13,13*%
X148120000Y-10520000D03*
%TO.P,J108,14,14*%
X148120000Y-13060000D03*
%TO.P,J108,15,15*%
%TO.N,-12V rail*%
X145580000Y-10520000D03*
%TO.P,J108,16,16*%
X145580000Y-13060000D03*
%TD*%
D10*
%TO.P,J107,1,1*%
%TO.N,GATE rail*%
X127372500Y-10520000D03*
D11*
%TO.P,J107,2,2*%
X127372500Y-13060000D03*
%TO.P,J107,3,3*%
%TO.N,CV rail*%
X124832500Y-10520000D03*
%TO.P,J107,4,4*%
X124832500Y-13060000D03*
%TO.P,J107,5,5*%
%TO.N,+5V rail*%
X122292500Y-10520000D03*
%TO.P,J107,6,6*%
X122292500Y-13060000D03*
%TO.P,J107,7,7*%
%TO.N,+12V rail*%
X119752500Y-10520000D03*
%TO.P,J107,8,8*%
X119752500Y-13060000D03*
%TO.P,J107,9,9*%
%TO.N,GND*%
X117212500Y-10520000D03*
%TO.P,J107,10,10*%
X117212500Y-13060000D03*
%TO.P,J107,11,11*%
X114672500Y-10520000D03*
%TO.P,J107,12,12*%
X114672500Y-13060000D03*
%TO.P,J107,13,13*%
X112132500Y-10520000D03*
%TO.P,J107,14,14*%
X112132500Y-13060000D03*
%TO.P,J107,15,15*%
%TO.N,-12V rail*%
X109592500Y-10520000D03*
%TO.P,J107,16,16*%
X109592500Y-13060000D03*
%TD*%
D10*
%TO.P,J103,1,1*%
%TO.N,GATE rail*%
X109592500Y-28480000D03*
D11*
%TO.P,J103,2,2*%
X109592500Y-25940000D03*
%TO.P,J103,3,3*%
%TO.N,CV rail*%
X112132500Y-28480000D03*
%TO.P,J103,4,4*%
X112132500Y-25940000D03*
%TO.P,J103,5,5*%
%TO.N,+5V rail*%
X114672500Y-28480000D03*
%TO.P,J103,6,6*%
X114672500Y-25940000D03*
%TO.P,J103,7,7*%
%TO.N,+12V rail*%
X117212500Y-28480000D03*
%TO.P,J103,8,8*%
X117212500Y-25940000D03*
%TO.P,J103,9,9*%
%TO.N,GND*%
X119752500Y-28480000D03*
%TO.P,J103,10,10*%
X119752500Y-25940000D03*
%TO.P,J103,11,11*%
X122292500Y-28480000D03*
%TO.P,J103,12,12*%
X122292500Y-25940000D03*
%TO.P,J103,13,13*%
X124832500Y-28480000D03*
%TO.P,J103,14,14*%
X124832500Y-25940000D03*
%TO.P,J103,15,15*%
%TO.N,-12V rail*%
X127372500Y-28480000D03*
%TO.P,J103,16,16*%
X127372500Y-25940000D03*
%TD*%
D10*
%TO.P,J102,1,1*%
%TO.N,GATE rail*%
X73592500Y-28480000D03*
D11*
%TO.P,J102,2,2*%
X73592500Y-25940000D03*
%TO.P,J102,3,3*%
%TO.N,CV rail*%
X76132500Y-28480000D03*
%TO.P,J102,4,4*%
X76132500Y-25940000D03*
%TO.P,J102,5,5*%
%TO.N,+5V rail*%
X78672500Y-28480000D03*
%TO.P,J102,6,6*%
X78672500Y-25940000D03*
%TO.P,J102,7,7*%
%TO.N,+12V rail*%
X81212500Y-28480000D03*
%TO.P,J102,8,8*%
X81212500Y-25940000D03*
%TO.P,J102,9,9*%
%TO.N,GND*%
X83752500Y-28480000D03*
%TO.P,J102,10,10*%
X83752500Y-25940000D03*
%TO.P,J102,11,11*%
X86292500Y-28480000D03*
%TO.P,J102,12,12*%
X86292500Y-25940000D03*
%TO.P,J102,13,13*%
X88832500Y-28480000D03*
%TO.P,J102,14,14*%
X88832500Y-25940000D03*
%TO.P,J102,15,15*%
%TO.N,-12V rail*%
X91372500Y-28480000D03*
%TO.P,J102,16,16*%
X91372500Y-25940000D03*
%TD*%
D10*
%TO.P,J106,1,1*%
%TO.N,GATE rail*%
X91372500Y-10520000D03*
D11*
%TO.P,J106,2,2*%
X91372500Y-13060000D03*
%TO.P,J106,3,3*%
%TO.N,CV rail*%
X88832500Y-10520000D03*
%TO.P,J106,4,4*%
X88832500Y-13060000D03*
%TO.P,J106,5,5*%
%TO.N,+5V rail*%
X86292500Y-10520000D03*
%TO.P,J106,6,6*%
X86292500Y-13060000D03*
%TO.P,J106,7,7*%
%TO.N,+12V rail*%
X83752500Y-10520000D03*
%TO.P,J106,8,8*%
X83752500Y-13060000D03*
%TO.P,J106,9,9*%
%TO.N,GND*%
X81212500Y-10520000D03*
%TO.P,J106,10,10*%
X81212500Y-13060000D03*
%TO.P,J106,11,11*%
X78672500Y-10520000D03*
%TO.P,J106,12,12*%
X78672500Y-13060000D03*
%TO.P,J106,13,13*%
X76132500Y-10520000D03*
%TO.P,J106,14,14*%
X76132500Y-13060000D03*
%TO.P,J106,15,15*%
%TO.N,-12V rail*%
X73592500Y-10520000D03*
%TO.P,J106,16,16*%
X73592500Y-13060000D03*
%TD*%
D10*
%TO.P,J101,1,1*%
%TO.N,GATE rail*%
X37620000Y-28480000D03*
D11*
%TO.P,J101,2,2*%
X37620000Y-25940000D03*
%TO.P,J101,3,3*%
%TO.N,CV rail*%
X40160000Y-28480000D03*
%TO.P,J101,4,4*%
X40160000Y-25940000D03*
%TO.P,J101,5,5*%
%TO.N,+5V rail*%
X42700000Y-28480000D03*
%TO.P,J101,6,6*%
X42700000Y-25940000D03*
%TO.P,J101,7,7*%
%TO.N,+12V rail*%
X45240000Y-28480000D03*
%TO.P,J101,8,8*%
X45240000Y-25940000D03*
%TO.P,J101,9,9*%
%TO.N,GND*%
X47780000Y-28480000D03*
%TO.P,J101,10,10*%
X47780000Y-25940000D03*
%TO.P,J101,11,11*%
X50320000Y-28480000D03*
%TO.P,J101,12,12*%
X50320000Y-25940000D03*
%TO.P,J101,13,13*%
X52860000Y-28480000D03*
%TO.P,J101,14,14*%
X52860000Y-25940000D03*
%TO.P,J101,15,15*%
%TO.N,-12V rail*%
X55400000Y-28480000D03*
%TO.P,J101,16,16*%
X55400000Y-25940000D03*
%TD*%
D12*
%TO.P,P3,1,1*%
%TO.N,-12V in*%
X179552500Y-31500000D03*
D13*
%TO.P,P3,2,2*%
X184632500Y-31500000D03*
%TD*%
D12*
%TO.P,P4,1,1*%
%TO.N,GND*%
X179552500Y-23500000D03*
D13*
%TO.P,P4,2,2*%
X184632500Y-23500000D03*
%TD*%
D12*
%TO.P,P5,1,1*%
%TO.N,+12V in*%
X179552500Y-15500000D03*
D13*
%TO.P,P5,2,2*%
X184632500Y-15500000D03*
%TD*%
D12*
%TO.P,P6,1,1*%
%TO.N,+5V in*%
X179552500Y-7720000D03*
D13*
%TO.P,P6,2,2*%
X184632500Y-7720000D03*
%TD*%
D14*
%TO.P,D7,1,K*%
%TO.N,Net-(D7-K)*%
X21210000Y-26930000D03*
%TO.P,D7,2,A*%
%TO.N,Net-(D7-A)*%
X17290000Y-26930000D03*
%TD*%
D15*
%TO.P,C105,1,1*%
%TO.N,-12V rail*%
X37600000Y-15250000D03*
%TO.P,C105,2,2*%
%TO.N,GND*%
X39000000Y-15250000D03*
%TD*%
D16*
%TO.P,LED1/-12V,1,K*%
%TO.N,-12V rail*%
X25500000Y-10750000D03*
%TO.P,LED1/-12V,2,A*%
%TO.N,Net-(LED1-A)*%
X27000000Y-10750000D03*
%TD*%
D15*
%TO.P,C102,1,1*%
%TO.N,-12V rail*%
X91350000Y-23600000D03*
%TO.P,C102,2,2*%
%TO.N,GND*%
X89950000Y-23600000D03*
%TD*%
D17*
%TO.P,R1,1,1*%
%TO.N,Net-(LED1-A)*%
X28500000Y-8250000D03*
%TO.P,R1,2,2*%
%TO.N,GND*%
X26500000Y-8250000D03*
%TD*%
D15*
%TO.P,C104,1,1*%
%TO.N,-12V rail*%
X163400000Y-23800000D03*
%TO.P,C104,2,2*%
%TO.N,GND*%
X162000000Y-23800000D03*
%TD*%
%TO.P,C207,1,1*%
%TO.N,+12V rail*%
X119750000Y-15050000D03*
%TO.P,C207,2,2*%
%TO.N,GND*%
X118350000Y-15050000D03*
%TD*%
D18*
%TO.P,TP3,1,1*%
%TO.N,+5V PSU*%
X20000000Y-36750000D03*
%TD*%
D15*
%TO.P,C205,1,1*%
%TO.N,+12V rail*%
X47800000Y-15150000D03*
%TO.P,C205,2,2*%
%TO.N,GND*%
X46400000Y-15150000D03*
%TD*%
D18*
%TO.P,TP2,1,1*%
%TO.N,-12V rail*%
X18500000Y-2160000D03*
%TD*%
D15*
%TO.P,C103,1,1*%
%TO.N,-12V rail*%
X127400000Y-23700000D03*
%TO.P,C103,2,2*%
%TO.N,GND*%
X126000000Y-23700000D03*
%TD*%
%TO.P,C108,1,1*%
%TO.N,-12V rail*%
X145590000Y-15150000D03*
%TO.P,C108,2,2*%
%TO.N,GND*%
X146990000Y-15150000D03*
%TD*%
%TO.P,C202,1,1*%
%TO.N,+12V rail*%
X81200000Y-23700000D03*
%TO.P,C202,2,2*%
%TO.N,GND*%
X82600000Y-23700000D03*
%TD*%
D19*
%TO.P,D1,1,A2*%
%TO.N,+12V in*%
X12640000Y-20660000D03*
%TO.P,D1,2,A1*%
%TO.N,GND*%
X12640000Y-17260000D03*
%TD*%
D20*
%TO.P,F2,2,2*%
%TO.N,Net-(D4-C)*%
X6010000Y-4170000D03*
%TO.P,F2,1,1*%
%TO.N,-12V in*%
X2310000Y-4170000D03*
%TD*%
D15*
%TO.P,C206,1,1*%
%TO.N,+12V rail*%
X83750000Y-15150000D03*
%TO.P,C206,2,2*%
%TO.N,GND*%
X82350000Y-15150000D03*
%TD*%
D18*
%TO.P,TP5,1,1*%
%TO.N,Net-(F4-Pad1)*%
X33750000Y-29750000D03*
%TD*%
D21*
%TO.P,P2,1,1*%
%TO.N,+5V in*%
X6000000Y-28580000D03*
%TO.P,P2,2,2*%
%TO.N,+12V in*%
X6000000Y-23500000D03*
%TD*%
D22*
%TO.P,LED2/+12V,1,A*%
%TO.N,+12V rail*%
X25250000Y-12750000D03*
%TO.P,LED2/+12V,2,K*%
%TO.N,Net-(LED2-K)*%
X26950000Y-12750000D03*
%TD*%
D19*
%TO.P,D3,2,A1*%
%TO.N,GND*%
X8680000Y-2440000D03*
%TO.P,D3,1,A2*%
%TO.N,-12V in*%
X8680000Y-5840000D03*
%TD*%
D23*
%TO.P,F1,1,1*%
%TO.N,+12V in*%
X13930000Y-26860000D03*
%TO.P,F1,2,2*%
%TO.N,Net-(D2-A)*%
X13930000Y-23160000D03*
%TD*%
D24*
%TO.P,D6,1,C*%
%TO.N,+5V PSU*%
X16600000Y-36870000D03*
%TO.P,D6,2,A*%
%TO.N,Net-(D6-A)*%
X13300000Y-36870000D03*
%TD*%
D25*
%TO.P,JP1,1,1*%
%TO.N,Net-(D7-K)*%
X24500000Y-31710000D03*
D11*
%TO.P,JP1,2,2*%
%TO.N,Net-(F4-Pad1)*%
X24500000Y-34250000D03*
%TO.P,JP1,3,3*%
%TO.N,Net-(D8-K)*%
X24500000Y-36790000D03*
%TD*%
D14*
%TO.P,D8,1,K*%
%TO.N,Net-(D8-K)*%
X22140000Y-30310000D03*
%TO.P,D8,2,A*%
%TO.N,+5V PSU*%
X18220000Y-30310000D03*
%TD*%
D15*
%TO.P,C101,1,1*%
%TO.N,-12V rail*%
X55250000Y-23750000D03*
%TO.P,C101,2,2*%
%TO.N,GND*%
X53850000Y-23750000D03*
%TD*%
D26*
%TO.P,D2,1,C*%
%TO.N,+12V rail*%
X12750000Y-10600000D03*
%TO.P,D2,2,A*%
%TO.N,Net-(D2-A)*%
X12750000Y-13900000D03*
%TD*%
D15*
%TO.P,C203,1,1*%
%TO.N,+12V rail*%
X117250000Y-23800000D03*
%TO.P,C203,2,2*%
%TO.N,GND*%
X118650000Y-23800000D03*
%TD*%
D24*
%TO.P,D4,2,A*%
%TO.N,-12V rail*%
X15970000Y-2050000D03*
%TO.P,D4,1,C*%
%TO.N,Net-(D4-C)*%
X12670000Y-2050000D03*
%TD*%
D16*
%TO.P,LED3/+5V,1,-*%
%TO.N,Net-(LED3--)*%
X25500000Y-14750000D03*
%TO.P,LED3/+5V,2,+*%
%TO.N,+5V rail*%
X27000000Y-14750000D03*
%TD*%
D19*
%TO.P,D5,1,1*%
%TO.N,+5V in*%
X8750000Y-33550000D03*
%TO.P,D5,2,2*%
%TO.N,GND*%
X8750000Y-36950000D03*
%TD*%
D27*
%TO.P,U1,1,GND*%
%TO.N,GND*%
X22350000Y-16520000D03*
%TO.P,U1,2,VO*%
%TO.N,Net-(D7-A)*%
X20050000Y-16520000D03*
D28*
X20050000Y-22820000D03*
D27*
%TO.P,U1,3,VI*%
%TO.N,+12V rail*%
X17750000Y-16520000D03*
%TD*%
D20*
%TO.P,F3,1,1*%
%TO.N,+5V in*%
X2300000Y-35250000D03*
%TO.P,F3,2,2*%
%TO.N,Net-(D6-A)*%
X6000000Y-35250000D03*
%TD*%
D29*
%TO.P,C2,1,1*%
%TO.N,Net-(D7-A)*%
X20500000Y-14000000D03*
%TO.P,C2,2,2*%
%TO.N,GND*%
X20500000Y-12000000D03*
%TD*%
D18*
%TO.P,TP6,1,1*%
%TO.N,GND*%
X27500000Y-2160000D03*
%TD*%
D15*
%TO.P,C201,1,1*%
%TO.N,+12V rail*%
X45300000Y-23800000D03*
%TO.P,C201,2,2*%
%TO.N,GND*%
X46700000Y-23800000D03*
%TD*%
D18*
%TO.P,TP4,1,1*%
%TO.N,Net-(D7-A)*%
X24500000Y-2160000D03*
%TD*%
%TO.P,TP1,1,1*%
%TO.N,+12V rail*%
X21500000Y-2160000D03*
%TD*%
D23*
%TO.P,F4,1,1*%
%TO.N,Net-(F4-Pad1)*%
X27500000Y-28500000D03*
%TO.P,F4,2,2*%
%TO.N,+5V rail*%
X27500000Y-24800000D03*
%TD*%
D15*
%TO.P,C208,1,1*%
%TO.N,+12V rail*%
X155750000Y-15200000D03*
%TO.P,C208,2,2*%
%TO.N,GND*%
X154350000Y-15200000D03*
%TD*%
%TO.P,C204,1,1*%
%TO.N,+12V rail*%
X153200000Y-23900000D03*
%TO.P,C204,2,2*%
%TO.N,GND*%
X154600000Y-23900000D03*
%TD*%
D30*
%TO.P,R3,1,1*%
%TO.N,Net-(LED3--)*%
X25250000Y-16750000D03*
%TO.P,R3,2,2*%
%TO.N,GND*%
X25250000Y-18750000D03*
%TD*%
D21*
%TO.P,P1,1,1*%
%TO.N,GND*%
X6000000Y-15580000D03*
%TO.P,P1,2,2*%
%TO.N,-12V in*%
X6000000Y-10500000D03*
%TD*%
D31*
%TO.P,C1,1,1*%
%TO.N,+12V rail*%
X17750000Y-14000000D03*
%TO.P,C1,2,2*%
%TO.N,GND*%
X15750000Y-14000000D03*
%TD*%
D15*
%TO.P,C106,1,1*%
%TO.N,-12V rail*%
X73600000Y-15200000D03*
%TO.P,C106,2,2*%
%TO.N,GND*%
X75000000Y-15200000D03*
%TD*%
D30*
%TO.P,R2,1,1*%
%TO.N,Net-(LED2-K)*%
X27500000Y-18000000D03*
%TO.P,R2,2,2*%
%TO.N,GND*%
X27500000Y-20000000D03*
%TD*%
D15*
%TO.P,C107,1,1*%
%TO.N,-12V rail*%
X109590000Y-15200000D03*
%TO.P,C107,2,2*%
%TO.N,GND*%
X110990000Y-15200000D03*
%TD*%
D32*
%TO.N,+12V rail*%
X115610000Y-17330000D03*
X20000000Y-3750000D03*
X38550000Y-17400000D03*
X151360000Y-17400000D03*
X21950000Y-10600000D03*
X74530000Y-17399000D03*
X72450000Y-17399000D03*
X14500000Y-10600000D03*
X43800000Y-23800000D03*
X144500000Y-17400000D03*
X79780000Y-17400000D03*
X110650000Y-17400000D03*
X115600000Y-23800000D03*
X146480000Y-17400000D03*
X79750000Y-23700000D03*
X43800000Y-17400000D03*
X151350000Y-23900000D03*
X108630000Y-17400000D03*
%TO.N,GND*%
X148250000Y-15200000D03*
X52000000Y-23700000D03*
X76500000Y-15250000D03*
X160500000Y-23700000D03*
D33*
X14750000Y-12250000D03*
X10820000Y-36950000D03*
X25250000Y-20250000D03*
D32*
X120200000Y-23700000D03*
X83950000Y-23700000D03*
X153100000Y-15200000D03*
D33*
X25750000Y-22250000D03*
D32*
X18500000Y-11750000D03*
X112650000Y-15200000D03*
D33*
X10630000Y-2450000D03*
D32*
X26250000Y-5250000D03*
D33*
X22350000Y-14550000D03*
D32*
X40650000Y-15400000D03*
X117000000Y-15100000D03*
X124200000Y-23750000D03*
X88066090Y-23697818D03*
X155900000Y-23850000D03*
X48312062Y-23722659D03*
D33*
X12740000Y-16020000D03*
D32*
%TO.N,Net-(D7-A)*%
X23250000Y-3750000D03*
X22500000Y-13250000D03*
%TO.N,-12V rail*%
X92900000Y-18300000D03*
X165150000Y-18300000D03*
X92900000Y-23600000D03*
X33900000Y-17900000D03*
X165150000Y-23750000D03*
X56400000Y-18300000D03*
X128950000Y-23700000D03*
X128900000Y-18300000D03*
X56750000Y-23750000D03*
X24750000Y-8800000D03*
%TO.N,+12V in*%
X29800000Y-19900000D03*
%TO.N,-12V in*%
X32500000Y-22350000D03*
%TO.N,+5V rail*%
X118700000Y-16410000D03*
X122350000Y-16400000D03*
X41782675Y-16203020D03*
X82870000Y-16400000D03*
X74530000Y-16400000D03*
X144520000Y-16400000D03*
X50320000Y-16370000D03*
X110600000Y-16400000D03*
X34150000Y-23500000D03*
X44930000Y-15050000D03*
X146430000Y-16400000D03*
X29350000Y-22950000D03*
D33*
X27000000Y-23000000D03*
D32*
X72500000Y-16400000D03*
D33*
X27000000Y-16250000D03*
D32*
X154850000Y-16400000D03*
X42300000Y-23750000D03*
X108610000Y-16400000D03*
X86300000Y-16400000D03*
%TO.N,GATE rail*%
X168550000Y-23600000D03*
X104750000Y-31800000D03*
X168400000Y-29100000D03*
X165650000Y-31850000D03*
X141450000Y-28550000D03*
X104650000Y-28550000D03*
X68700000Y-31850000D03*
X68600000Y-28450000D03*
X141400000Y-31850000D03*
X168550000Y-18250000D03*
%TO.N,CV rail*%
X160810000Y-7480000D03*
X167250000Y-10750000D03*
X124860000Y-7500000D03*
X88832500Y-7500000D03*
X166500000Y-7500000D03*
X167250000Y-18350000D03*
X167250000Y-23700000D03*
%TD*%
D34*
%TO.N,+12V rail*%
X155800000Y-17400000D02*
X155750000Y-17350000D01*
X110650000Y-17400000D02*
X144500000Y-17400000D01*
X47800000Y-17399000D02*
X72450000Y-17399000D01*
X146480000Y-17400000D02*
X151360000Y-17400000D01*
X38551000Y-17399000D02*
X47800000Y-17399000D01*
X38550000Y-17400000D02*
X38551000Y-17399000D01*
X153200000Y-23900000D02*
X151350000Y-23900000D01*
X117250000Y-23800000D02*
X115600000Y-23800000D01*
X151360000Y-17400000D02*
X155800000Y-17400000D01*
D35*
X14500000Y-10600000D02*
X15150000Y-10600000D01*
D34*
X119850000Y-10600000D02*
X119750000Y-10500000D01*
X81200000Y-23700000D02*
X81200000Y-28550000D01*
X45300000Y-23800000D02*
X43800000Y-23800000D01*
X74530000Y-17399000D02*
X74531000Y-17400000D01*
X74531000Y-17400000D02*
X79780000Y-17400000D01*
X47800000Y-15150000D02*
X47800000Y-10600000D01*
X45300000Y-23800000D02*
X45300000Y-28500000D01*
D35*
X17750000Y-13200000D02*
X15150000Y-10600000D01*
X12750000Y-10600000D02*
X14500000Y-10600000D01*
D34*
X119800000Y-15100000D02*
X119800000Y-17400000D01*
X25250000Y-12750000D02*
X24100000Y-12750000D01*
X83750000Y-17400000D02*
X83750000Y-10500000D01*
X117250000Y-23800000D02*
X117250000Y-28550000D01*
X81200000Y-23700000D02*
X79750000Y-23700000D01*
X155750000Y-17350000D02*
X155750000Y-10500000D01*
X47800000Y-17399000D02*
X47800000Y-15150000D01*
D35*
X20000000Y-3750000D02*
X21500000Y-2250000D01*
D34*
X119800000Y-17400000D02*
X119850000Y-17350000D01*
X119750000Y-15050000D02*
X119800000Y-15100000D01*
X153200000Y-23900000D02*
X153200000Y-28550000D01*
X119850000Y-17350000D02*
X119850000Y-10600000D01*
X24100000Y-12750000D02*
X21950000Y-10600000D01*
X21950000Y-10600000D02*
X14500000Y-10600000D01*
D35*
X17750000Y-16520000D02*
X17750000Y-13200000D01*
D34*
X79780000Y-17400000D02*
X108630000Y-17400000D01*
X45300000Y-28500000D02*
X45200000Y-28600000D01*
%TO.N,GND*%
X25250000Y-18750000D02*
X25250000Y-20250000D01*
X75000000Y-15200000D02*
X75000000Y-14150000D01*
D35*
X27500000Y-4000000D02*
X26250000Y-5250000D01*
D34*
X89950000Y-23600000D02*
X88150000Y-23600000D01*
D35*
X8750000Y-36950000D02*
X10820000Y-36950000D01*
D34*
X148200000Y-15150000D02*
X148250000Y-15200000D01*
X45250000Y-14000000D02*
X45250000Y-13050000D01*
X89950000Y-23600000D02*
X89950000Y-24800000D01*
X162000000Y-23800000D02*
X161800000Y-24000000D01*
X46925000Y-24025000D02*
X47925000Y-24025000D01*
X162000000Y-23800000D02*
X160750000Y-25050000D01*
X40500000Y-15250000D02*
X40650000Y-15400000D01*
X126000000Y-23700000D02*
X126000000Y-24850000D01*
X46700000Y-23800000D02*
X46925000Y-24025000D01*
D35*
X8680000Y-2440000D02*
X10620000Y-2440000D01*
X179552500Y-23500000D02*
X184600000Y-23500000D01*
D34*
X126000000Y-24850000D02*
X124850000Y-26000000D01*
X119925000Y-23975000D02*
X120200000Y-23700000D01*
X110990000Y-15200000D02*
X110990000Y-14160000D01*
X26500000Y-8250000D02*
X26500000Y-5500000D01*
X47800000Y-24900000D02*
X47800000Y-25900000D01*
X39000000Y-14250000D02*
X40200000Y-13050000D01*
X110990000Y-15200000D02*
X112650000Y-15200000D01*
D35*
X12640000Y-17260000D02*
X12740000Y-17160000D01*
D34*
X118650000Y-23800000D02*
X118825000Y-23975000D01*
X154600000Y-24850000D02*
X155800000Y-26050000D01*
D35*
X20500000Y-12000000D02*
X18750000Y-12000000D01*
D34*
X160800000Y-24000000D02*
X160500000Y-23700000D01*
X110990000Y-14160000D02*
X112100000Y-13050000D01*
X39000000Y-15250000D02*
X40500000Y-15250000D01*
X117050000Y-15050000D02*
X117000000Y-15100000D01*
X75000000Y-15200000D02*
X76450000Y-15200000D01*
X82600000Y-23700000D02*
X82600000Y-24900000D01*
X154300000Y-14160000D02*
X154300000Y-15150000D01*
X52800000Y-24800000D02*
X52800000Y-25850000D01*
X146990000Y-15150000D02*
X148200000Y-15150000D01*
X88150000Y-23600000D02*
X88050000Y-23700000D01*
X118825000Y-23975000D02*
X119925000Y-23975000D01*
X119750000Y-24900000D02*
X119750000Y-26000000D01*
X153200000Y-13060000D02*
X154300000Y-14160000D01*
X39000000Y-15250000D02*
X39000000Y-14250000D01*
X82600000Y-24900000D02*
X83650000Y-25950000D01*
X154600000Y-23900000D02*
X155850000Y-23900000D01*
X82600000Y-23700000D02*
X83950000Y-23700000D01*
X146990000Y-15150000D02*
X146990000Y-14210000D01*
D35*
X18750000Y-12000000D02*
X18500000Y-11750000D01*
X27500000Y-2160000D02*
X27500000Y-4000000D01*
D34*
X46700000Y-23800000D02*
X47800000Y-24900000D01*
D35*
X10620000Y-2440000D02*
X10630000Y-2450000D01*
D34*
X75000000Y-14150000D02*
X76050000Y-13100000D01*
X155850000Y-23900000D02*
X155900000Y-23850000D01*
X118350000Y-14200000D02*
X117250000Y-13100000D01*
X52050000Y-23750000D02*
X52000000Y-23700000D01*
D35*
X15750000Y-13250000D02*
X14750000Y-12250000D01*
D34*
X47925000Y-24025000D02*
X48250000Y-23700000D01*
D35*
X22350000Y-16520000D02*
X22350000Y-14550000D01*
X184600000Y-23500000D02*
X184650000Y-23550000D01*
D34*
X82350000Y-14150000D02*
X81250000Y-13050000D01*
X118350000Y-15050000D02*
X118350000Y-14200000D01*
X124250000Y-23700000D02*
X124200000Y-23750000D01*
X161800000Y-24000000D02*
X160800000Y-24000000D01*
X76450000Y-15200000D02*
X76500000Y-15250000D01*
D35*
X12740000Y-17160000D02*
X12740000Y-16020000D01*
D34*
X154600000Y-23900000D02*
X154600000Y-24850000D01*
X146990000Y-14210000D02*
X148000000Y-13200000D01*
X118650000Y-23800000D02*
X119750000Y-24900000D01*
X53850000Y-23750000D02*
X52800000Y-24800000D01*
X53850000Y-23750000D02*
X52050000Y-23750000D01*
X25750000Y-21750000D02*
X25750000Y-22250000D01*
X27500000Y-20000000D02*
X25750000Y-21750000D01*
X89950000Y-24800000D02*
X88800000Y-25950000D01*
X26500000Y-5500000D02*
X26250000Y-5250000D01*
X126000000Y-23700000D02*
X124250000Y-23700000D01*
X160750000Y-25050000D02*
X160750000Y-26050000D01*
D35*
X15750000Y-14000000D02*
X15750000Y-13250000D01*
D34*
X82350000Y-15150000D02*
X82350000Y-14150000D01*
X46400000Y-15150000D02*
X45250000Y-14000000D01*
X154350000Y-15200000D02*
X153100000Y-15200000D01*
X118350000Y-15050000D02*
X117050000Y-15050000D01*
D35*
%TO.N,Net-(D7-A)*%
X20050000Y-22820000D02*
X17250000Y-25620000D01*
X20050000Y-16520000D02*
X20050000Y-22950000D01*
X20050000Y-16520000D02*
X20050000Y-14450000D01*
X21344000Y-13406000D02*
X21795529Y-13406000D01*
X24500000Y-2500000D02*
X24500000Y-2250000D01*
X21795529Y-13406000D02*
X21852530Y-13349000D01*
X23250000Y-3750000D02*
X24500000Y-2500000D01*
X20050000Y-22950000D02*
X20000000Y-23000000D01*
X20500000Y-14250000D02*
X21344000Y-13406000D01*
X20050000Y-14450000D02*
X20500000Y-14000000D01*
X17250000Y-25620000D02*
X17250000Y-27000000D01*
X21852530Y-13349000D02*
X22401000Y-13349000D01*
X22401000Y-13349000D02*
X22500000Y-13250000D01*
%TO.N,-12V rail*%
X18500000Y-5150000D02*
X23425000Y-10075000D01*
X36500000Y-15300000D02*
X37550000Y-15300000D01*
X23475000Y-10075000D02*
X24750000Y-8800000D01*
D34*
X109592500Y-10520000D02*
X109592500Y-18257500D01*
X163650000Y-23750000D02*
X163500000Y-23900000D01*
X37600000Y-15250000D02*
X37600000Y-10650000D01*
X145550000Y-15150000D02*
X145600000Y-15100000D01*
X73600000Y-10550000D02*
X73550000Y-10500000D01*
X109550000Y-18300000D02*
X109550000Y-15300000D01*
X55250000Y-28350000D02*
X55400000Y-28500000D01*
X145580000Y-18270000D02*
X145550000Y-18300000D01*
D35*
X18500000Y-2160000D02*
X16150000Y-2160000D01*
D34*
X109550000Y-15300000D02*
X109600000Y-15250000D01*
D35*
X18500000Y-2160000D02*
X18500000Y-3250000D01*
D34*
X55250000Y-23750000D02*
X56750000Y-23750000D01*
X127400000Y-28450000D02*
X127350000Y-28500000D01*
X127400000Y-23700000D02*
X127400000Y-28450000D01*
X91350000Y-23600000D02*
X91350000Y-28450000D01*
X127400000Y-23700000D02*
X128950000Y-23700000D01*
D35*
X23425000Y-10075000D02*
X23475000Y-10075000D01*
D34*
X91350000Y-28450000D02*
X91400000Y-28500000D01*
X145550000Y-18300000D02*
X145550000Y-15150000D01*
D35*
X24100000Y-10750000D02*
X25500000Y-10750000D01*
D34*
X163400000Y-23800000D02*
X163400000Y-28500000D01*
X145580000Y-10520000D02*
X145580000Y-18270000D01*
X91350000Y-23600000D02*
X92900000Y-23600000D01*
X37600000Y-15250000D02*
X37600000Y-18300000D01*
X163400000Y-28500000D02*
X163450000Y-28550000D01*
X73600000Y-18300000D02*
X73600000Y-10550000D01*
D35*
X23425000Y-10075000D02*
X24100000Y-10750000D01*
D34*
X55250000Y-23750000D02*
X55250000Y-28350000D01*
D35*
X18500000Y-3250000D02*
X18500000Y-5150000D01*
D34*
X165150000Y-23750000D02*
X163650000Y-23750000D01*
D35*
X33900000Y-17900000D02*
X36500000Y-15300000D01*
D34*
X37600000Y-10650000D02*
X37650000Y-10600000D01*
X109592500Y-18257500D02*
X109550000Y-18300000D01*
X37600000Y-18300000D02*
X165150000Y-18300000D01*
D35*
%TO.N,+12V in*%
X8770000Y-20660000D02*
X5890000Y-23540000D01*
X184632500Y-15500000D02*
X179550000Y-15500000D01*
X179550000Y-15500000D02*
X179500000Y-15450000D01*
X12640000Y-20660000D02*
X8770000Y-20660000D01*
X9380000Y-26880000D02*
X14810000Y-26880000D01*
X179500000Y-15450000D02*
X179450000Y-15500000D01*
X30250000Y-19450000D02*
X29800000Y-19900000D01*
X179450000Y-15500000D02*
X179450000Y-19450000D01*
X179450000Y-19450000D02*
X30250000Y-19450000D01*
X6000000Y-23500000D02*
X9380000Y-26880000D01*
%TO.N,Net-(D2-A)*%
X12750000Y-13900000D02*
X14500000Y-15650000D01*
X14500000Y-15650000D02*
X14500000Y-23000000D01*
X14550000Y-23160000D02*
X13270000Y-23160000D01*
%TO.N,-12V in*%
X2310000Y-4170000D02*
X2310000Y-6860000D01*
X175950000Y-27950000D02*
X175950000Y-22350000D01*
X8720000Y-7910000D02*
X8720000Y-5970000D01*
X184632500Y-31500000D02*
X179500000Y-31500000D01*
X179500000Y-31500000D02*
X175950000Y-27950000D01*
X175950000Y-22350000D02*
X32500000Y-22350000D01*
X2310000Y-6860000D02*
X6040000Y-10590000D01*
X6040000Y-10590000D02*
X8720000Y-7910000D01*
%TO.N,Net-(D4-C)*%
X12060000Y-4090000D02*
X12690000Y-3460000D01*
X11630000Y-4090000D02*
X12060000Y-4090000D01*
X6090000Y-4090000D02*
X11630000Y-4090000D01*
X12690000Y-3460000D02*
X12690000Y-2200000D01*
X6010000Y-4170000D02*
X6090000Y-4090000D01*
%TO.N,+5V in*%
X179552500Y-7720000D02*
X188130000Y-7720000D01*
X6000000Y-28580000D02*
X4250000Y-30330000D01*
X188130000Y-7720000D02*
X188150000Y-7700000D01*
X19300000Y-28500000D02*
X6250000Y-28500000D01*
X20300000Y-25000000D02*
X19300000Y-26000000D01*
X6000000Y-30800000D02*
X6000000Y-28750000D01*
X4250000Y-33500000D02*
X3500000Y-34250000D01*
X31250000Y-20850000D02*
X30650000Y-21450000D01*
X188150000Y-20850000D02*
X31250000Y-20850000D01*
X3500000Y-34250000D02*
X2250000Y-34250000D01*
X4250000Y-30330000D02*
X4250000Y-33500000D01*
X188150000Y-7700000D02*
X188150000Y-20850000D01*
X25250000Y-26550000D02*
X23700000Y-25000000D01*
X19300000Y-26000000D02*
X19300000Y-28500000D01*
X30650000Y-26550000D02*
X25250000Y-26550000D01*
X30650000Y-21450000D02*
X30650000Y-26550000D01*
X8750000Y-33550000D02*
X6000000Y-30800000D01*
X6250000Y-28500000D02*
X5850000Y-28900000D01*
X23700000Y-25000000D02*
X20300000Y-25000000D01*
%TO.N,Net-(D6-A)*%
X11530000Y-35100000D02*
X6040000Y-35100000D01*
X13300000Y-36870000D02*
X11530000Y-35100000D01*
%TO.N,+5V PSU*%
X18040000Y-36840000D02*
X18010000Y-36870000D01*
X18010000Y-36870000D02*
X16600000Y-36870000D01*
X18040000Y-30250000D02*
X18040000Y-36840000D01*
X16600000Y-36870000D02*
X19910000Y-36870000D01*
X19910000Y-36870000D02*
X19960000Y-36820000D01*
%TO.N,Net-(D7-K)*%
X24500000Y-28750000D02*
X22750000Y-27000000D01*
X22750000Y-27000000D02*
X21250000Y-27000000D01*
X24500000Y-31710000D02*
X24500000Y-28750000D01*
%TO.N,Net-(D8-K)*%
X22140000Y-34890000D02*
X24250000Y-37000000D01*
X22140000Y-30310000D02*
X22140000Y-34890000D01*
%TO.N,Net-(F4-Pad1)*%
X26000000Y-34250000D02*
X24750000Y-34250000D01*
X26500000Y-33750000D02*
X26000000Y-34250000D01*
X26500000Y-28500000D02*
X26500000Y-33750000D01*
X27500000Y-28500000D02*
X26500000Y-28500000D01*
X32500000Y-28500000D02*
X33500000Y-29500000D01*
X27500000Y-28500000D02*
X32500000Y-28500000D01*
D34*
%TO.N,+5V rail*%
X110600000Y-16400000D02*
X118690000Y-16400000D01*
X50350000Y-16400000D02*
X50320000Y-16370000D01*
X74530000Y-16400000D02*
X82849000Y-16400000D01*
X144520000Y-16400000D02*
X122350000Y-16400000D01*
X42300000Y-23750000D02*
X42300000Y-28100000D01*
X34400000Y-23750000D02*
X42300000Y-23750000D01*
X108610000Y-16400000D02*
X86300000Y-16400000D01*
X154850000Y-16400000D02*
X146481000Y-16400000D01*
X27000000Y-23000000D02*
X27000000Y-24750000D01*
X42396980Y-16203020D02*
X41782675Y-16203020D01*
X27000000Y-14750000D02*
X27000000Y-16250000D01*
X44930000Y-15050000D02*
X43550000Y-15050000D01*
X118690000Y-16400000D02*
X118700000Y-16410000D01*
X42300000Y-28100000D02*
X42700000Y-28500000D01*
X27500000Y-24800000D02*
X29350000Y-22950000D01*
X34150000Y-23500000D02*
X34400000Y-23750000D01*
X72500000Y-16400000D02*
X50350000Y-16400000D01*
X43550000Y-15050000D02*
X42396980Y-16203020D01*
%TO.N,GATE rail*%
X73592500Y-25940000D02*
X73592500Y-28442500D01*
X168550000Y-28950000D02*
X168400000Y-29100000D01*
X91372500Y-8627500D02*
X91500000Y-8500000D01*
X141450000Y-28550000D02*
X145600000Y-28550000D01*
X145580000Y-28530000D02*
X145580000Y-25940000D01*
X168550000Y-23600000D02*
X168550000Y-28950000D01*
X127372500Y-13060000D02*
X127372500Y-8872500D01*
X55400000Y-13060000D02*
X55400000Y-10550000D01*
X73592500Y-28442500D02*
X73600000Y-28450000D01*
X57940000Y-13060000D02*
X62500000Y-8500000D01*
X91372500Y-13060000D02*
X91372500Y-8627500D01*
X163360000Y-13060000D02*
X163360000Y-8860000D01*
X109592500Y-28542500D02*
X109650000Y-28600000D01*
X91500000Y-8500000D02*
X127000000Y-8500000D01*
X163360000Y-8860000D02*
X163000000Y-8500000D01*
X127000000Y-8500000D02*
X163000000Y-8500000D01*
X109650000Y-28600000D02*
X109600000Y-28550000D01*
X109600000Y-28550000D02*
X104650000Y-28550000D01*
X73600000Y-28450000D02*
X68600000Y-28450000D01*
X37800000Y-31800000D02*
X37600000Y-31600000D01*
X55400000Y-10550000D02*
X55360000Y-10510000D01*
X62500000Y-8500000D02*
X91500000Y-8500000D01*
X68700000Y-31850000D02*
X37850000Y-31850000D01*
X163000000Y-8500000D02*
X168000000Y-8500000D01*
X37600000Y-31600000D02*
X37600000Y-25950000D01*
X127372500Y-8872500D02*
X127000000Y-8500000D01*
X55400000Y-13060000D02*
X57940000Y-13060000D01*
X145600000Y-28550000D02*
X145580000Y-28530000D01*
X109592500Y-25940000D02*
X109592500Y-28542500D01*
X168549000Y-9049000D02*
X168549000Y-18249000D01*
X168000000Y-8500000D02*
X168549000Y-9049000D01*
X165650000Y-31850000D02*
X68700000Y-31850000D01*
X37850000Y-31850000D02*
X37800000Y-31800000D01*
%TO.N,CV rail*%
X166500000Y-7500000D02*
X126400000Y-7500000D01*
X88832500Y-7500000D02*
X55500000Y-7500000D01*
X112132500Y-30432500D02*
X112250000Y-30550000D01*
X40550000Y-30550000D02*
X76150000Y-30550000D01*
X148250000Y-30550000D02*
X167250000Y-30550000D01*
X76150000Y-30550000D02*
X112250000Y-30550000D01*
X40160000Y-25940000D02*
X40160000Y-30160000D01*
X126400000Y-7500000D02*
X124860000Y-7500000D01*
X148120000Y-30420000D02*
X148250000Y-30550000D01*
X76132500Y-30532500D02*
X76150000Y-30550000D01*
X167250000Y-10750000D02*
X167250000Y-18350000D01*
X148120000Y-25940000D02*
X148120000Y-30420000D01*
X112250000Y-30550000D02*
X148250000Y-30550000D01*
X53000000Y-10000000D02*
X53000000Y-13000000D01*
X124860000Y-7500000D02*
X88832500Y-7500000D01*
X40160000Y-30160000D02*
X40250000Y-30250000D01*
X55500000Y-7500000D02*
X53000000Y-10000000D01*
X167250000Y-30550000D02*
X167250000Y-23700000D01*
X40250000Y-30250000D02*
X40550000Y-30550000D01*
X76132500Y-25940000D02*
X76132500Y-30532500D01*
X112132500Y-25940000D02*
X112132500Y-30432500D01*
%TO.N,Net-(LED1-A)*%
X28500000Y-9250000D02*
X27000000Y-10750000D01*
X28500000Y-8250000D02*
X28500000Y-9250000D01*
%TO.N,Net-(LED2-K)*%
X28250000Y-12750000D02*
X28250000Y-17500000D01*
X26950000Y-12750000D02*
X28250000Y-12750000D01*
X28250000Y-17500000D02*
X27750000Y-18000000D01*
%TO.N,Net-(LED3--)*%
X25500000Y-16500000D02*
X25250000Y-16750000D01*
X25500000Y-14750000D02*
X25500000Y-16500000D01*
%TD*%
M02*
